<mxfile host="app.diagrams.net" modified="2024-02-28T11:14:47.818Z" agent="Mozilla/5.0 (Windows NT 10.0; Win64; x64) AppleWebKit/537.36 (KHTML, like Gecko) Chrome/121.0.0.0 Safari/537.36 Edg/121.0.0.0" etag="1bqHkPN44VECHTxauMw-" version="23.1.2" type="google" pages="2">
  <diagram name="Figura 17" id="rRVo-FKp_VSLxPy_-LOv">
    <mxGraphModel grid="1" page="1" gridSize="10" guides="1" tooltips="1" connect="1" arrows="1" fold="1" pageScale="1" pageWidth="1654" pageHeight="1169" math="0" shadow="0">
      <root>
        <mxCell id="0" />
        <mxCell id="1" parent="0" />
        <mxCell id="JYqklVS4Vy_PoH1S0MUS-1" value="" style="rounded=0;whiteSpace=wrap;html=1;fillStyle=auto;strokeColor=#666666;align=center;verticalAlign=middle;fontFamily=Helvetica;fontSize=12;fontColor=default;fillColor=#f5f5f5;gradientColor=none;gradientDirection=east;" vertex="1" parent="1">
          <mxGeometry x="1030" y="540" width="300" height="430" as="geometry" />
        </mxCell>
        <mxCell id="JYqklVS4Vy_PoH1S0MUS-2" style="edgeStyle=orthogonalEdgeStyle;rounded=0;orthogonalLoop=1;jettySize=auto;html=1;entryX=1;entryY=0.5;entryDx=0;entryDy=0;fillColor=#dae8fc;strokeColor=#6c8ebf;strokeWidth=4;exitX=0;exitY=0.5;exitDx=0;exitDy=0;fontSize=15;fontStyle=1" edge="1" parent="1" source="JYqklVS4Vy_PoH1S0MUS-31" target="JYqklVS4Vy_PoH1S0MUS-5">
          <mxGeometry relative="1" as="geometry">
            <mxPoint x="770" y="634.8571428571429" as="sourcePoint" />
          </mxGeometry>
        </mxCell>
        <mxCell id="JYqklVS4Vy_PoH1S0MUS-3" style="edgeStyle=orthogonalEdgeStyle;rounded=0;orthogonalLoop=1;jettySize=auto;html=1;strokeColor=#6c8ebf;strokeWidth=4;align=center;verticalAlign=middle;fontFamily=Helvetica;fontSize=15;fontColor=default;labelBackgroundColor=default;endArrow=classic;fillColor=#dae8fc;fontStyle=1" edge="1" parent="1" source="JYqklVS4Vy_PoH1S0MUS-4" target="JYqklVS4Vy_PoH1S0MUS-9">
          <mxGeometry relative="1" as="geometry" />
        </mxCell>
        <mxCell id="JYqklVS4Vy_PoH1S0MUS-4" value="" style="shape=image;verticalLabelPosition=bottom;labelBackgroundColor=default;verticalAlign=top;aspect=fixed;imageAspect=0;image=https://4.bp.blogspot.com/-Q-2TDYXJ8kc/VDw1BxtRAXI/AAAAAAAAA_Q/ytYWfPgft3U/s1600/Excel_Online.PNG;imageBorder=default;fontSize=15;fontStyle=1" vertex="1" parent="1">
          <mxGeometry x="294.12" y="574.75" width="119.57" height="120.25" as="geometry" />
        </mxCell>
        <mxCell id="JYqklVS4Vy_PoH1S0MUS-5" value="" style="shape=image;verticalLabelPosition=bottom;labelBackgroundColor=default;verticalAlign=top;aspect=fixed;imageAspect=0;image=data:image/png,iVBORw0KGgoAAAANSUhEUgAAAOIAAADfCAMAAADcKv+WAAAA8FBMVEX///8AAAD/43X0pQDgggD9wAbslwD7tQDokADvnAD2qQD/zSf/3l7/4W7mjQD/32TjhwDyoQD8uwP/3VT/0C/+yBv/2Uf/1Dn/32H8uAL/10LrlQD/yyL/3VXIyMicnJxLS0uLi4v/9dH/++7aigH/1Cfy8vL5xGn1zp/77MPOfQLedgDW1tbffAD5sADvxp9cXFxpaWnm5ub0zZ/ZgQFAQEC3t7cjIyN+fn7Q0NCEhIRmZma6uroyMjKTk5OsrKw7OzsVFRX979f6zID4tjX85sb/44b6wyfmmQ3/8sX/8Lj/2j3z07TKcADno1z45tVsSI0JAAAHzElEQVR4nO3ca1faSByAcaMxEEUIigqGi1Rlt1vKAlsQFETa7a5t9/L9v83ONZeZSeKeajOT839Oe6AU0/yYyUz0RXd2IAiCIAiCIAiCIAiCIAiCIAiCIAiCIAiCIAiCIAiChD5++imln/M+vRfo095BpL099Iv8ZtUPrvI+w+/tc0wohpEHeZ/i9/Z7hvBgr/4573P8zkYZQDRVTb8ck338giwoMbrkFJO4F62AxPimUUCi4CsecS8+SeuFIwpAllscojxF8TDW60UhimsMn6T1ohCTBrBeCCK+/g5iwjp/LAxRGryYrxhE1SpaLxYxHVgsYl3hKxJRvgYLQ6wnwIpETM+tuwUiukUdRZeXBHQd04mOG1aPQl0KLAIxyBfHksFNIl79cR6t0UC/Gvx5o/Gn68eIrnnEq/OkGqy6g40uW0gNJB6l+1CHZceNj6BhxJssYePmyXdFoEnEq5vzi1QgChNdMaOIWcLGU9mRhK5vLFHkJRLNHUXJd3jYeKoWZxTlATw8LBRRDSREvxDEJCDq6Voiohs744jJQAWR3LsaRWxIwMNYEaLDgIYRU6Yoqt2OEB0OdJyyQcRUIBK2Y6PoFIAoAqNExzGfeNiQgIzoxIEGE2Vg+7RNRtFxjCW2U33t01NCFHy+4xtIlK9BCiTEsig0cRSThlAeRd844mkGUBjFAGsUUTlFA6A8UX3jiBlAFCf6dKEhT/3qb3mf+nOLEpU+1PWHcngNEp9vFrEtJgoJ0Q+Gjwq1Jb6R+nJxxjpPACLidZnIHM7z/XJZT+LXI0W7YRenCuA+GUWC43O0jNOS+LW2m9G5Ygj39ymR+5hQT+JRlnC3pgCi2HITE2pJfJNN3G0rgJhYDX06E99mEo8E4r5ALDOgbyoRLz1t2RcQy+EIGklky2tbAaTEsiAse2YRgx1EBSwAMbpJKoUBsWwmMX4fgDd6EZhANOVajPlqtSOFz+hRjA9g7X8Rq1UDiEfiCNbSiIKvagBR8BEg6lnEqgFEcQDDnkGsVvUnSlfgM4ieCNSZmDiAJBXwOCBWo2lKVC0xGcTjY06sxvN+zRsk9zYD2Gw2ZeIxJ1bFtBzFWtoUbTYF4jEDUqIk1Jwoz9AmSwFUEz1Py4la44uoGlipVJrCFGVJRM/TmChNUD6AlUqMGAGKo+jRbB2JTcUSGgWiFEBhFD1Pa2LCFVgJU/hiRM/TnJgB7HQqSuHx9S+eCNSUWEkDdnAVFbDFiJ5nElHyUWGnIxNbLUr0xLQmKmZoJ4HYIiGinMZEGZhEbPHMIiYO4AkuSmy1TCQ2a4olhvio8ORkXyVE1+IHQ4gdYROshAMoEluxjCKqlpiTSPsSsFQqqYnvtSTGdnnZx4gtQWgkscOFJ2LSCCYRbVtjonKC0s5O0K2MCFQRbVtT4kkc2AlXGQpEKYAy0bY1JqaN4FmUWColEm1bZ2KGLySW4kWItm0AMQXIiHjg1ETb1px4pvJFgZRYkmJE29ad+OUsC4iJMnBEibZtIvFMShaORoQoAs0gSr6LC4mIfCYR355lACXiiGYiUcmTiCNzifIVqCKOwswh0msxkRcjjkYlE4kfv2UAQ+IoVgLxr7xBijoZQE4ciSmJ7/LmqPr47SLNx4gSUEl8/07HQcT/7cu3m/TU/9H0h7/fCb3/59+8MRAE6dGUNHidgw+kgw+Hr/MvpTSxWHfTlz94jx/8shu+0k39klfo0gp6+X+7Hx68T1/JiTgdDKZdTH3xOYSIywE6+kPwAeZEpJcKmrHjlz44ItLpv0FzlTzJlTiw+LOXqx/MDHRw8pgrcWfGz2faRy9ePtDPf764Y+/sL1b0yXSxoG9cLmbr2R2f3nfoVTTfx5HpHhK3WhAv2fks+ArxEDvLoWWtd/hpLvHjmL1vQV+2rNWcLM3hwaOj+Mi/NkfiLX2GT/xhs1kw45AvhnjJoAM7oyOCHhbLaXfMjejRsmaTbT88eEBEsjl/kh8RWWboYc4Xhim7NrfWlvwZ0zfkGTX1+B/vGT0Y+DBGHKDHe/pKnkQswtfabTCqc0qZRATkPFd0nvKPAq9TffaGhXDwcF/ki3VOxPlqtUFDYU12iDQ4T3r9dOloLa3bBzpBJ+RhST8R3Nq6pG+/FQ8e2fq35PLN+e6GLBMrftGgHimJDkEfLZV0+LZkMNFONx/SZnQdop9RrD570/ySX8j5EdfjHl1K+GqJm9A5e0+kazSW5GMY0uHrWZHI1aomshX1gc3rfFdUfirBvragf7XBZzXAo3CPh6tHX8XnPOaRdSeViDdG/CFqQIyewiWdqAN8ea7w8zk+zTVdOnp8CwlKJy7ogTUgosWlx5/TXQRvgFt0hguCxbOVjNkmXG6Ct5tBHPDbEHLR0RsVPDW3ZBV6tCbdcJMRRJkTdbCjBRH/me7oaEayv0Eatr0/WNsxv41bi998pRLvrGB+507EtwB9xOk+hvcq6HaA7nlLvHyyiYyfb/CXLvvUoSb25qjeLOdNI/4t1CrYCoJ7gH5wc21FvnHehJsGI96LB78L33IbbEo/nDiRvkuc0h/njMNTQVcl2y0XwW0bfvmebooT+k75/m2nu70lrfn3Yfhz+fE/n1J9GzwdDgfqNw0GyW98pZ/iQRAEQRAEQRAEQRAEQRAEQRAEQRAEQRAEQRAEQVAB+g+CoxJAeYgz+wAAAABJRU5ErkJggg==;imageBorder=default;fontSize=15;fontStyle=1" vertex="1" parent="1">
          <mxGeometry x="530.8100000000001" y="574.75" width="121.87" height="120.25" as="geometry" />
        </mxCell>
        <mxCell id="JYqklVS4Vy_PoH1S0MUS-6" value="Supporto alla&lt;br style=&quot;font-size: 15px;&quot;&gt;Configurazione" style="shape=umlActor;verticalLabelPosition=bottom;verticalAlign=top;html=1;outlineConnect=0;fontSize=15;fontStyle=1" vertex="1" parent="1">
          <mxGeometry x="340.52" y="839" width="30" height="60" as="geometry" />
        </mxCell>
        <mxCell id="JYqklVS4Vy_PoH1S0MUS-7" style="edgeStyle=orthogonalEdgeStyle;rounded=0;orthogonalLoop=1;jettySize=auto;html=1;strokeColor=#82b366;align=center;verticalAlign=middle;fontFamily=Helvetica;fontSize=11;fontColor=default;labelBackgroundColor=default;endArrow=classic;strokeWidth=4;fillColor=#d5e8d4;exitX=1;exitY=0.5;exitDx=0;exitDy=0;startArrow=classic;startFill=1;entryX=0.5;entryY=1;entryDx=0;entryDy=0;" edge="1" parent="1" source="JYqklVS4Vy_PoH1S0MUS-28" target="JYqklVS4Vy_PoH1S0MUS-31">
          <mxGeometry relative="1" as="geometry">
            <mxPoint x="679.24" y="890" as="sourcePoint" />
            <mxPoint x="870" y="680" as="targetPoint" />
          </mxGeometry>
        </mxCell>
        <mxCell id="JYqklVS4Vy_PoH1S0MUS-8" style="edgeStyle=orthogonalEdgeStyle;rounded=0;orthogonalLoop=1;jettySize=auto;html=1;entryX=0.5;entryY=1;entryDx=0;entryDy=0;strokeColor=#82b366;strokeWidth=4;align=center;verticalAlign=middle;fontFamily=Helvetica;fontSize=15;fontColor=default;labelBackgroundColor=default;endArrow=classic;fillColor=#d5e8d4;exitX=0.5;exitY=0;exitDx=0;exitDy=0;startArrow=classic;startFill=1;fontStyle=1" edge="1" parent="1" source="JYqklVS4Vy_PoH1S0MUS-28" target="JYqklVS4Vy_PoH1S0MUS-5">
          <mxGeometry relative="1" as="geometry">
            <mxPoint x="591.74" y="825" as="sourcePoint" />
          </mxGeometry>
        </mxCell>
        <mxCell id="JYqklVS4Vy_PoH1S0MUS-9" value="" style="shape=image;verticalLabelPosition=bottom;labelBackgroundColor=default;verticalAlign=top;aspect=fixed;imageAspect=0;image=https://upload.wikimedia.org/wikipedia/commons/thumb/e/e1/Microsoft_Office_SharePoint_%282019%E2%80%93present%29.svg/150px-Microsoft_Office_SharePoint_%282019%E2%80%93present%29.svg.png;fontSize=15;fontStyle=1" vertex="1" parent="1">
          <mxGeometry x="313.7" y="355" width="81.63" height="80" as="geometry" />
        </mxCell>
        <mxCell id="JYqklVS4Vy_PoH1S0MUS-10" style="edgeStyle=orthogonalEdgeStyle;rounded=0;orthogonalLoop=1;jettySize=auto;html=1;entryX=0.5;entryY=0;entryDx=0;entryDy=0;exitX=0;exitY=0.5;exitDx=0;exitDy=0;strokeColor=#6c8ebf;strokeWidth=4;align=center;verticalAlign=middle;fontFamily=Helvetica;fontSize=15;fontColor=default;labelBackgroundColor=default;endArrow=none;fillColor=#dae8fc;startArrow=classic;startFill=1;endFill=0;fontStyle=1" edge="1" parent="1" source="JYqklVS4Vy_PoH1S0MUS-13" target="JYqklVS4Vy_PoH1S0MUS-14">
          <mxGeometry relative="1" as="geometry" />
        </mxCell>
        <mxCell id="JYqklVS4Vy_PoH1S0MUS-11" style="edgeStyle=orthogonalEdgeStyle;rounded=0;orthogonalLoop=1;jettySize=auto;html=1;entryX=0.5;entryY=0;entryDx=0;entryDy=0;strokeColor=#6c8ebf;strokeWidth=4;align=center;verticalAlign=middle;fontFamily=Helvetica;fontSize=15;fontColor=default;labelBackgroundColor=default;endArrow=classic;fillColor=#dae8fc;startArrow=classic;startFill=1;fontStyle=1" edge="1" parent="1" source="JYqklVS4Vy_PoH1S0MUS-13" target="JYqklVS4Vy_PoH1S0MUS-15">
          <mxGeometry relative="1" as="geometry" />
        </mxCell>
        <mxCell id="JYqklVS4Vy_PoH1S0MUS-12" style="edgeStyle=orthogonalEdgeStyle;rounded=0;orthogonalLoop=1;jettySize=auto;html=1;entryX=0.75;entryY=0;entryDx=0;entryDy=0;exitX=1;exitY=0.5;exitDx=0;exitDy=0;strokeColor=#6c8ebf;strokeWidth=4;align=center;verticalAlign=middle;fontFamily=Helvetica;fontSize=15;fontColor=default;labelBackgroundColor=default;endArrow=classic;fillColor=#dae8fc;fontStyle=1" edge="1" parent="1" source="JYqklVS4Vy_PoH1S0MUS-13" target="JYqklVS4Vy_PoH1S0MUS-17">
          <mxGeometry relative="1" as="geometry" />
        </mxCell>
        <mxCell id="JYqklVS4Vy_PoH1S0MUS-13" value="" style="shape=image;verticalLabelPosition=bottom;labelBackgroundColor=default;verticalAlign=top;aspect=fixed;imageAspect=0;image=https://static.cognitoforms.com/content/product/assets/images/power-automate-full-logo-b9c3c4d1-fa1f-41be-b75c-31a7d9c00f4c-8fc2c2f-201x201.png;" vertex="1" parent="1">
          <mxGeometry x="450" y="148" width="120" height="120" as="geometry" />
        </mxCell>
        <mxCell id="JYqklVS4Vy_PoH1S0MUS-14" value="Ingestion" style="image;aspect=fixed;perimeter=ellipsePerimeter;html=1;align=center;shadow=0;dashed=0;spacingTop=3;image=img/lib/active_directory/folder.svg;fontSize=15;fontStyle=1" vertex="1" parent="1">
          <mxGeometry x="395.33" y="370" width="36.5" height="50" as="geometry" />
        </mxCell>
        <mxCell id="JYqklVS4Vy_PoH1S0MUS-15" value="Staging" style="image;aspect=fixed;perimeter=ellipsePerimeter;html=1;align=center;shadow=0;dashed=0;spacingTop=3;image=img/lib/active_directory/folder.svg;fontSize=15;fontStyle=1" vertex="1" parent="1">
          <mxGeometry x="491.75" y="370" width="36.5" height="50" as="geometry" />
        </mxCell>
        <mxCell id="JYqklVS4Vy_PoH1S0MUS-16" style="edgeStyle=orthogonalEdgeStyle;rounded=0;orthogonalLoop=1;jettySize=auto;html=1;strokeColor=#6c8ebf;strokeWidth=4;align=center;verticalAlign=middle;fontFamily=Helvetica;fontSize=15;fontColor=default;labelBackgroundColor=default;endArrow=classic;fillColor=#dae8fc;fontStyle=1" edge="1" parent="1" target="JYqklVS4Vy_PoH1S0MUS-5">
          <mxGeometry relative="1" as="geometry">
            <mxPoint x="592" y="445" as="sourcePoint" />
          </mxGeometry>
        </mxCell>
        <mxCell id="JYqklVS4Vy_PoH1S0MUS-17" value="Output" style="image;aspect=fixed;perimeter=ellipsePerimeter;html=1;align=center;shadow=0;dashed=0;spacingTop=3;image=img/lib/active_directory/folder.svg;fontSize=15;fontStyle=1" vertex="1" parent="1">
          <mxGeometry x="573.5" y="370" width="36.5" height="50" as="geometry" />
        </mxCell>
        <mxCell id="JYqklVS4Vy_PoH1S0MUS-18" value="Microsoft SharePoint" style="swimlane;horizontal=0;whiteSpace=wrap;html=1;fontSize=15;fontStyle=1" vertex="1" parent="1">
          <mxGeometry x="280" y="290" width="390" height="175" as="geometry" />
        </mxCell>
        <mxCell id="JYqklVS4Vy_PoH1S0MUS-19" style="edgeStyle=orthogonalEdgeStyle;rounded=0;orthogonalLoop=1;jettySize=auto;html=1;strokeColor=#82b366;align=center;verticalAlign=middle;fontFamily=Helvetica;fontSize=15;fontColor=default;labelBackgroundColor=default;endArrow=classic;fillColor=#d5e8d4;strokeWidth=4;exitX=0.5;exitY=0;exitDx=0;exitDy=0;fontStyle=1" edge="1" parent="1" source="JYqklVS4Vy_PoH1S0MUS-26" target="JYqklVS4Vy_PoH1S0MUS-4">
          <mxGeometry relative="1" as="geometry">
            <mxPoint x="353.9333333333334" y="825" as="sourcePoint" />
          </mxGeometry>
        </mxCell>
        <mxCell id="JYqklVS4Vy_PoH1S0MUS-20" value="" style="image;aspect=fixed;perimeter=ellipsePerimeter;html=1;align=center;shadow=0;dashed=0;spacingTop=3;image=img/lib/active_directory/generic_server.svg;" vertex="1" parent="1">
          <mxGeometry x="1070" y="572" width="70" height="125" as="geometry" />
        </mxCell>
        <mxCell id="JYqklVS4Vy_PoH1S0MUS-21" style="edgeStyle=orthogonalEdgeStyle;rounded=0;orthogonalLoop=1;jettySize=auto;html=1;entryX=1;entryY=0.5;entryDx=0;entryDy=0;strokeColor=#6c8ebf;strokeWidth=4;align=center;verticalAlign=middle;fontFamily=Helvetica;fontSize=11;fontColor=default;labelBackgroundColor=default;endArrow=classic;fillColor=#dae8fc;startArrow=classic;startFill=1;" edge="1" parent="1" source="JYqklVS4Vy_PoH1S0MUS-20" target="JYqklVS4Vy_PoH1S0MUS-31">
          <mxGeometry relative="1" as="geometry">
            <mxPoint x="960" y="634.8800000000001" as="targetPoint" />
          </mxGeometry>
        </mxCell>
        <mxCell id="JYqklVS4Vy_PoH1S0MUS-22" style="edgeStyle=orthogonalEdgeStyle;rounded=0;orthogonalLoop=1;jettySize=auto;html=1;strokeColor=#82b366;strokeWidth=4;align=center;verticalAlign=middle;fontFamily=Helvetica;fontSize=11;fontColor=default;labelBackgroundColor=default;endArrow=classic;fillColor=#d5e8d4;exitX=0.5;exitY=0;exitDx=0;exitDy=0;entryX=1;entryY=0.5;entryDx=0;entryDy=0;" edge="1" parent="1" source="JYqklVS4Vy_PoH1S0MUS-29" target="JYqklVS4Vy_PoH1S0MUS-20">
          <mxGeometry relative="1" as="geometry">
            <mxPoint x="1165" y="795" as="sourcePoint" />
            <mxPoint x="1165" y="622" as="targetPoint" />
          </mxGeometry>
        </mxCell>
        <mxCell id="JYqklVS4Vy_PoH1S0MUS-23" style="edgeStyle=orthogonalEdgeStyle;rounded=0;orthogonalLoop=1;jettySize=auto;html=1;entryX=1;entryY=0.25;entryDx=0;entryDy=0;strokeColor=#82b366;strokeWidth=4;align=center;verticalAlign=middle;fontFamily=Helvetica;fontSize=15;fontColor=default;labelBackgroundColor=default;startArrow=none;startFill=0;endArrow=classic;fillColor=#d5e8d4;endFill=1;fontStyle=1" edge="1" parent="1" target="JYqklVS4Vy_PoH1S0MUS-5">
          <mxGeometry relative="1" as="geometry">
            <mxPoint x="760" y="470" as="sourcePoint" />
          </mxGeometry>
        </mxCell>
        <mxCell id="JYqklVS4Vy_PoH1S0MUS-24" value="" style="image;aspect=fixed;html=1;points=[];align=center;fontSize=12;image=img/lib/azure2/identity/Users.svg;" vertex="1" parent="1">
          <mxGeometry x="810" y="435" width="64" height="70" as="geometry" />
        </mxCell>
        <mxCell id="JYqklVS4Vy_PoH1S0MUS-25" value="Stakeholders" style="swimlane;whiteSpace=wrap;html=1;fontSize=15;fontStyle=1" vertex="1" parent="1">
          <mxGeometry x="763" y="405" width="158" height="110" as="geometry" />
        </mxCell>
        <mxCell id="JYqklVS4Vy_PoH1S0MUS-26" value="Utenti AS.SO.FA." style="swimlane;whiteSpace=wrap;html=1;fontSize=15;fontStyle=1" vertex="1" parent="1">
          <mxGeometry x="275.52" y="803.5" width="158" height="146.5" as="geometry" />
        </mxCell>
        <mxCell id="JYqklVS4Vy_PoH1S0MUS-27" value="Attività ordinarie e&lt;br style=&quot;font-size: 15px;&quot;&gt;registrazione presenze" style="shape=umlActor;verticalLabelPosition=bottom;verticalAlign=top;html=1;outlineConnect=0;fontSize=15;fontStyle=1" vertex="1" parent="1">
          <mxGeometry x="577" y="837.5" width="30" height="60" as="geometry" />
        </mxCell>
        <mxCell id="JYqklVS4Vy_PoH1S0MUS-28" value="Utenti AS.SO.FA." style="swimlane;whiteSpace=wrap;html=1;startSize=23;fontSize=15;fontStyle=1" vertex="1" parent="1">
          <mxGeometry x="500" y="803.5" width="180" height="146.5" as="geometry" />
        </mxCell>
        <mxCell id="JYqklVS4Vy_PoH1S0MUS-29" value="Sostenitori e Benefattori" style="swimlane;whiteSpace=wrap;html=1;fontSize=15;fontStyle=1" vertex="1" parent="1">
          <mxGeometry x="1076.57" y="803.5" width="224" height="146.5" as="geometry" />
        </mxCell>
        <mxCell id="JYqklVS4Vy_PoH1S0MUS-30" value="" style="fontColor=#0066CC;verticalAlign=top;verticalLabelPosition=bottom;labelPosition=center;align=center;html=1;outlineConnect=0;fillColor=#CCCCCC;strokeColor=#6881B3;gradientColor=none;gradientDirection=north;strokeWidth=2;shape=mxgraph.networks.users;" vertex="1" parent="JYqklVS4Vy_PoH1S0MUS-29">
          <mxGeometry x="75.75" y="35.5" width="72.5" height="82.5" as="geometry" />
        </mxCell>
        <mxCell id="JYqklVS4Vy_PoH1S0MUS-31" value="" style="shape=image;verticalLabelPosition=bottom;labelBackgroundColor=default;verticalAlign=top;aspect=fixed;imageAspect=0;image=data:image/png,iVBORw0KGgoAAAANSUhEUgAAAwoAAAE/CAYAAADmEDQWAAAAAXNSR0IArs4c6QAAAARnQU1BAACxjwv8YQUAAAAJcEhZcwAADsMAAA7DAcdvqGQAAABhaVRYdFNuaXBNZXRhZGF0YQAAAAAAeyJjbGlwUG9pbnRzIjpbeyJ4IjowLCJ5IjowfSx7IngiOjc3OCwieSI6MH0seyJ4Ijo3NzgsInkiOjMxOX0seyJ4IjowLCJ5IjozMTl9XX3T7+JcAADI+0lEQVR4XuydBWAcx9XHn8XMDJYsWWZmdgyxE4eZ0zA2Tduk/LVNm1LKEGg4TRtmBseOmZktywKLmRn8vf9oL5ZPB3unO91Jer/2Yt9KvtudmZ19/5kHw04zJAiCIAiCIAiC0AMP7U9BEARBEARBEIRvEKEgCIIgCIIgCEIvRCgIgiAIgiAIgtALEQqCIAiCIAiCIPRChIIgCIIgCIIgCL0QoSAIgiAIgiAIQi9EKAiCIAiCIAiC0AsRCoIgCIIgCIIg9EKEgiAIgiAIgiAIvRChIAiCIAiCIAhCL4adZrS/D2jq2rsou76dTtR1UH5jB5W2dFFlayc1d5ymti7tl5hgbw8K9R5GMf4elBLkTWlBXjQqxJvCfDzIY5j2S4IgCIIgCIIwxBnQQqGspZP2V7XRzopWyqzvoKKmDipngVDDyqCehUNT52lq7yTq6HGJvqwG/L2GURC/wn09KNLXk+L8PCkjxIumR/nS9Agfig/wIk8RDYIgCIIgCMIQZsAJhS4+3ZMsCjaWtdKO8lY6WttOWfy+nEVDe5d9l4KdBAiGtGAvGhPiTTMifWhRnB+NCfUmH9lmEARBEARBEIYgA0oo5DV00JqSFtrIr20VrZTL71s6HXv6XqwLhgd5KbGwOM6fzon1pdEsGDyH9V0wQMhA0OQ1dlJxUydVtnZRbXsXNXd2UWvHacKV+HoOowA+iRBvT4rx86R45SLlxULGg7xFtAiCIAiCIAj9xIAQCk0dXbShrJU+K2imzwqbWSC0s9Gt/dBJQBgMD/KkJXF+dEFSAC2K9aMoNtZtBeKgkEXBkdp2Os6v7PoOFgrdblJKKLRBKHTHUWC3BK5R3ULBg2L8PSkhwJNSAr0oPdiLRod40/hwH4r1E9EgCIIgCIIgOBe3FwrFzZ30wakmeiW7gXZXtang5P4E2mACG+fXjAikC1kwjA311n5imVY2/uEStbuylV/dcRRwk0L8hD1gR2FcmI/a6ZgZ5UvT+M/UIC8lLARBEARBEATB0bitUEC4wYm6dnolp4GezWxQgct2hiA4hDh/T7p8eAB9a2QQTY/0NRvsjFPMaehQ8RNfFjXT2pIWlYXJUefuMWyY2l1YGudHy+L9aFa0LyUHeEnGJkEQBEEQBMGhuKVQwKbB4Zo2+vfxenohq4HaHByHYC9IrQpXpIfGh9C8GD8Vz9CTRj7xfVWt9O6pJnont4nymxwnEIyBMMgI9qbLUwLpkmR/tesRaHxCgiAIgiAIgmAnbicU4NMPF50/HKql17IbtaPug5/nMJoV5Uu/mx5Oc6J8vglyxo7H18Ut9M+jdbSnqs3hQdbmCPTyoPkxvnTP6GBaaGcchSAIgiAIgiAY41ZCATsJcDf6E4uEF7MatKPuB1KmzmSR8OScSJoY5kOlLBJeYVHztyO1VNzcpYKS+xO4IyHQ+f4xwXRFSoBykxIEQRAEQRCEvuA2QgEuOqcaO+hfx+ror4frtKPuC8QC3JAenx1BL51sVDsJKPLmShJYINw9OpjuY8EQ5StiQRAEQRAEQbAftxEKSBX6WnYDfW9nldpZGAggTmBahC/trWolNwmjULUX7hkdRA+PD1UxFYIgCIIgCIJgD24hFJBKFNmB7tpaSQWNHdpRwV6i/Tzo/yaF0b2jg6XegiAIbg0eQJ1dp6mLhim3TbzHU0mFf/GfmMI8+T/INCezmSAIQv/iFkLhYHUb/Xp/Lb2d537BywMViIX/LYymFQn+2pHe9Hwodw+CYfzn2cNhmHo0n1b/xYMb70V7CLaA3TZr0wzibGRcDR0wGgziAEUnT9a3q0Kapc1d1NBxWlWr9/X0IH8PUoUnUXRyTKg3hfp4kJeIBkEQhH7D5UKhtr2L/neygR7cUeU27juDAWRjSgv2oq0XxFGEt2f36lwP0O4Hq9rocE13xeicxg4qa+6kOj7exB2BrvDnpzEqREf7etII/qxRIXhY+9CcaF8K4J8Zf6YgGAOj76njdVTcZD5+x4NH24pEf5oX40tBXuIuN9hBKNeB6jb64FQjrS5uoUP8d2SJOzP9D1PCctg3E0z33zFOMkK8aUmcP907JpjG8N9FXAqCIDgXlwuFjaWt9JM91bS5rEU7IjgKVG2+Pi2I/j03QgVfH2NB8GlBM60raab91d1VoiHOOnkI4IV9A4wGwyMbuwd4VmOfAcIDD2Ws5Pl5eNDUSB8VzH3JcH9KD/ZWny8IPUGsEeqKLP681GomsMuGB9DDE0JpWoSPdkQYbLR1naa1LAyeyazn+b6V6ju6lGjQs+NkAPMQQq+emBNJV6cGsrCUeUcQBMGZuFQoVLOh+sKJBvopCwU8RATHAiMfdRa+PzaY9rEw2F/VpnYSsHrHTd+nNK6+rBj8WBwEeg+jqWzcIS3rBUmBFOMnK8JCN6iJsruyjeZ+WqwdMc/FyQH0k4mhardKGHycrO+gfxypo48KmqikuVPFpdk7+8T7e9J/FkSpyvRwWRMEQRCch0utuqM17fRVcYuIBCcBHdDAwuCJ4w20uqhZpZ/FLgKEQl9rPeBBD9FR1NSpAtF/tqeGrltfRo8fq6N8CUgXBEFjS1kLPbyziv6X3aDmoLPdjGxncZwfJQV6iUgQBEHoB1wmFAwVmLeXi8uRs6ls7aTmPj6cLdHccZqKmztpc3kr/eFgLX17exW9ldeohIQgCEOXbTwn/JbnhNXFzWoH2RFrQnB5TAjw0t4JgiAIzsRlQgGrzvBfxgq3MDjALkNhUyd9xUbBI/tq6NH9NbS/uk37qSAIQ4mchg768+E62lDSQo0OKo4zMtiLJoT5ULC37CYIgiD0By4TCtn8EEFaVGetcguuo4mNAriV/S+7kX57oJY+KmhWIkIQhKEB3En/dbROJU5A5itHcY7aTfB0rc+sIAjCEMIl8y3c4081dlJmvfiyD1ZgGpQ2d9Lnhc30p0M19PLJBqoXVyRBGBLgvv+4oIlq2vSLBCQwQv2X8WHeKkHCpHAfSgrw4uPduwf4+bkJ/vw7nuq9IAiC4HxckvWovv00/fVIrVptRqyCMLjxYTk6LsyHbssIphvTAikcB4RBj2Q9GppgQeD6DRW0prhZxUZZA5nSFsT60cxIFgaB3hTiPUwVVcOjAckYUN8lV0uQ8MDYEEoN8iJxPBIEQegfXCIUcurb6Y+H6+jfx+u1I8JgB6uBo0K86e7RwXTryCAKRjJ0YVAjQmFo8t6pJrpnayWVt3aq3WNzoPQKiqZdmxZI5yUE0JhQL5PzAjyXkFIVlZzjAzylZosgCEI/4hJrrbK1i8pbOrV3wlAAD3u4mj2dWU9v5jYRDwFBEAYZHWzMv5RVrzKeWVuCwsLBHaOC6S5+zYxCgLLpxxEWGZJYIKQEeYlIEARB6GdcIhSQJq9KLMUhB4yIE3Xt9MSxOvq8oMmqISEIwsABt3NmXQdtK2+jNisuRzF+nnTJ8AC6JjWQYiXmQBAEwW1xiVBo4oeIo9LlCQMLxDOjfsY/jtbTYf5TEITBAbQBKi/XYTdBO2aO6ZE+dGGiv8pgJAiCILgvLhEKbZ3dOfeFoQkqs+6saFHpE6sxGARBGPBgx/CTgmblZmiJIG8P5Wo0NVLiUQRBENwdlwiFjtOn1UsYuiC3+hu5DcqwYPtCEIQBTBfP5xWtnbSnsk3tLFhiRJAXjQ31oUAEHwiCIAhujUuEgic/Hzy13NjC0KWh/TT98VAtFTV1KkNDEISBCXYRdrFIaO5EELPle3lUiJeqsCwIgiC4Py4RCshc4Qu1IAxpsPKICs7PZtZJFiRBGMAg9mhHeavVBAWY9dODvSmVX4IgCIL74xKhEOA1jAJEKAgMxMKTx+uppLlDXJAEYYACV9L9VW3aO/P489yfGOBJkVJ0URAEYUDgktk6jB8SEb7yoBC6UypWtHbR6zlNKhuWO4LTamUV09RxWsVWoPIsMrvgT7yQwQsVaBGgj4BOV14F3D5wvljhxfkgcBznZsg01tjRpa4Dx9v4XPmPIZemFpeLfjqrfbQ+PLtd3Kdh+JTU+eIcUa34zBjsHo84ZuhX/qPfxyB/PR2qabP6vckBXhTn70X97XmK9sM5nulvtFfXN32On+F3BH2gqTDODGMSY697fun+u2pb/lPNifx7rmhb/mp1L/fsc0N/q/Pin7ngtIQBAOb+Lh4fnV1d3S8dLpWDGZdUZj5Z306PHaylZ080aEeEoc6IIG/aeH4sJbIh4WrUJMF/8rNEPVBO1nfQoeo2OtXYSaUtnfyw6eKHDZEPGzs+nsMolIVvrL8nJfh50sgQb0oJ8qQgLw9VeRYvZ8bj4AGM+A6cL/6Oh2BhU4eK+6hqY0OyDeKmi2r57/xXVbwKO3rhPp4Uz+ecEuhJw4O8yJ+vw3Cujqpp5S6VmTHDGdqnnSf9erZc8ho66FRDJ1W2dSrxBEMRbRPs7cmG7DBKC/ZWRq2/1o/YAHVQs+gG54sx2MbnXNTURfuqWtV5FzfD4IE4OK3OzY9PDoHB0Tz+sFoP1560YC8K9/VUK0H4HfzZl2HIp6EqI+NPY3CeeY3tNPq9Iu2IeRbH+ql+Xhrvpx0xjwefsL0bz4bzRb+jb1El+kRtO+XzvdHI7cZNyA8/tB1x23modkOb4T728+Q+509Q7eaEe9cwHk21ZU+6z8H09+Pfq+vjDzH1OfhXeHnwRRjGQF/p5BPnYae+u4bnk9zGDsrhubGMJ0O1WMIv/AzeAtgwQruiXgaqaScEeKjx6a3NL57aeTkStAXuFyTnbeFzyeX7O7ehje/x01TH5wvBgu/mLqZovjdSed5L4edOiLfj577+wmDQYgx08TzRbc4ZXwSPIw8Pvv+HfTMm8PeBAK4Hl9TTTFXXwafvqGtQbYjvwf2k2pLHT0s71dQ1UFtbuzrmyXNCSHAABQb4kbdX90LHMIzhYTxX2DFozrou/HP+w537xSVCATftnw7X0W8O1GhHBIHovSUxtDLRXxmtrgQPwa+Km+mt3CZaW9JC1a149OA2GXbWhNWTb+5v/jEqzI4N86ZFbBTBIJof48fCwfHXhNWywzXttI7PcWt5q3L9yOOHN9u92vn2pPvcz0xE3T/HowPabEKYDy2J86cLk/1pdpSvQx6Y7iIUSpo7aUNpC31e2EJbylroZAMmf/7BWdfYu12w8zkj0oeWJ/jRBUn+NJINcG9HNIwOIF52V7TRqzmNPBZb2ODp0PrU0hjEufHP+P9+PN7S2AiaH+NLy+L9eSz6KiPYXrLq22l1UTNl1vVOZwyDFQL6zdxG7Yh50IYzeXxZOxcYmvNifOiS5EDtiH5g0EIEIqPaVyXNtKOilcpYGZx9T5zd3wB9Hu3nQVMjuM+5zVYm+vF97ONwgxZttam0lQ7xvWsOiITLhgfQ6FAfHnPaQY0aVj64pq+KWmhvZatawKhkIcTdoO5bzD9JfFNnhHrRhFBvmsvzz7RIb/JlY9FesHO1hudEtOkmvoey6vge0n7WTXd7mppjAIzwCO7USeE+NCPKR43LhTw/hpipxm0ruF82l7XSJ/lNtJnnwgPVbdwefK/06vOz+zuIRcJYbqNlPE+vSgqgGdz3WPwZCGClu7i8lrbvP0lHc4ooK6+UCsuqqaGplZpbWsnD05MC/FgIBflTYkw4pQ+PpcmjkmnKmBSKiwo988xyU5pb29T1FZRUUk19szoGYzqUrychNpxS4qPIiw34voCdgvLKWtq04wjt3p9FR4/nU25BKdXVNynhoA3rbvitv78PJcRF0piMZJo+eSTNnT6GMtLiWUjon1vRbxX8nSVlNVRVU0/1fG2BgX40emQiJfE1uSMuEQr4xudONNDP9lZTOZZmBYG5ZWQw/WF6mMsqtcKgRMrW5080UnZ9h1rJ7Ta6bQNzCx7YXjwT4zmIVTUIoKtTA5V46Iutiarm69hw/Liwmb7mBzfctlS6YZ7U1GqaHXczHhiYbnG+WJ3Gyuq9Y4LpuhFBFMjv7X2guFIooBl2szH18skG+pwNKuyw4HzQVnrbCJcNm8Gb/4NV0gXcd3dkBClB5azUnhCpMMgRt7OLz5/f2nTOPYFx5jnsNI9BDwpnI20ut+01IwLofBY9ATY+YP9xpI5+tb/GrHsgVuSwcm8NdV/wf6y1HttvfL5+9OWKWO2IdeBWAiGIZ8vXfI/ANQuryLa4mOC8DH0eyjcvRPNt3OcrWCxip8ERfMr37g93VamdSktgrP1icrgSLwC7SRCOr+c0qPmJbffuXQX+GZ6pBtT9zP/Bv8K14HX36GD65eQwJSL0gvsFlfRfzGqg9/ObqdhwD2nfaSuGtkX/44XFE8yHP+b7fgob6Pi5LeCS8xs76H8nG+k1bpNcFkyG8zMzTHuB78SYxAIAFqggDG8ZGcRzdYDqf3ejvaOTTuaX0burd9HH6/fRsexiZXjihZVvtSKOwWBoTPyV/44dBRjZnvxnIBu749govWTpNLpw0WQakRSj/bJj2H0kl37xr3epsLRaO9Ibb27bRx+4ghbNGMNixkc7SlRWVUfrdhyj99fspl2Hc6iipoGvCTsl2i8whuvx8fJU1zF9XCrdfsViSk+OIW8+poeaukZat/kgvf/ZVtq17wS1t3dQB4uGLrz4yywtxhi+34vFgT+fe/qIeLr4vNl0/tLpFBsdrv3m2WSeLKQNWw/R9j3H6UhmPtXy9+O6DP01PDGa7rzpPLr6koXav3AvXCIUwOeFTfTo/lrawupfEAC2qNetjKNRIf2bEQXuOutLW+ivh+vUSh3iEPCwcRR4EPlj65Ktn0n8QLyLDQAYxnhY6gFnksWGwWvZjfTeqUb1cDT42jrwNL8B5xWMlbYQH/rllFD1MIeAsBVXCYXMug56JrOOPspvoiK46XB/YpW5L+DqkaktwtdT7S7cy4YXVp4dBR5Oe6va6PFj9fQxqhu3dcdKOAoYjlilR7/Cze/m9ED6FhtEcJGzBtzWfn+olv54sFa3wd1X4PJ1DQvrF+dHakfMg7bbXtFGT2fWK5GFHUDcG309V0OfQ2TNi/Glb48NoXP4Xugr759qou/uqFK7f5a4jfvnd9PDVR9B8L5wol6NbYg1W+enx/hz7mfxD3cga+BWOcmi5MWsenojp4lKm/k7+R6yRxxYAu2LXbufs4D5zthgFhH655ji5k56O7eRnmcRA/cne9rEGBiBXiysw3w8aWqkD/14Qigtiet7fzuCNjZk9x8/RS+8u5E+33SAauub1Yo7hIOt4DphUMNAj48Jo/MWTKLbLl1IY9MTtN/oG59vOkhXfPef1IFVNjOgq395/2V0++WLKCYiRAmEt77YSa99uo0yc4upuaWdWtu73X4s4ePtpV6/+c4VdMOFcyk8xPIOJFbw1/H5vfbeejp+soCamluprc3yfWgJtCXckgL8fSk+NpwuWjGbrmPREh0RSq1t7fT52t30zkeb+bsKqaGxWfUjRInxdYWHBdHdN59P9916gXbEvfB8hNH+3q+gmbCiAkNCEAA/j9TKe3Kgl24juq9ghf6N3G7RCkMNIsGB9pkCHwejGX68BU2dtKGsVbkeTI7wVkaIJT9orIrCpePne2vUtrrysebPweqtg0/zG3D9MLTgIvF1SbPyJ4Z4Q2yDLeBz8EB/Xkcs0uhQb+WKkMR9by9YeX+T+xIr31i1xQ4RYkwc1U7c7Cpo+AQba0dq2tSuAlxD+jpUMTY+YwMXYxBuRthV4NN2KPg4nD8MvrKWLtrJhvWnBc00nEVDcqCnRSMNri2f8e/uq+6/uRqru1emBii3PUsgDgfG4h9YyOCeqmKRgJV2R4E2w/0Gf/wd5W1UyZ8/mQWiPcLZwLFaNiC4vyHALAEhmsH33W9ZoP2HrxGLBVggsHV+whrrn2dFULy/l9WxivnmQ55nfrGvhj7O53uI5wC+ZKfNNRBiEAqITdPTorA9N/H8Cbfll0828ti0r03Mgc/B5xXymIf4hAidEemrDFtXkVNYTv9+42v63TMf0tb9J6miukEZodaMaEtgB6KFP6O6tpGOYLV793Gqb2yhiaOSlOHdF47nFNP/Pt6qVsrNvdCuC6aNUrsB2w9k06+efJ9eZ5GQXVCuXKc6Ojv597QPtACuA7/70C3nqx0FGO2mQFsdOJJLjz//Ef3v7a8pN7+MGptalOtRX8Fnoz9qa5vo6Il82rT9iHJdevyFT+jdjzdTFrdHLb/H73QHRWv/sAfYXZgwJpUWzB6nHXEvXCYUUMYfD/KNPLkjo4wgYBSM5QfjxHBUbXX+ti8eiq/nNNJfDtfRCX4IO3IF1xwwPPC9+SwY0oK8aGKEr6orYo7MunZ6jc/xCzZ8nSFiLAFjtZatroNsIMJvNyPYW923esG59pdQgAH81yN19NTxOtrHgg/GnbOaCvMVrutEfbsybiaG+SgxZQ/Y6fiADbM/8xjcWdmufK2dDfoF7VPKggGrsOexOLfklw1R9AUbtjBU+wuIsLtGBVvcXUTcxt+O1KrxBRcZGHjOAsIccQDHWSRigWsq37dIYmAPeoUCXBbhNreuuJnK+LvtuTx065wYX7p/TIjV2C8sYrzAguTvfB8drG5X843zWrTb3WcS3zs/nBCq/m4N3OPvnmqkPx6qow2IHeP2c9Z8yF+lROiRGrRDFy1gwdrfYgFG5dc7jtIfX/iU3v5yJ+WXVFFLq/m4FnuA0Q7BUFFdrwTDoROFNGFkIkWGBWm/YTsn8kro9c+2a+/MA6Gw/3g+PffOetq6L4uq6xqV4W8rU8em0l1XL6GIkEC1wm8MVvDXbtpPT7Dhvpnbs7qm3iECwRiIn+aWNiqrqKUjfF1ZOUVKIOj5LoiNKRPSaNHcCdoR98L51pgZ4A8d6etBMf4uOwXBDTnIEzOMGGcDewyBec9k1qssXI50NdIDUvWNYuMYvtiWiGJjAfdJf4gYc8AofuJYvTJusNrtbsBAfHR/DT3HfXmstqNfivfhOw+wMfVMZgO9nN1gt1vGhtJW5QOOndXmfhAJPYFIQXYnayIHgqKUx0B/gnWCcaHmXbvgow+B/19tVRmGvLPBtFTU1KFch368u1p9rzOBG+TWsr4ZxHjOXpkSSH5W+hii69/H6uhJvs+xY9Yfi3eI+0G8jJ7dGTwTEIeAPt9R3qJEjLPBMwFxIbjHsWPVn1MfXFTe/WoX/eG5j+mLzQeVa05fdhCsARemgtJq+njdPnrwsVdo58EcJSKcycfr9tKL722gvUdzqbHZfhf0CxZPUQHO5kTC6vV76dn/fqFiEeobmrSfOI8Obsuyihq1g6AXtdOi/d0dcYmVju1huFM8yzdgfz+ABPcGq3XOXBk0sLuyld7Ja6Qjte0Od/OwBqYzrJRi58Raho0oFgnjwnwowcVpYxEX8e/j9SrLUl/9/R0JHuZ/OVyrdl3g8w03nv4Cbk1ImwsXCLjx2AoMzffY6IQrBVy9+hvsZF06PMDijhYoYeMYbmj9BU4H2XCQstQU2ImGcH0nD/7z3dl++gt8V1VrJ31a2O2eg10GZwGBAIPd3suD3RToPUyLh9IOmgD39vMn6lnwdsc/9df9jYxDGH/WwCLJuzxXw2DHQlJ/LAQYwFcVcJs8xSLqzdyGfrlPYbS/v2YPPfn6Wtq2/6RyCeoPYKzWNTbT+p3H6Md/e5MOZOY7ZeXdwLGcErVL0tqHGAFfHy86b8FECvQ3Hdu2ZedRFY+w/3AOtbS6r5s7As2dkYrZUfS7UMAW8ZPH61QdhY1lLSrtmiAYgLHn7MkYfuZfFjV3u73p/C5kHjknzo9uTg+i+0YH092jgunWkUF0eUqACvaF4a83BSomhIuS/SmMjSFr/wJb8mP4s6eG2xbg7cv/DuecEeJFk1mQTIv0UcIEOfZRQ8GeSQkxHJ+xgYQMQu7Cm2wsvpzVQIVsMOodNoZUjTMjfenCpAC6dkSgykh1fqK/yr4Ctxe9rQNDDu3yIhtaWOW2hbXFLfyy7oIClNHH54XMRdfx+d7DYxAB1XfyOLwmNYCWx/upFLfdfav9IwtgqM6I8qXRPLasLehW8vnBN7+/gHBBGlX4rxsDo/El7m+4oEC82DJT4NPgpz+R76W5Mb7qhXsjgQWJNbHUE3wn+gzB8n87Uqd2GtwR1CyYxX08PND8/V7Hz1/EaEFowyC251IwllAjAXUJ4J44gv9M4u/ETqi5dsUuAuYjuBxa4+uSFvovixikf26z4dmA+wXxJLivr+J5Gvf4hSya0CZRqDGicw7EN8It60+H6pTbmLP7+6uth+mF9zbQbjZuEbDc38Bw37w3k372j3cot6jCaWIBuyZ92SXBDsK0samUlhRtMk0qXH8+Xr2TdrPYslUkBAf504jhsTSRPx8uQUiHGh8XQX6+jktg0RMfb2/yYdHjrvRr1iM8UJG94f1TzZTX0G73SokweIFtsO68eJrHBpENz26b2F7eSo8eqKVPC5osjkE8SMJ9urfu58f6qgJccAXCQw7zG4Jn4TeLyrgwHFB4qKCxU/lyH6lto5Msik1tkePff70yTuXo1xO0jRTCTx2vp1/vr+llDONfB3h1CwLEPKB4GgwfpPZDnAcCkGFw4fewUgibFOdbwg8+ZFDZVdlKR2vaqV3nNIBsIH+eEa5ShFo7c2dmPcLZ4qF92+YKtTukx/UEPtpjtJzpMKrjuT+RiQr9gc+D609NGwLO0S5tSkwWcjvpcUuL8/dUhvv/TQrVZYAg1eT/7auh17IbrO6goR+R039lQoBKXYtdJkNgOU7NUHwN8SQVPFaKWDRh7B3l9kGMiykjH//+t9PC6TtjQ6yuFr2d16hqikBgGwNRj37Ad1oC3wGjDUX+LIGHP/rkIh4PEETGfJTfTI/sq1Z58vUYbGgm7MYtZpE/mQUC/h7MB/20JfZWbjssVhU3dyi/fAREI3BZz84Ubt0Evp6n50bRuQl+uvzsgcp6tLNKubX0FdzbyByENsPiQBfflbVtqKvQpcb132ZGqHSfpsAtj519xMfsrWrVLbQB+hH1MFAvJpnnG2QKwrnw/7vnRv4PRB2yEdXwuUDUYbcim68ZgloFMU8KU5mYLIHx+/uDtWrnTY+gxiIAgvPh0oQ4kgR/pAbunrMxa+AjECOGxQ6MIdSgwS6pHtdO3Nb3jAqhX08NU/egMzh8spB+/8zH9OmG/Wp1Xw+4Z5DydPSIeEqJj1TxBf5s0MK0a2ppV25L2QVldKq40qbdCRjf8P3/xT2XqM805dpjik/W76NLHviH9s55YBX+tw9eSfdft/ysFKsAbj8vvLqaXn5zLRUWV2hHLYNA6Cnj02j29NEsEuIoNCRACQN8D3Z5mptbVc0FxB/s2Huc8rhNHeUOFhkeTHfdfD7de8sq7Yh70W9CYQ+LhGfY2EHgHraOBcEcny6PVUWi7IwVtMq/jtXT3w7XUo6FBzWMPazIPzg2mIVCEKUHW1+BwsMRPvxYfcJnY/cMxgcMWQRL4+cQBtPYYFrDQoGfZ7omXxXwyg/KH+6uVq5Z+Dfw753Ehg9WR+GalBLopTKHxPKDEQ8xpJc098m44Rv5YYmAarjObCxrVauj8FO2Bh64j00Po2+NDLaaZ9yZQgE7QQ/trKbns+p17UBBPK1I8Ofv8VcGjqUsK/g4FBjDjtMrbMhDNJgyknsCg3RqpC8bjRHKQLHG54XNSvihUJ4l0MY3pHWnMsW4sSYsEVAHwxeGO/ozi8XgoZo22sPXcJj/hCjBJ6A91p0Xp3aYLH8iKfceiCe29XpRzMdRPBP+9JaAwH5oXIgKWLcG/6o6LxjAPcFz4/5tlSqwWk8cE/49dvsu4bE1M9qHRrLIQppiU6BdkGYT9+onqkZJixL+1kB3IIXmfxZEKeNZj0jsq1DAwsDoEC+1S4h2wjyFJAPYQYDdgoB4QyzRNSy2zIkzBKn/ksUqMoRhwcMauLJwnluwC7cwxpcmhPO8E+SpqhybG5cqwJObEe7GSLOKcZnfyOKbj6NfsAthDtxyfz+KuIk6XXMT2mVZnC9dmRqoFppGcNsofWAC3OOoYL+dxy1EyJfcBnp2zRBg/jL3NYRnt/hwHNg9+P2zH9NL72+kojLrxWhhwIYHB9DSOeNp9qQ0Gjk8lmIjQyk02J98vb2UEESgMgJqUYjteE4Jbdl3gnYezFb1CfQQxQbs3350PV28ZKpZ9x5jHCEUUO8B4iQ5PoLiosIoOMBXVURGsHNdQzOVV9crIfPUL26h0alxvbIdHTiSQ396/B2VgchagDSep6iHcPmF8+jcxVNpwugUiuDrNpVBCQIkv7CchcIJ+mT1Dtq+J1NVb9YD6i50V8jWDvQglfvurpvOo6suXqAdcS/6RShgxelffMO/wzekxCQI1njrnGhaleivJn5HA4Pg4V1V9MIJy/6myDd/dWoQ/WlGuEphag/4LqyewfjYicDE8ja1qvYjNoghQGzJG45VL7g5YBcEW/azo3xoVrQfjQv15oet/m10Y9AEMALfyGlUft96AjThcvXw+BAlUCzhLKEAwbWN2/PKdeVUxvOJtQksiY1iGA+3pAepOhZ6Wwq2Fip0P85zF+IIsBNjiUg2mG7PCFI5663xh4O1qr3R9uaAIYIKtk/NiVI7RvaAa4BBtJf7YSePw218HcdZwMKN7n8Lo+weNwaw4nv512VqfFoCqT7/PDOClvL32gsKqWE3Abs81oBYvoDH1J0ZwWpM6bXpYC/vq2qll7Ia6b28Rqs7JQB6GX0EFza4u1ijL0IBCRCWcRtCnMBNDmMbiwLG4KkOY9zcLgeu87GDNar2BAx3a+Cy4FIEwXr58EAaHYpUq/aNHYgZzA2mXMt6AoH+I56rUVXdmo5BITk8Mx7geXUez4t6Tw23NPob8ZKwTxB/Yg3Ut/jVlDDqSypnU6zZdoR++o+3aO/RPKsr1aiDMCIpmm5k4/b8hZNoYkYSeVkpNobdBMQdfPj1Xvpo3V7KzC3RfmKZhdNH05M//xaNSok1m360J30RCrguCJ65U0bS+JGJlJoQRdERIRSkhIIndfIDq6GphYVOt1BYPmcCX/fZ5wST9skXP6H/vrWWikqqtKPmQQ2Ei1bMogfuuIiSE6N1Ld4hterWncfohddW0+YdR9R3WmNUeiKdM28ihYX23uGLjAim6ZNGqt9xR5yeHhXC4NkT9fRGbqPKniII1kCAG3z+nVFKHw9+BEFipd8Scf5e9OjUMOXDbS94SGMFaiI/0JGLG25Bo9jggytThI+n7ocZgGiC8YNVsmtHBNFVbPhOCPNWK3x6t4RNATsCK68j+TqxSruFxYy1KQ8VauHnCzcYS+BZ54z0qI38sHh0X40SC9bOFdd2KRs2cAuCwLKlpTD80rldsKoPlwlci6Xndzv/DDsPGL+W0shilfW/JxvU+VsygOD3jZgY+FXbC64BQncMjxWMQaxA43UxnyMKr/UFtAViiv55tN6q6wYqHKNGijXXI3NgtfcR7nMsOlnQ9woYjUvj/egHE0LV95qxlU2C34V7EtxXarhDT9Z3Wt2xwqXDPfC8RD81Vqzdj7gGPelRjZnC4xci/Y5RQTQvxk8JU3NCAKdgaSECu0tPaMkJrDSnEgnIjvXguBAVm5XI92hf5hz8U2s7Y2hyZKSD+x/iKCwBl8K53B5w+0M1b1tODfcH4lYS+Jqwg4T0t1aGssoCpsYyjxNbxpYlkPXnzy99Rlv2ZlGzlRSoMJBhTN9//XK644rFlJrIgt/DugGPwN/h8ZFs8Mepz0AgcVWt9bkZuxtwaxqVGqtcmqyhNz2qMWHBAbRk9li65dKFdONF82nFvAk0Ni2BkuMi1E5JdHgwxUSGUBK/H5Uap9oAuyrGVFbX06vvrKODOgQXxNUYFlk/efBqSkuN1z2uUWsiJjpMCSfUTkDdBGvg9793z6V0/rIZyr1p1rRR37wQCxHJgshdsT66+gACjz7Mb6K3WCToWQUSBIAHXF8eRJYo5XFYp+MBDdeeaTpcSPSAmyyWDaQrU7BqHqYMbFsvD4HSWAX+Pj+sF8X66lq5tAUE92FFFCuU1shtMO333h/AsM6qa6dPClusPtDRQnAzQoXf8VZ2P8yBvoPLEtwkrLUNdjogJrD7YAmsl1Sz8WPNAEVWGD1uTHpAW0A0wZf+ofEhtFiHC5A1IA6Km+Hjb30sDA9C3Iz9Y3ZjaYvKUGYtbSdWueGWc2Nat6uWvSCGBTES2LnTc9ZY/d5T2W7SPcsRILj7bha7EI4QeH25+7H4+WF+s3KNtDIE1ffEsiGNOAfsllkSwI4ErkabuM/LrcwzOD8U6MQqPxYv7AG25kQW0tdzf48Jtb5QgRS5eypb+TniuM7ecySPth/MphodBieM5usvmKsM6pAgf+2oflISIuna8+fQ1efN0lUvAQXN3vh8uxIMznJAQXpTZC96+NZVLBLmqQBluB/ZwzE23ItLq1SaUmuEBAXQinOm2bWSHxToRzMmZ9CiOeO1I5Y5nlVI2bklbp19yRxOvesP1LTTf0428k0vIkHQTwCrdKz0OIN6tjStPcwhUrrTlWkHhgBobwTkwtXFGlg9reaHpDUjwxmg/sTnLBL0uAjAL34lG/mzdMY9mAMuEhcm+9N0BJ9bGRPYlYG7kiUQTNmio2YCQtDtLeTWH8AXHqJND8MDu3dm7AHDDAHVegyzMBYji+P86dz4vgkhCHlkhUJQNXZ2rAFXGiyK1eoQTbaCYPYb0wN1n4s1Ktj4XlfSrCp0WyOYxeU5cb5056ggtZPYX6zl88NuFcS3JbB7BNcyZJHrC7jHEfNx2fBAXQkmNpXxHGTjjpA5YHu/99UuKq2o1Y6YB0G7syal0U0Xz+8VwGsLEAuIO1g4fZR2xDKIa0BBtqYWxxu58N1fNGMM3XvdMpo3ZWSfK0Nn8nlW1dRr78yD53xYaCCtXDJNO2I7ifGRNHPqKAoMsD7foPry4WN5VN9geyptV+O0Ox/ZXp7LrFMBU3oySAiCAWRk0TNZ2wMePF1WNtuxagIjCJlAhhLImoLgaGtAIMBtAkZ7fwND/JMCfUVzsMI4J9pHd9paS4wK9mah4KvEhyWwS7CrAlmYzI8xtF93SLFl4MaElJBwVXJHEACLoG9rwIUYNRFC2Oi0B9QqQNC3texQAFl4ViT4OWTlG+MGY2ieDvEM1pe2qKxTjn7cwYDFjhYC0B3BZjZyu4vUWT5RTMHpQV5068hgtePYX/CwUpWXy3UIGewmKFc/E3EatgIXpAXc13E6xBiqv9e2OaajK2sbaOv+LKqpsz6vDU+IokvYsIU7Tl+BW88lS6fp2lVAKlNUiUYQsaPB7sHNl8ynGeNG2L2L0JP8ogpdxjjcjmKjw2gkt4O9+Pp6UwL3xfDEaO2IZXJOlVKDzmxW7kTfe8UMW3gy+qq4VRWNEQS9YGUHbjXO2lHw58/Wk8YQWTqeOd5gMdh0sAF7GrEZeoC7iR7DzZHg65A5BW4e1kAfw8gba6G6ry1ghRlZpuACYgkYX6caOy0mbYBPtR7tgvoFb+c20tFaFMHSDroRSH2JVMDWiGAj01JOfWsgALua70drBjg+HwH2s6L67lZlAEHkC2L8dJ07gpPhzqMnC5deME6uTQ2kFDbY7Wu93qxnI1yP6yCK3mE3bnGsY9zf9ILUzUdq2q26tKFtkHUJGZgcAboYMTSzoqzPGdn1nSxkOljU9L2vt+8/qVKYWsvOg2BeZPg5d94E7UjfwI7EpIxkmj9V367Cxj2ZVFFV71D3I/j4X7JsGk0fl6piKBxBFYuZlhbrCxh+bOSnJscqd8W+EBwUQMmJUdo7y5TaWLHZXXCKUEDqwhezGvq1mqcwOEBecuwoOOqhaAwefjDUrIGH1Nunmuivh+voeG27Wt1104Vdh4EHJbI96QF2hi3FjxwBhMn+6nZdRfJitGJzEWygOoqMEG9CISlrwHhAwKo5EHuAMW7N9sR17q5qox/trlI1aJDy0p2GIHYU9BSZSw1EvQr7+2FrRZuuPPdwnRvLfRTm47jZA3EdCLTXm+EGWb7gWuYoEFg9N8ZHnYcjwJjaX41ztN6eKNSGTELO2t01x67KFl0uXEjkgIQO1nb5bCGSPwv1PqyBBQGkl9aTptcaKG6mp75BVHgQTR4znGIjHRf0mhwfSYtnjjYZFGzMidxSKiqvUTUFHEVUWBCdM3MMJcZazxSnl+aWNl3niHSrIcH2J4ow4OfjrftzkC3JmdWunYVThMKhmnbaUtZqNfe4IBiDlTNH56fuCVwgUJVXz7MP4/efR+voho3lyv8YPrN4wPazfawb2FIw3mBQIoMHigoh9SECAw0vrHrC7QDHkWAAwbeIOcC/wb9FLnY9KNHUx5UYW8H5wRDTA3YS0NeOBNlekMXK2lXDvS2b29kccPHCyqUe49kQk3HVunL6z8kGOlnXoeIzHGCf9AmMNSQF0JNOF+l79QpQU+ysaGHDTHtjgeHcP0jb6WjQVwh21cOBmjaTRRbtBW5PKBjmqDsNdVhQj0KP2xHcevTELDma/dUdutoQ9+IUBwX7G8A9aS2bm4FCnkMbdQguS2B1fs/RPJX1yBqJsRFq5d2RhIcE0MSMZAoL7l3c0BgENR/OKqRqHS5SekHq1eS4SIe4HBmASOjqsi4U8PjSk+7VGsP4ZkFlZT20tfWtGrWrcIpQeCuv0ebUb4IAkBbVGfUTDCAYEFlDQr31GZEQBTBOb9hYQVevL6dnM7HD0KYC2bDC7epRjvODoIEfN4yATwqa6R9H6+n7O6vppk3ldNGaUlryRQkt+KyYFn1eTMu/LKHzvypTx6/l67lzSyX9dE8N/eNIHb2NtLFs6LgrcOk4ym2vB6S3RPAsdj4c9UI2LmTDspa2F31irUDU+HDrVYoNoOAeMk19d0cVrVhdoirp7qtsVT7cWNG0FvDpDCBg4JanZ3cHRbUQdGoPuLTjtfpcPOJZGCJ9sKNBWmK9dSwg5BwZu4P6E/a2nSmO1XUX3bMGxMkYFttIwdrfIEAeiwLWCPXxUPe5qXvV3hcEEuIx9AgzLLL0ta+bmtsop6CcWtmAtEZcVCiNS4vX3jkGBPSGh7JYGJWkHbHMyfxSqm1wnFCYxsIHOyWOBMXTvLys369w9WqxkopWD8iu1Nisr+K1v7+vQ0VRf+HwM8bEjqqjyHUuCLYyPQrBp9obJwEfVD1p8IxB0bSHd1XTrE9K6Pr1FfTSiQbKrm9XD16s0PXniMfjCQHXEC1/OlSnjP+x7xewmClTRalQUXhtcYtyM4DRit0D7CLApxwJBnAcmTsQGPzciXp6ZH8N3butkn6+13pFUFfR0oksO9YfqAA7JAiARXErR76wq2QtxgVzoDUf8LnRvireQY9B0hNU/P79wVqa82mJEnt/Y9FwuBb+3BiD3d/dH2DFN6denwsCjHd7XI9wKeUsgCHK9VxXpG/3To2jgdsPsjbpAf3jyNid9GDssGpvHABEl57zw4LKmFDHiy49IEBejwEOkYx6OKbuU3tfSBuLKuN6drWxGNrHDQXKKYRIsG6swo8+MjRQuQo5mtCgAFWXQA95RZXUoMNNSi+IucD3O5LgQH9d8Q7t7Z1UXmk905Q1mppbqaKyTntnmcAAFgpOXAh1Fg4/44NsgBTyw9QVq1zCwAb219Rwx66gmQLl91F8yt7gShjoXxY10f3bK2nqh0V08dpSVeEUK/p9W1/SB1bWt7KR/61NlTTlw2J69ECNEjGDXZtDjMGdSg/v8wP/PhY+17FwcuTr9ZxGqy6V6AZrO6pj2Qibiwwrdhq22GXYUdlGv2BROOvjYlr2ZTH9hsfBHj7WrGM1tq8ghie7Qd9qXHKAp4rLsBVke4KrnJ6sT7Drwnw8HebL3xOkCI311/e5uDdrWCRac+3RS1IAhILjrqmkuUtXbBHiPBAo3N808Nyq170TGcEwB1+3ge9NB76waKJHTCGOQk/sjCVOFpTp8qcPDvRTFYqRStTRBPr7Ukq8vmBcFGlraHJMNkB8b3REsMOCmA3ExoRTgL/1hAYw8LOyi/pc16C6toGycoq1d5ZJiI0kf7/+d+frKw6fVbeUt/LNo70RBBuA8Y6VLEsVRR0BVjevSAmgJX3ItY7HA16NPMevK2mlH+yqprmfFtOKL0vpqeP1auXZ0eCZdLyunR7i71r1VRl9cKqR2tmI6tujamAAwwuZqPQ+mOH7a+gjR7+sgd+BmLTG9WmBtKIPwaKGa0SboNjXY4dqaekXJbSYX79mY+dAdZvThCt2FPQEMmOFH24sXnbc09AHyB6lQyeodKiOSJFpCnwqVpj1ukRWt512yDMQO1eYq3QsbuumuKlD1z2Etox15FaGTspYyNgisjA2nPHSgy2/a47islrq0BHcisJqetKY2oO/r7fuAOnqukZqcVDWHlRZ1uvbbwvJCVEUHGy9rgbmz9r6Rtq47bB2xHYgEo5nFVBZRbV2xDIjUuKUQBpoOHxmxcPJUaspwtDigiR/5XfqbGCzYDX31vQgmt6H6q0Akw12z7CSWNnSqSrI/mRPNa1cXUr3bKtUQf2OuBvw+Z8XNtFtm+HyVK8yq/TDwrHbgGsdKKmWMSbUILMCKj3fmRFM5yX49TlYFTsMiBeoZ4Gyt7JVxTFcvLZMxaF8lN+k3LYcCXYUcnSI4RHBXnZXEcfwRp/rGebYHURqZWcBo13vdaAYYV9XmgFW9R2tfar43PTMG0gj7ciMYXrB+enZTXAHWML2eW6vrKnXlQUHRcgCdayS2wPqCQQF6DNeUTkaNRUcQURoIHk7QdxPGpfKIiRUe2eZ6poGeuvDTVZT05oDxd3WbNivWzBOGDOcQkIc62rVHzi8l7Di6YjcwsLQAg/iVUkBTnc7MgDDAsLkhxNDVWVPR4BRDwMBbifwpX81u4Fu21JBd/Jre7n927XIV//+qUYlQFDMC++HGnA/seLx4zbAnNSTghc7ZzOifOjhCaF0aUqArtoKeoAhCEMeMSmIQXlge6UKxv+I/+6IuRnDDzEgRTqEQlqQt91CAS2p140K84czpw5cgt4FdrSxI+5QZCBDsKkjwT2kZwh0X2//CwUEMetxNXMHfLhv+rr7jbSoerLgoIaCo110DOCzg3RUFgYQNXDZQQakvuLv60OeTnClSkuJ616513FNCGbefSCLXnt3vXZEP7n5ZfTZmt2071C2dsQy40YPp+SE6D5XnnYFDp8JChpQmdKxk5sw+FmZ4K/ydjvKWNID3BXOTwyg304LpxvTg1Rue0eBFV4EmKIAE7IJwV8eQag4ZgvYncNOwp8P16vCWwNkUd3h4FnqyGwyzgSBhyE6ffKRKnVWpC/9fFIYPTguVHfBOz3A4ILhhQJwSDDxo13VKhtWns7YAnPAjxzB8Xps+PRgxCfY95jBzgxiwvXYjfgKval97QF9qtd9qoUbptMBOwpY1efh4VAwHjA3WQPucC7YUFC7YgNFKPh79d0tDIaqHlnpTKGALDwoPqYXDG1HpPhUQsEJGYC82RBfOHs8pQ6P1Y6YB3NMVVU9/fs/n9Irb6/TvVuSlVNEL762mj74bKvuAmrnL5tB0VGhDhf//YHDe6lSbR0OjBtdcA9w29w5Kqhf3I6MQX73uVG+9LOJofSXGREq0NneIGdTYD7FDsOBmnb69/F6enBHJRUpv2t998j2ijb6T1ajShJgj0sfAjxRMApVilHBdFGsn9pBQdpFpD+ED7kjBZIz6WsFzf4C54l21wsMwglhPiwUQuhvs8Lp8uEBNv17a2DUwEBE4cDXchrpOzuqVPC7vWA8W0v/aiAtGDsK9t3XeKB6DDutx4ur23jR/u4s9D7WYGQ7YqSq7FoOfpZCUOm5j/C1DrAFbab7KwfGfY7FgL4+K/Q2sQcb1M5Kq4liaxAiekE6UEcMS29vT133tj3MnTmWpkxIU1mGrAG3o4KiCnrypU/ooV88R29/tJmOZeWr4miG5zR2Uiqr6mj7nuP0+PMf0y//+Ap9+Pk2qqyuVz+3xggWLUsXTKLQEOv1KtwRh4+8geIeILgHmGcXsXEO49WRBrotwFBD/YZrRgTSH6aF0d/ZWLuEjTVH5hBHHEN+Ywe9f6qZHtpZSaUt1n2vURgJK8EbSlt0+zzDuED8xffY6Hx+fhS9siiKnpkbSf+YFUF/mdn9+ju/Hp8dQU/PjaD/LoymNxdH0xv8+jv/zs3pzgmY6yswbpzpWuJIYBcjq5Et4NqQHeiCRH96ZGo4/YvH4Le4L1BEzFFgakba1q+KW1TtDGRIsud5j6w0yEZkDRjMOH/7hehp8tfp/gIR7czYONy/rbrvwe7x2lfwCY5efcT8oOcT4V7mit1L9LeLHgM2M0LVB+nbyertXhiqeoKe7QGGsp46DgYgLBwyLJ13u1J4aCCtWjaDJo5N1XUPYYckv7CcVq/fy0LgI/rpb1+m+374JN390ON0zw8ep7sffpy+87On6dG/vEb/fWutEgx6RQLcq265drkSC14ucOdzBMNYMTm0u0JePaX8YwXBGrh/g9mq+t/CKDqPDSS1guZisO0N9yCkOkU+771sTG0rb1V1B+CX3debBdeMFdbbM4Lp0SmhFmMykNf7D4dqdcc3IDf/NSMCVLXSFDbQULkUIkhPq8KNBIGja4ua6doN5dpR8zw8PlStgCMg1xww3FCsDtmgrHFxcgD9xEK8CNIVruZzu2RtmXbEMjekBdKCGD+HB4PqAfEJi2L9VTEoe8CUzBpRFVnLqu+kQzVtKh3u3qo2lR7WERM2An+Xx/nTs/MiKY770JY7bzOfC+qJ4L6wRBKPwY+XxdDkcPsSBmBMvpPbSLduqaRmK25nESzqfzghlH40QV/2FltBIcMb+L5ASkxrvMACHVnVzNWOwH393Z1VVsUWxOYny2OVQeooLviqlL4ubbEa+7GK5+PH50Q69Lv1sKuija7hdkZ9GktgvCJL3l2jXbOwgdgEzFVp3D59CaL/yd/eoqff/JrqGpu1I6YZMyKevvet8+j2yxdpRxwH3G2+3HKILn3gH9oRy7zxl/vp0mXTzO5wfLJ+H12i47NWLZxMf3z4GnVtzqCe2/S9T7bSS69/pVyF7AGCH0IDdoG9pvLlF86jH9x3BcXHRiiRNRBxuFCIeSOfKloc8zATBjdIOXh1aiA9wQ8k2FTu5ruHVTWkE4RoONXYQZl1HXSwupUOVLcrH+2+ZDZBGthn5kawQApQ7WAMDJI/HKylx4/WqVSUlsBD67Lh/nTHqGCaE+VLIT4eNhl+BuAfvLGslc79skQ7Yp7+FgpoAhimCz/Tl6/6zzMi6LaMILvdXuzntHq4OMqbC2Yp0sKeZMMJhiXGItzQUGgKQhbZsOwF4+7/JoXR97kfISj18llhM92+uUJVprXE4lg/eoaFCHbr7AGXtr6khS5icWgtPgX+4j8YH0K/mhKmHXEcaGEkE7h2Q4WuGgTvLolRmaxwTqZwpVD41qYKeo+/39pi3pI4P/rj9HCawfNJf4LxfT6LGcR2WQLLH5fynPfygijyccEqLew9TNt9vc3/8Pwn9JcXP1NpRy2RlhRN37lxBX37+uXaEcfR3NrGxv1+uvbhJ7Uj5kEg7pt/vZ8uWDTZ7PPaXYQCKCqpojc/3EhvvL+BCosrtaP9A0QBYiV++MCVNDYjWWWXGqg4/A5DwZu+3jzC4Ad2SUaIF317TDAFYdXbzUQCwIMAq6KIW7gxLYgeGBvMxmwYPTo1TBm1V7HIwcPcHteKchbTz55ooJo208ZWFj8oUUHZmkjAVyNzDlZTl8d3p5d1v5bsO5hiQ709TIoqU6BqK2xLhL3078txIgHwR1KUrwfNZoMNovq+0cGqr3/FY/ARNopvTg+k6ZEoUmj7l0IYvpDVQHmN7coo1wPEMRaCKlqtZz0Zpe4NXIF94IriAzCerZ9ca2eXMn5xTY4Gn1nbrs+1CaI9nAeCj85x2t9gl9HCJuY3IP0yYqn6G4x1PfcPAoAxFltcco93z7uO6OGosCDy1CF0EPTsqEJnxsDtCGlP9RAa5E++LBbc8XltioS4CLrkvDl01UULKCUpRjvqfHx9vencxVPp/tsvpLGjBrZIANZHqI0kBnjSAHXDEvoJTDEx/l50z+gQZeQMBDAv4iE7O9qXbmDR8L3xofRjFgv/NzmMHhwborI2xfrbFpyF2IMTdaYLIGH3Iq/B+oMaK8F3jwpWK39uaps4BLQrQkb0FoGCEIOxM9iAEJwS4aMCnr/D4+5HE8LoZ5PC6Ac8Hq9kIYHVZ71CBaMOLh7rS1p170zALQ/uT3qadmSwl640sebAv0zUKhNbu69wC8F1To+AsRVlNDd26ArgjGRDF6Ktr2kzncVwuMrocH/ALpaegnqOBhW8sdiopwghFgOw4zuQSYgO0+W3Xt/UQlW1Ddo7x9Lc0kbF5bXaO8ugkrK/38B4ZhsYnhhNE8amULiTCtb1BO5YcTHhSpjce+sFNHvaaKdU0+5vHG7SZ4R484PKPSdJwT3Ag+CKFH+6fkSgQ4L+XEEoP9CmscGGa8AK708nhardkXPi/HRnb2pgo2tHRZvKSGMMAp9L2di1BIwRpNO8ONnfIatbtoAzdqzTonVg4IwM0eeGgfbDyvdgBkb4uDBvuoxFw0PjQ1TmLvx5Mb9HNiu9rClpUTEgeoAxnq/TOBvJzwJbXJqMwdQAP/+EAE9dD6oy7u8CFjGOBkZzjg7RDtL6KI6cTQbOT0efIOj9WG3/10TCnIYifX46OhzZt3J0Zt9yV9KSY3RlHGpiY768ul796WiwU5FXZD0uDSTGRgyoysLwrM/MLqTNO45QYYnzXI/gZhQRFkwL5oynO25cSffecgFNm5jOc5j7zgW24HChMCncxy2CUgX3BEY0ApfvHxOiBMNgANeBtKPfHRtCP2Vj7aLkALWFrgf4mpsy0mCc4EFoCTzvsYLsyOxMemnv6ur3NMgwcMaF6lvNOlHfYdWHfjABFx/sNNw9OpgFQxhdn9a9u6CH/VVtynVHD9WtnaqQmzVwaw9nA1/P6rU19D5TsNPhjFVwCBAYzXpAyuH+j4vRz5hQbwri87PWmnDjQgzMKRcY4jhHPW1YwXPkEZ394q4kx0VQcICf1SBXZD0qr6qj/JIq7YjjQNDv8VzrcWkgNSGKggP9tXfuDzIZvffJFvp49U4qr9C3a2IL2F1BNqNz5k+iG686h+6/7UK69bpzKTkxSvuNwYHDZ7Q50T5OLaUvDFyQ4QdBct8dF0Kj7QxwdGdQWGpZvD89ODaYliX463I/KGruMOnGAfFgLR0jtufjbFg5diTw/0fKyP4EK7XTo/QJhe6MQe1q12Yogd3caZE+SohfYSHzTk8KmzpY9Ombs7GjgMB+a2BchrOAdcSjYDb3uZ7UyRAwR9lwdKTHGT4L13vcSnCtgSnh3hYzmbkaxFzBPdhae+KugUhYW9LSfaAfQZYsPW2IHcN9la3KHW6ggtV57Cr4elt/HpZW1tHRbPuy95gDFZbxuZk5+oRCRkoshYUEaO/cm4amFlq9fp+qnmxOJGDFP4D7YPrkDJoxJYNGpSdSYnwkRYQHU0hwgPoZxEAQi6Pw0CCKjQ5TlZ9Ro+GceRPp8gvm0e03rKCH77ucvnPnJTRn+mibalIMFBw+o40P86GEAC9dPobC0AE7Ccvi/ZRfNYp/DVYw6vGguyiJJxYdOyZwOzJViRQ2uDU7HEGe7uzm4GgMq+YIfrcG2nVHeStl6jTwBhvYTTiXxerYMOsGCHy99VTDxa9AKCDjlzVQ5M9RC0bzY/zUOLe2jV/V1qkSAMDtzFGUsJA/UNWmYl6sgaQGkzE++5hb35ng1pnJ86+e3dzC5k76orBF17U7kqkRvhTha70qNRZTjtd10I6K/hczjmTGhBEsGKwvgBSVVdOew7lqd8FRVNc10eGThVSpI/4hgA1mZChCQPNA4MDhHPpy/V7KKzCdUhvzSWCAHy2ZP4l+9MCV9NMHr6b7br1Q1Ty49tJFdNkFc1Ug9MUr59Blq+bSVRcvoBuvXEp33nQePXTvZfSbn9xMv/rhjXTz1ctowpgUlRFqsOJwoYAJfWmcL1nImigMITDXR/h6qGDfh8eHqB0FVwMDHHnE+5Le1BJwk0DsAAIHrWHuYYjj1uI3urh1axy5fOrmwO5Eu06L1Cc0t5S30aayFmpw0zZCALGzxiBA4Hd6sPUxqDfwto2VAlZxK3UYjqNDfBzidgQmhHurwm3W9CGEzLHaDlpf2mJVZOsBrnWHatpV0gE9YJEshe95VxWO1AvcJKN0BAFAbO+ubKUPTjU5dZwakxSIavL6XLiw2/NWXpNVN013Zt6UkRQcaP25iBiFvcfyqKSyTjvSN+C/n1dYQWu3HdGOWGZ0ahzFR4cNiBXzltY2WrtxPx3m9jKHn683zZyaodKXYicAOwqXszi4++bz6cffuYoe/dFN9NgvbqU/PXIb/fanN9P/ff9aevCui+mGK86hxfMm0vCkaPLxGbzioCcOFwrgoqQAVQDHvadLwdngwY7dpStTAuhnk0LVyqA7AHcfPPyRl7+8Bb722g8cjvUPDlEZUrQ3PYDgtpYKFOkac+pNZ00arATyoIJLjZ65BS41nxQ00VbuZ3drozo2bDD+NpW1UgGfp/POz3pLwT1Jj21bxQIBcQB6TLJRoTCYtTd9BIb3+Un+unaSkFYYhfmKHJANp4znho08T+yp0hdAiiJluJ/dHRRmTAvWt+OD3ZlnTjTQPm4D582TZ4OzOjfeT5dbJWK5vuL+/pxfzkiN2x/MmpiuDHBr2Y9QPTjrVBl9xgYw/t5XGptb6UBmPm3dn6UdscyiGaMpKjxYe+fenMwtoWNZBVRnJu0rdhOSE6NZFKxSMQaCZZwiFBbE+tKEMB/dOc+FwQfcRBCU9sCYYHp0argKSHQHML2+d6qZ7tteSbdtrqAnjtXR8dp2Va8AK5KOAM8rpGnU46KB9I+mAjWRZtFa9iQIhSwWCgiIHioE8JxygU63LvB1SSs9z4YO3EfcyZDYzCLhJ7ur6dr15fTbA7WqIi0qfztqXRRjGS4jeoJRsYKrJ1NdFZ+f3tz6GToNUb1czuIwys/T6i4b4nq2c1u+ntuoO5OTKVAJGoIDq+l6NqQgtlbxuNQTE+Jq4CK1PMFPZZOyBk+LqjL4T/dU05Hatn4T3Ij10pvqN6+xk35/sJb7vdVqxWl3JCjAlxayER4eEqgdMU9uYTm9u3oXFZVXa0fsA+5Lh04U0odf76X6Rus7Zv6+PrRk9jiKHiBC4dDRPFVszRxwE4JAmDtjjHZEsIRTZjUYPigEFM8TkeMeFcJAALEp8H/FitBfZkTQ98eHqvoD7gJWcvdUtn5T5fZ3/ICBYHibDQukI4U7SF8eNTDQsJKNisSlOowqVK01JaixmhbpY/3uaWSD5rFDtcrIHHiPSNuBpor396KbRwbpMiIgplCJ9tdsjG9lQwJuSI6wdfARMJrq2rvdcWyp2YDv31LWStk8BmHM//t4Pd22pYKe4j+z6zpUn/b1HPEZB2vaaX+19dVwJBbQY99Wtp7WJX4xnNNDHLejABD3My/alwJ17PSjNsQr2Y20pqjFrsrVEJQbSlvpf9kNurPqXDo8gNJZHA2UjH+XDw+kMUhlrqOPYHxv5Pa4fXOlivtB8HBfxifiYXDvWEqGABGD7HgIvrYGPucQj/O7tlTSmpJm5YbU1/vHAD4bi0jYeVZC3kGfa8wVy2eo1KPW4nDaOzpp//FT9NTra+1OlQqXo+KKWvpkwz76YvNB7ahl5k0dSaNHxCt3nYFAQVE51dSZj7tAQbSoiFBub+2AYBGnLX9g4pwW4atWloXBD56PMHixk/T7aeH03PwoWsETvbstsMGNAALBYD/AkMRK1P3bq+jq9eX0FguGytZOZSzYamPg1xvYQPussJleOWk9OAxthqrKpio7o6ptSpD1SRnnCUMYK36V/DDrSyYi/Es9Qa2uBuMMmaWidLo3wij5KL+JDZ0K+vvReuXXDAOSu0q3uEKzwGcd4wX/FuIAbik/43a/9OtytaKp97OQbhMGPP40gF2tX+yrocvXldHTx1Et2XCO2OnS3yf4XWiW1cUt9FpOo0pzaQ1kqtOz+4v7Qo9QSGbjLpjnfUfXSLl3TDAlBXjp6nOkfP3R7mr6uKBZtaOeVL64dfC7aDssIKxmoaGHAE8PtXOqt36KO5DEhjjSOOtNoYt7aBfPkxesKaXfHqhR7nJNfAPhfrA2Z+CnaP82blvs8hTzGIIQQ4YqS1yVEqA7NS5/rMpMdQ3P4T/hezKnoV3FWOg5v55gDGBTAuMAggO7KX86VEtLvyihB3dU2bYgwB+GrEIdnV1qBd/SfTxtXKoKatYTKIwsRa9+spX+88Emam1rt2l+wDlV1jbSa59uo2ffWqeEhzVQROymi+dTXGSodsT9qeZrbGo2L6RaW9upvLJG9Y1gHc9HGO3vDgUBcghA21zWarVwlDDwmRThoyrE/mZqmCo6Zsr4dQdeZePpy6LmXin18ECBAfkRGxZv5jRRSXOnSneqij3pNHjwAHyKjby/HKnT5aKBnOvfG2e6nkQofzeMnZ38cLb2GMDDbVdlG99rLWonAoaarSub+Izq1i7aUt5Kn3AbWAOZU+DrjFgkc+AzUcsArj/WQJachbF+ulYQ0R0hPp7q9XVJszKM9YCMPevYuH+dxwDEIvoV54+4B2tgNfFwTQd9ziLwX8fq6Gd7a+jxY/W0g/sHftxwecEKqB5j8XM2QCFcjOdFtBfEw+riZno1u4HFQ6faNUm2IUAWJQ5ezW6kP7Bxs5fHjzXwsX+bFamCxK19Bebyd/IarbpwYVygSrSj5wCIBBQ+y+S+M1Wk0JhyFjZwH0L181QW3djhtsSh2jYlEP7IbXe4Rt9OAp5z97NIuGZEkG5XK9RkgE+9tQDcaD9PVQVer5udrcA1FGO6u7CadtAKPEWocfBMZr3qB4wFpDJFbQZPEwMIAqGG51q4R36Q30x/PVzLhnwNvXgScQ/tdFuG+Wq5IXzd+EQIAD27swBzAebCf/M8fIz/XTt/P9zBMJdbC9qH8EFKZbgrPneinn7K5/lbHg8Ijsd9iTFxQ1qgcgu19kxobm2jk/lltG3/STqQeYpq6poohEWAparGSTHhKl6gqKxGO2KeuoZm/uws9efsSSPJV2dQ7YlTpfTH5z+hJ177imrM+O8bc87MMfTgjStUVWY9nMgrodc/2669M09GShydO2+CU+IePl69g45k5rMwMn2PQbhBJCTERVBGWoJ2VDDHMFajOqcI28Ek8dfDdeqBqif3tjCwiGGjdFViAF3DRsH0SG9l8ML1SN/jsv+BoXjH5gq1Am9p0OMh4DnstDK2YfjNivSlyeHeapUfhiyMeDx8sFJVy0+mLDZENrGBvYYf/jBAITr03FTYebmPjQxTfs24LV/LbaI/8IPqoA73EYAHIdvOyqCCsTaVxRuy3sSyEYj6b3i2YUUPAYBYEYcRj/syl42vk/yAxGoxVv2s1W8A940OViIH1XfNgXaAC9bcT4u1I+a5ODmAfjIxlObweesFRsqNmypUwLItvskYnxinsOvQ9ChYh0UN5P1HOwGsKDbxC+KprKVDuRjBCMGc1snXxT86q49T2ZhHwP4dGdYfeg9sr6T/sTEP8WEOwzliQxYr1lhZnRbhTeP5T6wGo6BfMI9NjNX6tk7lp72zok2J4MM1baqfrXUj7Lrz+f59dVE0j0F8o3nweX8/UqsEkrUnxvd5XPxicphTVtgxZm/lPv+6pEWXvzyuCv3szw2J1XOkZh4RxCKTOx73A7LnoubGHh6nuAewI6h3pwmfOyHMl9asjFWZ3Sy34Bne5/nnuzurlPujJcbyfPPJ8ljdq/62gjkG8Rz/x326hsWprUAHYoyilyEKIWy6BUP3vQn3t9o2uO50u+xgtOO+wf2D9sUizLvnxNBsC/c8CgH+7mAdPX28joW1+fvFFOr+4XPE+aF/kgK9+V4fphJF4L7B+ME54t6GCyB2ZCEscK7qPsc540R78McZ4XTXqGD1DDAFDNC124/QX1/+grbsPcHX2n3O+L7IsCC644rF9JM7LzJZYA2r/Y+xEf/MW1/rKqwGNyUIhOFs7GLF/7wFk2hCRlKvrER1jc20/9gp+uDrvfTphv2UU1CujGQ9pp+/rzd98Pj3aP7UDN1i5JP1++iSB/6hvTPPqoWT6Y8PX6NSrjqaH//mJVVordmCe5ahmvLyxVNo3sxxKmahZ+0EgxsY/sB7T0/3caHub5wqFAAehj/YVU1v5TUO6BRmgxFl2PNdgIkchpEl8FBE4C2ymczhh+28GD8azw+yUJ6A/fnJgHmz99TnXsCgfGQ/AkdbtSPWwTX58MVDNOChA2Mcx4axkACn+R3cQ/DQwcPRSjMqMPEk80Nyw/nx/Kf5lVzsaiD+4F9H63R9rgGcI/oDq9DoN3y+4SvwMXj4qRf/3fBAhHGEv+vFHYQCgAvEdRsqlO+0HsPRFGgftJlxO6E5utvJutGNXYkLkwLp9cWWK3IiS9UdW9nQLW5R36EHnBPGnxqD3K+qT/noN2OQ/0AfYpOshTtSr2aCu9GXK2JZVPqpsW0JBEVjp+yfPBat8czcSLUS7oxdRfQDXL5+uLta125bT2A4Qg/hT8OZ4d/j/sVYRRvq/TwYfnF+HvS2Zuhi7OjFXYQCwHW/nddEfzlcp1Kh2gsuH22AP2FgoR277x/ziyYQa/eNCaHfTwvTjpgG4vDR/TX035ON6lllD92LPzg/zNi4d7r72nCO+FRr9ziYH+PL93iMEuum2LDrOP3lP5/T6i2HqK397P6FYRobGUo/u/tiuufqJdrRsymvqqcf/+1Nemf1LlUwTA9wDfL38yY/Xx/yY2M+ISaMjV0/dXHYNaisaVDxDC2t7eplEC96+N13r6K7rjpHuURZi58w4A5C4bF/vU2vvbeeqqrrtSOm6RZb3irNqRcLAXWJ/J+el6qum8dGz+v39vb6JjVqd/ujKJsfhbPwiOP2T02OpVHpSTR5fKoSHnrbzl1xmuuRAWzHjgvzoYLGDrVtjIlJcD0wOn46MYx+x5P0XaNDVArTC5MC6Hx+rUz0V39HwNv1IwLVCsoPJ4TRnfznFfx7i+L8KYMNxAg/T2VsdE/A7s8buY20rgTBeLY9bGBAwAiFmMLKKlaa4fpgeOE4PlLvyIbw+OesSJrFBgb6wRwB/CBFjA8elMhupBecB4xF7Aycdc7a33EMP8M1da+S6z93A650PeoJVjBnRvnQ0doO9V16jeSe4J/gXNEO+Pd44e94YaTwH1aB/YKuXBrvp2InzIGV8I9ZsCL1pi3gXDB3Qoz2GoP8d/Qp+lPvp+K+vWtUCN3EBr0elxm4ZMBl6ogOl5wfTghVNUSsuXrYAz4ynsU1Vq+RCrXEyH3LEuhj9K0S9doLf8cxW3oDV4W0z/+aE6ncLCE8bMFdXI8A+khlF+JryOY5pgK+RXaC+wT/Gu2MF95booMN2arWTvVcsTRWUE8hI8RLjfPMum43P1tR58b/4Y/45j43/B3nzH/oooznmIuSAyne37OXqxV2BN5evZNe/XiLyUBjiBLk90cg8Z1XLtaOng2KmqUmRFFuUYVa+deTBhVrvW3tneo765taqayyjgpLq6mgtIpK+btqG5rVzxCPoHddGMbvdavm0MO3nk+RbPzaYui6g+tRMV/7keOnrAoFgDgSxHpg90G9mlupqeeL2xR/NrJwM7waGvn+rWtUr5raRqqoqqXismo6VVBGRzMLaOfeTFq9fi+9+cFGOnA0l7p4oMWygEC2pYEoGpwuFNAk2ILGyiO28OHmIGLB9SDY/NaRwcqlIdqve1sWbirwW53IxyayuBsf7q386PEgiQvwVA8srAJh67bnqtxAAcMO/q7IBY8HhSswBOLezg9HiABLbYifIWMUVqtzG7tz2LsL7iIUMOdGchvBzQp+xFiQ6IOt0ydgN8CAsORKgR2BE2yQGQKqXQHGIAzcx6aFc9vpM0IPVLfTp4XNVl1IIXx/NRVuR87LeIeNCggRtHV+I1K2dug29PoKNBUyOv1herhyu8RcaCvuJBQAFi7S+fkMF7wCnmNwz/YH6DMsVOB+geueOQMKh8N8PVR2LhjncO9EJiJXgFsWuwmTI5CB6+zzxer9x+v20cY9x7UjvcHuBXYabrtskXLrMb5mvI8IDaQUFgslbOTnFlboEgs9we/DBQovWwK5DcCYXbVoEv3xoWtUfQdTblKWcAehEODvowz0nLxS7YjjQdN2v7DjzK+uLupgMYb+heBoaGxRIiK/sJy27z5O2/iF3YW4mHDy8RkY2aMMOF0oAIwzBAAhFSTmoNwG1z0kBVQQ9aaHxofSbDb28JDA5ITnHVxVsLoIQwIv/B3HBqIoMAUE0RQ2KGHcIpAUvvr9CYL+7maB8L1xocoI0NOmMLzg8oVg0xI+Z3eJ9cFuyNwY1wsFgPkFlWanRvipHQa0kSvcHFEpG9Lv2hHm86FjDExiEY6AcxUrwq/+nArhDrQ8wV8ZupbcxoxBatmP85tUnI85MJ7Tgr3o/tEhav5wJpiXMFawuAGjEQYudgecCYT9PB7zv54SRsvjAyjIzuJq7iYUAAQPjPV0fuG0cvgZ3V+2OJ4zSAQA9yBz4GdwlR3Lzy7Mh0hX6qqFE7QLzhfCqicIWEZ8wu7DudoR0yCG4PbLF5l15/H09FD1CtISo1VRNIgFPdmJHAFqOiDe4Wd3X0JpSdE2iwTgDkIhKMCP6huaKS+/lKprrD9/nAmEA84FuxwHjuSqQHcUewsJCtB+w/3pF6EAsLWIgjlYFYBLBXLNW3roCM4Bq3A/mhhKKxMDnBJs6M7AuEBg7+gQL5oS6avGI4JVq9v6VjvBGrCZsCvz0IQQum1ksAqctQUYXYkBnjSSjSJ8Flz47Nl+dxTIrHTJ8AAWmn7kb8EPvb+EAlDBgr5wUfCmCeE+hIDK0uYuauwnawfPU3z/8ng/ZYibA/MgdkCwgov00cmBnuocK50sGNBLsfy93xoZpGJLJrLBZW4F1xismq1VLlPNFo1xXBuqr1+VGqjuNWcDAxMuQNj5jPDxVDtKlU54puBSYETfym334NgQmh3tpytTljncUSgAiIVEvv/GhXqpPyFkESflTDCckBUJSR0suR8B3OPIhISq0ljsgqGO87OUFMDRoI2W4R6P91fn0hO4sGzek0k7DmZrR0zj5+NND9+6yuSOggGIiZjIEBo9Ik6tQheX1ejOUmQP8M8fwcLguzevVLsdo9iI1zs/GOMOQgFiKy4mgurqmyk3v0y5Drka7PBU1zZQ7qlSOs0DPzkhikJ1FNlzB/pNKAD1kOSbGytZWFGDsYM0kja6jAt2AkPm4QmhKh4Bq+v2TgQDGTz0McHDWB8X6qNcVvDgwdZhDQsGRxrg+C64bF06PJAeZOMMcR/2GsIQCwlsoCPeB+5h2GlApg74qzsTfC9WiWdE+dKKhAC6Pi2QjZdAWhznTzE8hiytAqIpsQvynA6hMI6N+4Wxvmq1sC/ANQ5GHQwJuNDByEJMSj0b4w7s2m+A4TCW++SKlEC6e3SQivExXmk0BVb2MRawcDI1kvs0xEft7sF4dLS4wUosDJtvjwmhq9mIR5CspX4zBm33BRu2iO+xdGZ8+nQZC0h7/PbtBfdBrJ8XZfA1oc9hXNe0wXjsu/jHNaRyHyHVK4JuEXCP+89SXJEeUDMD2amsGbjIKnd9PwoFAIEXoxZTWHBze+Le7+jiuabVse6aGH9YqELyAowZLBLoGZP4DcO9g76A6yxcgXDPoBq+E25xdV6wV1B5+9ssaC7jex3vjcc4jO2DJwpo9+Ecam0zvfOL3xmTFk/3X7dcxQFYwovFAozoUalxlJrYnSShvKqOmlv1pe7VA2yAWBYklyydRt+54Vy6YPEUGh4fqf3UPtxBKAAEFyfERVJLS5uKHbCUAak/gUtSQVEFRfB1D2dx5u9nWwIPV+D0rEfmQFrJA1VttKa4ReUmR85vZ28dD2UwsX5nbDBdN0ILxLLBUBjMIF4GK5HItY4H+GG8atpUylPsetlqh6NVYZjBmIdxPYONwKmRvqoKKtuwfQang+rCx/n8jvB54h5C9Vj4vXf757OBZPM5d2dJwg5LnL+HSq+Khy/GjKoQzQITAbpw74nl90H8oNYzfnA7ow2/v7Pa4u4hnrcX8EMYxra5bCL2gOBHuDkeq2lXOdUPVberGJVTDe1qBd/W2QaXDNemeG4jiBHsXoxmsZke1L34gWP2rKSjnRDUebKhU43Bo7Vt2rnyA87O3SO4OMHIgxCeyWNwOo/BcWz44bit4N743cEaeinLsuDDtb+0IJKuTAlyyFi3FQyx/MZ2FU+BvP17qlpV3xuK1+nBsHs3lvsVbopIi4wdKiwmOMpeP1DdRv852Uj7+fy6ZwzTwIj+7rjuwoKuAMIAixEojIZdENQRQKpmZGvCAp8txR0hriK4AVN4TKbxfYIq1qNCvLrvI/67tRoX5oDNABckzNkYp6hGfpT/jj4vabbdRx+9gZ0qzHtYTDLE7eH+xt9xzn5s4Jub/tbtPEqPPf8pfbX1sPJdNwbxB7+87zIWCsu0I/pAvYTM3BLaduAkbdJ2LU4VV2o/tR3EIaQkRNKcSSNpwbQMmj0pXQkSHO8rqPZ81fcet1o5+uqVs+nXD1xOI4fHaEcczzEWbs+98gV9+tVOZaC7E9O57b93z6W0YPY48rAiGl2Ny4QCgOlQ2txBeyrbaVt5K22vaFFFpmzNCCKYB/MZVixvHxlMV6YGqIeOHbbMkADGRBEbtshJDwMX29p42OBhidU/rExjBR82B9JQIrAOD0CsKmN1DLnt8cCDoQ1XI1V3gd87yw0DD2q49uChiBoIyMgBn3e4DKCCKAoI4XzxwDfc5Vj1hTEElyHk5w/2HqZW4bFqCYGDfONYlcW1RPPDUuWb7/6ndsGnQfurW6m+zfw0g+ZJ4fbCboIzDEwYC7Xtp5WBg+JoyMeOeQfiBf2KF7IWwegw2JMwFuBdgnYK5HbCLlS4T3eBNgiqWBZN3bEjHiori6OAcEUf5tS3fxNYimJTiKmBm1x3v3b3qVpY4f9jZRNjEH2J3QwYOUmBnsoIG8lGWCoLmb6cIwpO/e5ADX1ppVIxxtWuC+PVDosrH3voQ/Qt6iKc0oxatGEVH8O9gTbGvQ5jz5v/48vth2DZCO5fuCbCnQnpiyG0ovm4qUJifQGr3xiHmF8sPX0RsD2c+7GvOxh9BSYCbt98bkvELmAs4hmNWizd82J3Ji5kMcKQ9OBBiTkP4wHCNBxty+MScwuSM2ChCi/smDhqnKAZUUsFCwOIUcI5luAeb8VOcfc9joxhqJNgmA8x16Btca9j8QPVxNU44HPF4gh2TLvHgpe6t/QA9yCIBFQ+3nMkl8qq6lTNgpBAfxqZEksr502gu69ZSvFRtlc5Rj/UN7VQVl4pHc4qpGMsHLLzyyi7oIy/p54qq+vVboOxSYc4gyB/P4oMC6S46DAakRhNGcNjafSIeBqXnkDpbKj7+5ovBGcr2QXl9NYXO/h8zC8s4JzmTxtFC6ePorBgx/vqow32Hsqmtz/aRGs27KPi0mrtJ+4D0tneedNKuvnqZRTL/eLOuFQoGMDkUtXWqVaBDtW0U2ZtuyqCc4oNNmwnYnLHTd7zRDF3wojBCwacpRXLoQimNUx6K+LhMxykgq8CeELUsRAsaODBV8EPxEoegyjKgwd8M1uUMERgpMGAgDGpHoj8Fzxg8PBDMR4+1O/gTq7n88NDsUF7eLfwQ8rwYAQ4LzwYlVjgFyqWYpU80Av31NAYHGiKFm4U7GrC8K7j9kIbcZOpYlAAhg5sa7QTBBUCVyEG8b4/WwmzWg3PfxCrOF8E7sIgwthEcTy4DvApqfOCsYOicTBuYZw5SqC+kt2gCv9hbjYHvglGYNblicp/353cGnG/wqWrWrkkdfc1nicA9p+vJgTDWCiEesMwVz8SLICaKyimhjHZc17E7cPN2S3AeExiLGABAmOzv9zRDGCO7r6/u/+EidCGbED8M8yHEAl8WoQilRDSmAcxDtT47f4Iu8Dq/7GcYuWGVMHGO4RCcKCfSns6c8IIlUmor8DfHaIEuwoozob6C9X1jar2AgKf4foEYxyuToiJwPeHhwSoOg5JcRGUzC9baiPYAs4NuwkIxDYHzg0CwRE7GKbYfziHXn5zrRIJVTWWU6TiHGK4T6K5bVBUztAmyB6FtjRUd1bZpPjveI8RgpiUNi2tKoKV7YmDmDdrLD1w+0U0f9Y47Yh74hZCoSeYbOAWkM1CAcWJ8ICEsQajBzc+ukzd3DzQYJBhEkJVSaTuG6iZlDB/YtIyPLz6AoY4JrtpET60hEXCpckBynd3qBiBgiA4DsxIfz5cS48drFOC2RyYv5ARaO2KODWfCYLQ/8BIh3HbwgYsnvkIikZBMXuyFw1UkI706Zc/p09WY1fDvEjAiv6o9ASaMWUUjRwRr4QCCqcZgDBAutOu091CoZPts04WB7CYYTbj7xBkTc3daVDLK2vpZC4LxGN51KjTzSmKv/Ph+y6nay9d5NZ95HZCwRxwH2D9oFb8DJVyDc36Snaj8qHVUwzI3cC29xg25OdF+yof0My6duUzz5dpE1i9wXYuUtDCtxbZVxbF+qnjgiAI9oBV+F/uq6Enj9WrRRxzIHUoqnU/Nj1MFiUEQXAJWOF/6Y019NLrX6mAYXMEBvjR1InpdOOV59CC2eMppI/uTxAVNXUNdPBoLn3x9R764NNtVN/YrP3UPNi9ePDOi+nub63ic3LfoOZ+zXrUF9CgEAcQCQik7PkowrY7fD4RyGSrge1qEByKlHuoZgp/YrzHCykU4Vbl64nVum5XFlwz2sDPC2niPNVWP/yQJ4T5qLSEFyX5083pQXTdiAAVZNnfW72CIAwuEFT9YX6zCma1BDLRIMUlMtHIrCMIgis4fPwUPf/Kl3Qiu0it+psC2aTGjEyi+265gFYumUa+vn0vfgb7FNmLhifG0NiMJMrKLVG7C3oYzecycWwqBQeZT6vtagbMjoIl4C/5Wk4jPbq/Vq3IDxSw2r8wxpdeWhCtMm0YQFYb7C4gGC+/qVO5X8HnHEGMWKyDMIK/NAIqU4O6s0cgK0dfcnsLgiAY85+TDfSnQ7VqPjIHZh0EUG9ZFa8WLgRBEPobrOo/9q+36K0PN1FFVZ12tDcxUWHK1QcZh1BvwdG0trbTph1H6Nbv/E07YpkrL1pA9926ikaOSNCOuB+DImwLOwzzov1oFQJ2EYE4AFC5mVkcXJcWdJZIAAgwRVl75ND+0YRQ+vOMCPr33Eh6eWEU/WdBFD3Nf//j9HBVXfmKlACVL15EgiAIjgQBqnDnzG+0XHQLu5zIECQiQRAEV4Gg5V37s1RRM0skJ0bR8sVTnCISgI+PF43NSFa7DHpo7+igDqTdc2MGhVAAeFBdkBxAU8IHRuAu3IoWxfrTVWzoC4IguBuozXGktk1ljLGEvyfR0ng/7Z0gCEL/g/iAquo6FdBtDhjvkeHByt3HmUCE6LVDkXUJ7lDuzKARCmBOlC/dlhGsXHLcGWRsQiGue0cH21UASRAEwZnAnRP1E45acDkygDlsZYL7+tcKgjD4ycouosYmyylKYZAHBfmfld3I0UCoFJdUqlSqekAQszsHMoNBZaUi1/mKBD+6c1SwCq5zRxCUjAqpt4wMohlRzhusgiAI9oJiYBtLW1UBK0tgmk0I8KRZUe79oBMEYXBTVlFLbW2W5yvF6dNmA537Cj63rqGJvli3RztiGew8REWEUnhYkHbEPRl0y9nJgV50Q1ogv4LI3RbrkYQIwcc3pQfR9XyOgiAI7gYKkr2W00Q7K1otpkQFYT6etCoxQMUpCIIguAoUPEMRNEu0t3dQbX0zNTbpq3NgCxAJrW3tKvPS/95epx21TFRECMXFhKuaDu7MoPR7QS2Bh8aF0BUpgW6Vqi+JRcydo4Lo22NCJIWgIAhuB3TBl4VN9Gp2g9XdBBDp50HXyqKHIAguxtMTFeG1NxYoLauhXfuytHeOAyJh2+5j9INHnqfaukbtqGUmjEmhtJQ47Z37Mmgd5DNCvOi3U8Pp9gz32NJBsPVD40LpARYJPoO21QVBcEeaOk9THhv+7RYKzaCy/fOZDfTQrmraX92mHTUPquIvivGlDJ7bBEEQXElwYAB5eVoPCs7MLqAXXv2SThWWa0f6BnYS8ovK6Z/PfkgP/ORpKi6t1n5iGcRLzJ4+hsaOStaOuC+Doo6CORBKUtTUSS+cqKffHaylVmv76E5iTrQvfXdsCF2Y7E+BAyR9qyAIg4OK1i56JbuB/sBzIKq3z47ypVGh3hTBhn47T/9V/PPjtR20s7JVFa6sb++y6nIEJoR503Pzo9TnCYIguJLX3l1P/3ruIyooNl+R2QBcfcaNTqZbrl1OyxdOpaAg27O2wX3p6Il8+nztHlq7cT8VlVRSc0ub7viHJfMn0QN3XETTJ4/UnUrVVQxqoQCwgFbV1kXrS5rp//bW8AOxXW2v9wdBXsPo6tRAtasxJcLXbQOsBUEYvOytauO5r5o+K2wmrLf5e3mQN09FSCOO2b+LhlEbT5Som6B3LQUF1m4dGUSPTAmXHVJBEFzO/sM59INfPU/HThRoRyzj7e1FoSGBFB0RQlMmpKlqzUmJURQRHkxBgf4qbWnX6S4VII1XXX0TlZbXKCGSe6pUVV7G+4bGFmpubtWd5QgkxEfSj759JZ23dLpTMzA5ikEvFAAuEFWNcxra6eWTjfTCiQaqau10mmCAHJgX40u38YN0aby/WsVDFWZBEIT+pIMFwEcFzXT75gqqbtP/ILMEKsOvSPCnv8+KoBFSZE0QBDcAq/nf/vFTtGHbIVUdWS/IPOTv56sMdh8fb/Li9zg2zGNY9+4A/7+LRUAnz6UIhm5ra1fxCK2tHVaDp00REhxA37nzYrps1VyKjgzVjro3Q0IoGMCFFjV1qNzg7+U304f5TVTM7x3lkeQ1bJiqqHxlij8tiPWjjBBvCvYaNiAKwAmCMPgo4PntqWP19PuDtQ5ZGMF6x1ye4341JZwWx/mp94IgCO7AG+9vpCdf/JhyTpVqR9wLiIQ7bzyPrrhwHsXHRihBMhAYUkLBAAL68hs7KbuhnXZUtNHG0hbaXdlGla2dylXJFvCczAj1pnn88FwY40vjw3xoJAsEBPrJQ1QQBFeyqaxVuR2tL+l7OkA80mbxPPfw+FA6P9FfXCkFQXArKqrq6LF/vUWfrdmtXIXcCbgb3X7dubRq+UyKjQnTFXjtLgxJoWAAoqCspZMKGjuosJmFQ30Hnaxvp1MsIlBwqKatixo7TlNb52lVAwHuQ4g7iPLzpKQAT0oJ8qTRIT6UyH9H/QakPw3kn8vjUxAEV4MsRq/mNND3d1ZTbR/djuButDDWl+4ZFUzL4v0pVAITBEFwQ/YdyqbHn/+YNm0/rGoruBo4lCyYPYGuung+LZg1jiLCQ8hjgNWdGdJCoScQDXiYVvIL8Qt17V3U3EHU2tkd4IfOxgJat1jwUDsGEb4eFOvvJcF8giC4HaiD8M9j9fS3w7XaEftICfJSOwhXpQbSzEgfCna3SpaCIAga7R2dtOdAFr36zjpav+UQVdXUaz/pXyAGRqTE0aplM2jR3Ak0cWwqBfgPzAxxIhQEQRAGIUh1iuQN/86sV2miu2yY6rGDkMoCYWaUDy2M9acFMT40MthbKjALguD2dHZ20pHMfFqzcT99vWm/yoSEYGdngzSnSL06Kj2BZk8bTdMmj6SZUzIocgDuIvREhIIgCMIgBK5HmXXttLWslbLqOyivsV0Jhpq209TY0e2KhMkfzy9/Tw8K9h6maisg9Sl2ETJYGEwK96Y0/lPiEQRBGGiUV9aqtKm79p2gQ8fy6ER2IZWV19qUytQaEACBAX6UnBhN6anxKs3qmIwkmjQulWKjw7XfGtiIUBAEQRjEwK0SrpS5De1UyEKhuqdQ4J8hKxtrAwphkRDp66nSOcf7e7A4EBcjQRAGPlU1DZR5skAVSMvJK1X1D8oratTx2vomamxsoZZWyzsO2C1AbYWgQD+VvSg8LEjtFMREh1FCbASNGB5L6SPiKT0lnnx8BlfaaBEKgiAIgiAIwqCmq+u0qqiMomlFJVVUWlatYhhq61gsNLeoGgmdnV3q9zr4T9RUgEDw8vIkXx9vVWsBRdoiWCRERYawQIik+LgIfh88oF2LrCFCQRAEQRAEQRiywB2ppaVNFVODWGhv7yQfb0/y8GSR4O1Fvn4oxjZwUpo6EhEKgiAIgiAIgiD0QpxQBUEQBEEQBEHohQgFQRAEQRAEQRB6IUJBEARBEARBEIReiFAQBEEQBEEQBKEXIhQEQRAEQRAEQeiFZD0SBEEQhCEEHvt48hse/8gVz/9XfwqCIPREhIIgCIIgDCBU4ajmVqprbFaFoTw9PCjAz4dCgvx05XrfeTCbvtp6mDLzStX79OExtGL+RJo6Zjh5ew3NXPGCIJhGhIIgCIIguDFlVXW0dV8Wbdh9nPYdy6O8wkpqaGql0/gfP8INOwE+bOTHRIRQWnIMjUmLp9mT0mnxjDEUFOD7ze/8+aXP6IV3NlBBaZUqMgUgNBJiwuiea5bSPVcvJT9fb3VcEARBhIIgCIIguCHZ+WX0wnsb6dON+6mkvJaaW1E5toM6OjvVroIxEAMw+rEr4OPtReEhAbT6uR9RSkIkeXgMo2PZxXTzT5+h/cdOfSMSDHh6etCyOePoh7ddQOfMHKMdFQRhqCPBzIIgCILgRmD57oV3N9ANP3qann17HR0+Uah2FeobW6itvcOkSABY94OIgKBoaGpR7kiJsWFKJIDdR3KpnD/HWCSAzs4uyi4op8zcEu2IIAiCCAVBEARBcBtgxP/m6Q/ozy9+RnuP5lJlTYNJw94aPt6etGjmGLWzYKC6rpE6Ojq1d71paW1XsQ+CIAgGRCgIgiAIghuA3YAnX1tLL72/kU4WlKlAZVNghyAyLIjGpCXQzAlpNG9Khvpz0ujhlBQXocSBn68PLZ8zTvsX3QQH+ikXI3N0/zuJTxAE4QwSoyAIgiAILqa9o1NlI7rt589TNosEU+5FcVGhtGDaKCUMUhOjlOGPnQNPD0/lOoSdh5a2dqpraFauR+cvnEyxkSHavybaf/wU3fTjZ+hodtE3qVF7smjGaPrpnRfR8rnjtSN9w/AdknZVEAYuIhQEQRAEwcVU1zXRvb9+id5ZvauXEQ9De+H0UXTFuTNo/tRRNCIpmkIC/fm49gtGQGRAMPj7+pz1O00tbfT4q1/Rs2+to1MllUpcAHx+enI03XnlEvrWpfMpKixYHbcHfDcyKu09mqfiKiaNSlbZlwRBGJiIUBAEQRAEF4JMRpv2ZNJV33tc1UYwBiLhvmuXqZX+8JBA7ah9FJRW04Zdx+jQiQIqr65Xx+DGNDEjmeZNzaARiVHqmC3AjCgur6WDJ/KVQMCORWZuKQX4+9Btly2iGy6cq/2mIAgDDREKgiAIguBCELD8qyffpydfX6MdOUNCdBg9+p0r6JKl0ygsOEA72jcQC1FR3UA19U3qPT43IjTwrMBnW8gpLKeXP9hE63Yep+M5xVRZ26B2K8aPTKKHbzmPbrp4vvabgiAMNCSYWRAEQRBcBNbq6hpb6Msth7QjZ4OKyQunj3aYSACo3ox4hzEj4tULf7dXJIDC0mr6eP1+2rj7uHI3Mrg0CYIw8BGhIAiCIAguAkHMRWXVlFNQrh05g6+PF61aNEkZ8oIgCK5AhIIgCIIguAjEJ6DImalaCYkx4TRyeKwqnCYIguAKRCgIgiAIgotobe+gvKIK7d3ZjE1PoEB/X+2dIAhC/yNCQRAEQRBcRDsLBUP2IWNGJEaTv+wmCILgQkQoCIIgCIKL6Dp9mhqaWrV3ZxMS5E+eHlKsTBAE1yFCQRAEQRBcBAqUNbe0ae/OJsDPlzw9PbV3giAI/Y8IBUEQBEFwEUiPCrEgCILgjohQEARBEARBEAShFyIUBMFODCuBeKHAUM+X4bi7Fz43XMM3597Vpaq24k/10q7F3a/DEub6yXBsoF2buesZqNdkqX8cieF7vvmOQTjWBUEQHM0wnhRlVhQEG4GBkV9cSSfySqm4opbqGpupsamNuk53Kb/i8JAAlQM9LSmaUhKjyNPDvTQ5bvu6hhbKyi+l3MJyKiytoaraBqpvbKGW1jby52vw8/VWwZS4jpSESBqVGk+RYYFudy3mwMyGa8rKL6O8wgqqrmtUQaO4Pi8vTwoN9qfYyFBKiY+ksemJ5M/XOxBAFdzMvBIqLq+h2oZm7sdmam/vJF8+/4iQQEqM7c69n8R/og/dmZbWdjpVUkmZOSVUUlmrxl8j95GXl4cqMnb1ebP7XEMAxj8qHx/LLqQ8vmcLSqqptr6JmnkcoIaBt7cnBfJ3hIcGUUJMGI/1KEpPiqGo8CAaNsz5gcSn+Jy+/9hr9P7a3dqRM/zmO1fSHVcupqiwIO2Ie7JpTyZ977FXae/RPO1IN+NHJtHDt5xHN108XzsiCMJAQ4SCMGSoqm1Uxn1j89kZRsJDAykVaQitGFX5JVW0ZtsR+nLLQdp1KEcZnp1shBhWIXveSh5sTHt4DCMvTw9+yAfT7EnpqsLqygUTKSTQX/ut/gXXvf94Pn2x+SBt2HWcsk6VUFMzxE33KitOn69CXQcMJPU/tpPUtfBfYFAlx0XSrIkjaPnc8TR/6ig2tEO0T3cMrW3tVMCGcCmLr56gQm1SXIQy7C1R39RC2/efpC+2HOJrPEaniiqprb1DrRir6+P/fHN9/EIf4dpgZI8ZEU8r50+kS5dNVwLPm8WEI8D1FPEL4rInSdyW8dGhFr8HY6uypoE+23Sge9wdzKEqHncdPVa/u188mXNfGa4JYi6CRd20sam0ct5E7q9xlMyCyFG0cD/hfiivrNOOnGFCRjIFB/qqczFFcXktbdh9jD5et492HMxW14f+6Xk9+LdBAX60881HKCE6zOxnmQPCHffoZxsP0Oa9WXSSBXFHR/fuQff3dI91A2fGenfbQWAN5/aaOyWDx8QEdf+GBQdov+0YUJEZc9KxnGL69ZPv03oer8bceeU5dNE5U3R/d3CgH40bmWhRzDfwPXLyVFmveRBpWBNjIygmIlg7Yp2mljbVf19vP0qPvfAJHedr6ckIvo+uWzWXzuM2tAX8u2g+Dy8J5BYElyNCQRgybNx9nP74wqe9Vr0WzRhNP7r9Apo8erh25AwwoI9lF9ETr6+hr7YeViu4MK5b29uVwaEHTxYLvt5eqnBSPBs9N1w4j+666hw2hMwbU46kgA26D9ftpXe/2qUe5E3N7Wo1FYaKrbc/hI+vj7da5cVOw7nzJtBV582iyaOS1XX2FRgdj7/6FT379jrtSDexUaGqze6+aol25GwqaxvotU+20Vtf7qTs/DJlDGG1GteoFx/uI1wX+mXZnPF033XLaAIbXbjevvDiexvpry9/TtVsFPbk/muX0W1XLDYptnDeqNb7n/c30UfcdxAHyIwDA13vuIPR6+vtzQagN8VFhdGKeePplksXsiGfpP2G/UAkPMN99OK7G7QjZ3j+0dvpnJljerVbcVkNvf75dnrrix2qj2BkWroe9EPul39VOz967hN8zsmCMnqHx8BHX++l3KKK7u+wcRwAfB/GOgSDv68PDU+IpIuXTKWrV85SuzW2sHb7EVq/8xiVsqiCMEBfVvN4ra1vVsIF51ZT36TO0xi0AXYo0Zd6mDF+BP3vsbuVyDLHwcx8+v4fX6OjPK/1JD05lu7nMX813889wTl/umE/Hcg8RRXVDdr583XwC2MSohXnXtvQ1Kud0YaY92ytBfGb71yhBLujxZkgCLbj+Qij/V0QBjVlVXX0yYYDdORkIcEFxfAKDQrgB2wqPyhjtN/sXnmurmtio3U1/eyf79D2gyfVgx6GB1aGbbGv8Vl4gOLf4kG779gpZTyMTo2jGDYSHWFgmwJuHP/7eDP99umP6N3VuyjrVCkbJM1q1R4Gij1g9+Gba2Gj/nBWgRJgcIfBamRfXSTQVhv3ZKqV4J591MnfiVV+GPDGYIfkR399UwmhrFNlyq0Euwh6DWoDaBMYrnBTyWaDE7tHxPYZXFEsGV7WOJ5bTB+s2aPGT89rQv9PG5dCEaFnt1lhWTU989Y6euSJ97htM6m4okaJU7S7beOu20WumY04GHUwDNftPK6MUohiCCN7wWr0niO5vfoJr8UzRyuXk547JVhxfvTpD+mNz7ZRTkG5+j1r1wOh8Yt7L9VlJBeUVtF/PtikxvrnfE45hRWqH+0ZBwbw7/Dvca3lVfW0/zjftzuO8j1cryom63WJevnDzfTcO+tpH/97iL9TxVXKzQo7knAbQ1vA2DZFW3un+v6e7WvpFRURTNdfMFftwJkD9+obLNhOKkF95t8G+PvQ7ElpNGXM2QsmcK385yur6YO1e9Xcid0ItZvE7YA5Ers3mA9MtTPmC7h39fwePS/sWGJnaqC4AwrCYGZgOBsLggMIDw4kPxOrw3gQ44FnAMbBXjbm73rkBfrXK1+phztW/xyx+QZjFIJly74suu/Rl5WhZewC4AgOZxXSQ396jR577hP+rhPKSMUD25HACEW7HcwsUIbQw/x9b7IBYryqaAtYvYVRbiye2vgzcQ09gS/7I0++p0QCXKlKKupU3zkCiCzEAfzlxc/p7y9/QVl5pdpPbCc63LQLBQx2GEUGYCxu5XHxo7+8weNutTLsYUzaa+j2BOMO33foRAE98epXamzD4LN3TGOHLCI0UHt3Nugn7MQZePOLHfSbZz5Ugg4/0zM+sKIPQ9yaSEDbwGXnp39/m/7y0udKvMCA7csYNAU+T4n8o3n05Gtr6I5fvEBb9p7QfmoZw/wCUQCDWgl1M8LAHcHYQTwTxiLuC8NupCPGpSAI7o/sKAhDBjyaP990gI6z4d+TkEA/mjw6mWZMGKG20LcfyKaf/eNttVLeU0D0BMYffIGnjk2hmRPSaOq4VOXSgcDY4CA/ZfSZK6IE8PCFQQODfmRyDCXEhPdphbcnX24+pPyFv9h0UK1cmlutxGod3CjmTxtF584dTxcunkqrFk2mS5ZMpXPnT6DFM8bw9aWqlXys7jaxwdPW0dFrFRjGJgygojIE2ZYqA757xdp2/2IYiHAN28xGWE9h4zHMQ7noXLdqjvo+9MuP/vYmvfX5DuVigmBeY+C2MSIxWp3L9PGpNH3cCLVampESR9ER3Ts5MHyw6mkKHMbPsfIKgxV+0+Ehpo1jSzQ0tipjGW5rPUHMwJzJ6SruA9f69Y4jyjXu653HlAuWqdOC3zzG6bLZ42gJv86dy/00cwzNnpxGY9MS1IoyBJyKPTGzwgtxksdthhXy8TyG4QuOOBRbgKGbV1xBH6zdox05A85jyeyxSpTj5xA9iBfAGDEFfg9ubCNTYtWuXlpytHKVSo6LoBsvmqf9Vm9gcMON6Z//W61ceypq6k1eM8YUBOjYtHjVVivmTaALz5lKFyyeTBfxmMfq9cJpo2kyjw30BURQt0HfW3Sq9uP7ALEvBzLz1e/ivrfkGrV662HaydffH+IAY+oGKzsKCIKHK6Kx8I7iOW3+1IxeOwrYjfpk/X6V9KC/OH/hJJooOwqC4BZIjIIwZMBq8y0/e5aNi53K2DSQmhBFD9x4Lt1z9VIWCSfp0X9/oLJ4GK9KIr4AxvNsNu5GJEapDDPYrvfx9laGJIyUdjakYSjDZ/5kfrkSG3jhYWsK2BeL+DMf+/7V6gHd1+A9rNr++cXP1HWYMsxgHKcmRNI5M8eykTqSjV9cRxCLG3/1UIZPMTIC4VpgcEI4wehE9iAYFnCfgNsUVqZhRBsDdxMY1DdfPJ8euOFc5Z9sK/Dph9sNXHAMQETNm5JBq5/7gXKf+uUT76qYBKyS9+xL7EbAjWweGzzj0hNU5pwgfz/la45rh0GHoFasimKVFOJm95Fc+nTDAeVuZA5kffr+t85XQsXcSro5cB3nfOt3yh2mJ+fMGkP/d/cltHD6KOWa87eXv1BjpWe/YVxFhgbRChZuCKxN57aFqxLEKAxsw3gxuE3VsxiBwXw8p0SttGPVu6yqXv2OMeir+dMy6C8/uI7bKtGm4G3cS6u3HKZLHvi7duQMN1wwj/7+k+tVdqEfs5gzviYA0TdzYpoS2SOHx6hrRCyFt5eXCi6HuMW1z+LfMQVEwhuf7aBn3v6a9h/LV/1pDMYM7tOVCyYplxoERaPtAllAQjhgrGNMwIA3CHuIgJq6RuVas+9YHq3bcYwO8lg3tVOFgGEEwD906/l0zXmzzRrn76/ZzW2A+cT0bheEG9zt4JJlDIKoIeb8LBj+PRmRFEP3XbvMolDArssdv3yBDhzP1450M5qv5Ye3raJvXbJAO9INdkDfZEGemXt2oHJPilh8bN5zQi1+9AT3ChZT4GZnC8h2NW1cqm73LkEQnIcIBWFIcdvPn6NXP96mjGADWLm855qldN6CifSbpz9Uq2cGwwCGZSgb0VetnEVLZo2lMWnxymc9mA1SS24RMLQR3JfNYmHn4Rx6+8sdatXT1N2G1fq7rlxMD968UokWe8Gq7U//8bZyNTIVGIl0mSvmT1RZXCaMTFJZhGwx5GGMQizADWfT3ky1Wgy3I2MjCgYYxMJdVy1RYgHvbeHVT7bSr558X63kG4BBPHPiCPr0qYeUcQiXqp7iC0YbVrHPZ6MQuwcqa0p4sNVdGqwaw7/96Mki+pxF1mufblMuIqamxTlstP30rot4nEyy2PfGQFDNvOYRFSPSEwifn99zsdql+Mf/vqQPv977jRsaxh2MLHwXxuXEUclqbGCXxBo4d+xeZLPhufNQtuonGLwmjV3uGwTp/uF7V6vPx3s94Dvg7rXs9se0I2e4csVM+ssPr6PfP/Mxvf5Zt5gzgJSjENu4rokZSWoFHNdpi0jBd2Mn4fFX19Ceo7m9xjr6Bjt7lyydTkt5TCD1Lca+Ld+BcYHdOAT/475FhqbDJwu1n54B/TQuLYF+ed9ldP6iiUqAGIPdIWNB25OSilr67TMfsfA6pB05w/d4ToAICQvRF9QLQZwQHW5xfNoqFLBgAgGAHUVz7OI57nfc34hh6Al27+64YjH3xVTtiD6w42dtjhUEoX8Q1yNhSIHsHYeyCs5yAwhiYzkuMlRlB4KRanAZgmExaXQyff9b56mVZKy+YlcBK7mWXA0Afg6jAXnZR/HDEmIED1zjTCMA54KVbawcpiZGWTVujYEBAmPjF4+/q1b7jQ0nnMv08SPo1ssW0k0Xzae5k0eqNKO2fg9WepF+EUIJNRVSE6KplY1PnHtPNw24Z8A4xqosjHVcly3ANQw7Ogga/QZu7pAAf+VG9Oun3qfCshrtB91uYLdevohu4+uDy0JGSqyq/6DH6IWIgaGKf4NXeHAAGztFagXc2K6DwYfrH5Uap1am9eLpOYyeen1tr10ljCUYUjsOnmQhuesbgxr9MpaNNuxwob/OYYGKnRG9/YX+hsHY/fmxyv0KQgvCy9idBmMnr7CSz9FTrfzqFY74DvT7fz7c1Kud0pJi1M7Oi+9vVMa24edYfb/p4gXcT4uUCxDGOoSPpVSepsDK9eOvrVHthkDtnuC64ZqFjFXXnD9b7Vigpomt34FxgYw7EE8woBNiw9QuRm5RZS/3JhjRcMOalJGskhMY7wpiVRxjDGPG1AtgRwlpUo2BO+DSOeNY6ESY/LfGL4x7a3OTra5HaDuMe1PfZ3hh7H617bCah3qCMQi3RiyymPp35l565lhBEPoH22ZPQRjgwPg3NhpgFG7Zn8XG2s5v3GlgcMB95Wd3XaQMGxg59roF4eG9ZNY4+s4NK0xm7QHItf/x+n2q+JKtIDPK0299TV9sPmRyJ2EmG073XL1EGZ1wx7FVIJgCriMwyh+8aQVdvGRarzSGEEVYQX/qjbUmxZElYOB7G50jjDNk/8HnIbORARgi377hXLVzARcunIc9Bgb+DQQd8tZDcJiKRYBRiviBbftP9jIWLYFxA3cu4/OC0f71jqP06cYDyr0DwEBCissf3HYB3cbiB0LV1h2ZniCj18Lpo+n+65erolcw+IyB285rLJBhgNsSWI/rMTWWkAXnZRYQMEgN7YQdrDu4bbG6jExP9rikgVIWHi9/tFnVXzB2Z8I9i10frMJfe/4cFVvTV1sTYxEi/9Kl03msr2TDfbLJVW7EIGBsokaELWNDEATB3RGhIAwpUDTMeKUZPsLwvz2a023QwuDAqtrDt5xPlyydpt73FfgMY8X2u2xsIHDZlDGLVUX4lptyETEHDPKtLHJeeHcjG069jTz4nt9++WLlXmIqX39fwDXNmZhOd119jvKhh5HbExjCcHN45s11Nl2TMqxNGMdYtfxs437tHSlRcP91y1V9Bfii98WgNoBV1TuvWqJqa5hKiYpMQXDnMV45tQYEqnGXl7DwWcdCAW5PAEb3VDaiH7hhOV1x7gyKdFA1Xnw3AnnvYrF4xbkze41/gDiKl97fqHaBzLnIGAOD2ZRQwM7FNh6ThvEIQ/vmS+YrFxr83R4hB3Be76/Zo3bNkIGnJzgX3LN38zVCwJoSRH0Bn7dgWoYab4jvMQbnBqGPHUu4HAqCIAwWRCgIQwoESxrvKCBeAUYt7CP8DK4a916zTPmG22vUmAKCA4Gr162ardx4jEFAIHyujQMCzQHjBP70T72+5qzVWwMwNJFTHYaTo4xOY2B0Th+Xqvya4fJhDFZ93/pyh8okpXel1ZONPlP+5Pj3hlVk/BzXdueVi1XtBkf2E4xZ7CLBr9149RiC50BmAR08cbZ/tzUgqlD9tydw/UCfIwgZ5z8qJVa144XnTHGIOO0JxBeya93Nos5cgDB2NxAEj/oDesAY9jHRT8jTD/GN+wnXAXFy2fLphCrUfQFuP8j/X9TD7cxAGt+zECKorG0qTsAR4HOxO4eiZMjOZAx2I+GKdSKv9KwYKEEQhIGMCAVhSAHD1lKAHAzqi9hQQ0CmI41PAzA24H4Bo8mcCwNWdfUAlyOkEv1800ElGoxZOnucMjoRJ+FMsKoM4xM+4fCl7wnOC779T7z2lcnMNKaAmw5e5oCYQzrbh245T7kIOaOfEBgN4WNqV+FEXolKa2uqzc2BNrI07qLDg+iCxVNUNVpnGbo4B6QuvfeapSYr3sLtCIHPMPT1gHY3dhEzBrtoqPSLtK595Z3VO1VNE+PdKbgxYUcL7Qc3P2eC8QBXrhsvnm9SzO49kkfrdh4zm+VMEARhoCFCQRA0lItGeoLVyqZ9AcYiMvIsnzvBpKGBrCGlOt1a4Av+ysdbTPqVw2C/hg20tCT7syjZAgx2uOssnzO+l+GO1JMQMwhSRuYka0AImHMjwmcjAPb+684l5Ly3ZHz3BbhRXciGJ4LcjUGVXtQh6FkszRq4HnOCBj9DqlrUr+hrZWtrwNBF3QAEl5oCQeRIE2uLq5g5sJuAVKkIqEaf9gUY3qhuDdFpDKpAI5sXYhL6A4isa1kUj89I0o6cAYH8763ZTXmFFTYJSUEQBHdFhIIgaCB7DrKxoICSM0HxsMuXTzfp3w3fd7ikYLfAEjC4i8uqVd0EU8DdaPKYFArwsy9o1B7Sk2LUDoaxsQuDqbG5RaWINRVsbQswqpGF5opzpztNJBhYMHUUxceE9fLpN6SJhbuXI4CoQ2YjZKbqDxDgDF9+UznqYZDvPJit2/3NEoiPWcji0dTuha1s2HWMcgrLVUxOTyBGls4eo7Ib9RcYd/HcZ3B7MyWA9h87RUeyi3jM69tBEwRBcGdEKAgCg9XelMQoWrVgknbEecDQwAoyXCaMV5mRKhU7CtYCIhuaWmjr/pMmi2nBAMRquKODl60Bow11JrCzYAwWVz9Yu1etwvdlpRVtdtXKmRRgZ9YcW4iLDlWr1OYMakcJBQiEuVNGmgwydgbYLYNbFSoRm9rl2LjnhEp92lcuXz6DYiNCzO6k2ALGjqkCf2nJMar9+nusQ4CjZgdcCI2vD7sx2JkpLNPnQigIguDOiFAQBMbH21MFMcN46g+QVx052k252CCjC4SAJeobW1XlXVNgRwSr7q6oapoYE05LZo8zudKK4lVYFYYrkj3AIIMPOnZL+gvUizCVKrW+sdkhfugw2jHmkD60P4FrFVKImuqnA8dP9TnNJ64LWYJCg/seMwDXum0HskzGuMyemEajuY/6G4h9xDNhB82UDkKsUWnF2XUKBEEQBiIiFASBQQGyCRmJJuMGnAVWQ019Xz2LhOYWyy46yHaEXPKmgP+5KeO2P8D3ThyZqCrwmgIrrYaCdrYCUYXUsqNS+s8wRAakAP/egqupuU3FiPSVVBanGcNjyd/BWY6sAbc3ZAgyNf6QhjavqLJP14eaFIk2VkM2x4HMfCXKjIULMjlBFKNwmytAG16waLJZUYyMVsauUoIgCAMNEQqCwMDATU+O1d71D3CXMOVuAj9+SwYGUi9W1TRQbmGFduQMWHWHv7aj88jbQnhoEE0Zk6K9OxtkhUE6UHuAa9P49ASnxyb0BJWa/Xx6CwUEreoJzLYG0mw6IiOQraANUxIi1cvUGDyeU9SnOIVp41Idlr0JtThM3Q+JsWGq7Vyxcwa6g9AzulPfGm0r4HxzC8t71XsQBEEYaIhQEAQmlA1C5M3vT2DMm6qnYA24YmTmlWjvzgYr06NHxLnMeAJwN0FFYVMcyS60O6MODLK05P7JbGMAfWRqVRzX0NLa98xACGSOjgjW3vUvGHqoAm3K/S2vuJJq6uwvHJaRGqf6yxEczCygdhPB/Rkpcf0em9ATiANk4Jo4KplQ+8OYnIJyh7inCYIguBIRCoLA+LFR44jsLLYAP3HjlUg9wC0pt6j3bgJIHx6rVt5dCQKOEe9hChSjspbRyRwolhdjIl3pQCYiNIjCg13jJoYCcOMzEk26ziCrE+Iw7GV4XITJrF72AFFsqoBZcmwEhYc4N52sNXD7jh2RYHJXprCsRrkICoIgDGREKAgCg8JR/v28Cm+PSACoIg1DzhQIkHaUgWYv2M2AS4spcO5wx7DHbQe7L4H9mO61P8Cquy8LRleA8Yf4CFNGbnlVHdlSJ8KYmIgQFUPgCJAyGK5exiArVUiQ61zsAMRWRqrpOhEVNfUma5wIgiAMJEQoCAID9wtXGWy2ArcXGHKmgCtLfwZkmwLfj5gPU8YTUqOiYJkpVxI99FcK0f4CQsHb2zXXBJ0aHx1m0v2tuq5JdyVtUyB9rSNiSTq7Tqt0wUgbbAzcBV3pYgcgtpDpy9S1QhDbG7gvCILgLohQEAQNE/aSWwI3DFM55YE5A70/gfGEdLPmXLlq65scEgg8GEBb4X+uIjIsWJ2DMU0trXbHkgC4v/X1fjIU6jM3VkIC/ZX7nquJDg9hodD7nmtobKXWPrShIAiCOyBCQRAGGHDDMGeAmMrA4gpg/PqYCWaFAdqXHP2C48CKvKnxgv5BLIm9gg5C0RECqEmtyJv+HLjYebl49wxtp4K2TQzn9o4OkzshgiAIAwkRCoIwwIARB19/UwQGOMblo694eHqYjflAetS+VGcWHAOMXEsr/x0dLBTsNHRNrbDbCoYIRKW5sQIxYipjU/9y2mwb9kVoCYIguAsiFARhgAEh4O1l+taF779bGOF8Du1mdj2Qvcgddj0E7E51mR0vMPZd2U/4asS7mDuHzs7TbrEzBUFlqgkhYuxJfywIguBOiFAQhAEGjI8AM9l/UKzNHXRCt+uKaaEAdxd32PUY6kAgYLyYc+2BGHVU5iJ76S7aZnpAK9ceF6/Y415T6X5NNCF2GiCKBUEQBjIiFARhgIHMP+ZqJTQ0mQ/+7E9wDo3NpjO++Pt5i1BwExBYbmpHAf7/3av52gEXgJ0E1OQwt6OA+AV7a3I4krrGZpNt6Mtt6Okp41wQhIGNCAVBGGBglddcRqHy6nqXB1Di+5E/HplzTIFzd3VmJgEMU+PFVI0CVBx2h3TBECtBAX4mxUJtQ3OfUrg6irKqOpMuUIgXGigplwVBEMwhT2tBGGBgNyE+2nSF4oLSKmrvcO0qKzIylVWxAWrCeMK5IyWnq11ahG7Xo/ziKpP9FBUepFbz3YGkuAgWlr2FQiWLnL4UhXMEaMO8okqTbRgdEcJt6No6D4IgCH1FhIIgDDCQOz453nTl45zCcrMZkfqLpuZWNp4qtHdnExcZqlarxfXI9Zzm/x3LKTG5AxXL/RQc6NqqxwbSk2JMpkEtKq+h2vpG7Z1rgDw4kcdtaMLdLyE6TNV6EARBGMiIUBCEAQZ8/FNYKJhyxygpr1VVmztc6H7UwEIh61Sp9u5s0pJjlDuJ4HrgcbT3aK4q4GdMQnQ4hQa5h5E7MiXW5A5ULoviiuoG7Z1rQED1oawCk2IrMTacQoJMuwgKgiAMFEQoCMIAw9fbmxJiYIT0XvGF29GBzHwV1Owq6uqb+RwKtHdnMz49Qfy23QC4zKC698ETbOSaWA2HoIsIC9LeuZZJo5JVqlFjsgvKqbiixqTQ6Q/gblRUVkO5BRW92hA7ZslxERQWIjsKgiAMbEQoCMIAA0ZIeEggjR+ZpB05m637slQ2G1cAoVJUXk3Hsou0I2cze3K62YxNQv/RyUbu3qN5avfJ2L8elYZHp8ZRZKh7CIXpY1OUu5rxDlpVbSNlnSqj6jrXjfUNu46b3L2L4LZLTYii4AD3cN8SBEGwFxEKgjAAgf/4wmmjtHdns3FPpsrE4orsR5U1DbTnSB7VmBAqOOfp40aoGAvBtbS0ttE7X+0yWaFgeFwkJcWGu42gS0mMovThsSZd1iB2TuSZdnNzNqgw/tG6faponTGTRydTXFQoi3p5xAqCMLCRWUwQBiBYqVw0Y7Ra/TUGgcS7DuWo/O79CdxZThVX0lfbjmhHzoDV4LmTR1J0RLAEMrsY7CDAt//jr/eazNYzc+IIFczsTqycN0HtKhizh4XC4awCs8X9nAVcjfJLqmjNtsO92hBjfQ6P9bjoMO2IIAjCwEWEgiAMQLDaOyEjicanJ2pHzuatL3dSbmGFSUPQWdQ3tdC+Y6do674T2pEzIL3lNefPlt0EI7rY4ET2of4ENS4+WLuHCsuqlbjrCVbtF04fTQmx7mXkXrB4snKFMo7fLymvoW37T1J2fpl2pH+oa2im1z/bptrSGASBz52cTrERIdqRoY4sDAjCQEaEgiAMULCrcP2F80yu0G/cfVzFKphyAXIGECSHTxTSu1/t6lXHAcZdfHQYXbh4qskdkKFMbX2zMjqNDXZngX6CQHjita+0I2czKjWeJo8Zzsaue2XrQTzOjAkjTNZ2WLP9CK03EyvgDPA9OSzCn3t7nXbkbM6dN55SE6NNpnQdaiDQvN1FweaCIDgGEQqCMEBBxdrLl89Q+dqNgd357Dvr6WBmfr/sKlTWNtDXO47Q19uPakfO4OfjQ3ddtURlaTKV0nUo88bn2+n1z7ZTU0v/VBhGJebn312vMgYZg765dtVsSomP0o64F9+6ZIHy+zemoKSKPt90kHYfzukXwVVaWUtPstAylZoVOzJXr+Q2THDPNnQWuG5T8Ritre2qroogCAMXEQqCMEDBTkJ0RBB99+bzTO4qHDpRQP/9aAsdzy3RjjgHrLCu3nKIhckGk2ki46JC6J5rlphMcTnUKSytpn+98hW99P4mpxfKg5vMpj2Z9MSra7QjZ4MsPSvmTqAYN3WZWTZnHM2elG6yENzqrYfotU+3UWWNcwuwYffnq62H1X1liouXTFM7Mv5DLLNXaLA/i4Xe93d1XSMLqnrtnSAIAxF5cgvCAAY+/7deulDlmvc0WtHD6uprn26lV9ioQeClM8B3fLHpoDJ2C0t7fwdcWH5x72UUFhwguwlmOFVcQX9+6TP6y38+o4Ym56y+QoTAFe0Hf3rdbODvgzetoLTk6F5xAO4Cxs/3bjqP0ofH9BpLLa3t9PaXO+mpN9Y4bXcGn7t+1zH66d/fMplRLCI0kL59/TKVMWqoER8dTgF+vd3C6hpbqIDnhVoWWIIgDExEKAjCAAYGE1ZY//nTm5ShYmxAwUCE8fT4K6tNupv0BcQivLdmN/3h+Y9p37G8Xi5OyFJzwaLJdOXKmb3OSzgD2q2orJqefG0N/eRvbzo8MBc7CV9sPkjfe+xVKigzLRgvOmcKnb9wktvFJhgzYVQS3XrJQhqR2Nu1BymBn393Az32/CcOj83BTsJHX++lH/z5DeW+ZYqf3X0xTchIJh/voReHExLor9zC/P18tCPdYCEhM6+Utu3P0o4IgjDQEKEgCAMcuPfMGJ9Kv7zvUpVxxRis5sGA+tk/3qb1O49Rh1GwsT2UVNTSP/77Jf3qyfdpz5HcXgHMyMo0Y/wI+vm9lww5Nwx7wAo1DF24z9zz65fojc92qFXyvoKdpCdYgPzgz6+regOm4lVGJEXTj+64UFUSNuXC5k7AfQ0B/BcvmdrLRQrXVlxWQy/wWH/4T6/T/mOntJ/YDwzdkyzc/vTip/STv79FOSy2TbXhbZcvUvFCpu6/oQDWAeByZcptDS6QH63bqwrkCYIw8BChIAiDAKxiIv3oAzeeq3YWjMEK6+ebDtD3H3tVCYYdB7Oprd12wVBcVk3/+WAT3f3Ii/T3/35Bx3OKe/nWI7MRRMJvHrxS+b0L5oGbSnx0d4AuDFD005Z9WfTLJ96hO37xAr331W6qb2xRP9cLjFvEPrz43ka6/zcv0z//9yXlFJarDDQ9wS5PVFgQ/fWH1yvXtYGyEh4eEkDfvuFcJRZQobwniJFBsPG7q3fRvY/+hx7994dmq4RbAn2BHbh/vbKa7v7Vi/Tc2+uV6DIVg3PJ0mn0g1tXUUJMmNsLLWeyeMZoSorr7XaF8fvJ+v30l5c+UztngiAMLDwfYbS/C8KgZ822I6qaa7PRau2YEfF04eIpJtMvOoste0/QZn6hwmtPJmYk0bypGSYzvFjC39eHRqXGqQwkMOCN/d3hm45MLZl5Jep7N+45rgqkwa0Cuwyenp7kwcYjVm3Z1uR/30IlFTV09GQRrd1+RAmEZ9hg+njdPjp4ooCq65qoC7/YA7Qf8vD//J5LaOaEEepcbAWrtqgujcJxPYF7w8oFE2lceoJ2xPnAOPxyy6FeBg7EGIpq4Rr18DK3XQEb78aG5g0XzaPFM8fy59eozFEAweEQDDDudx3OVYHi3e3dSM0tbcrAxwquF/cXm/s8ltvUbsSJ3BKVJhSBts++vU65ymA1F/1k1E3KoI2NDGGRcAOtmDeB+81Hfa4t4JyRtQnjxJh7r12mRIizDGeMhZEpcWrXBWO4Zz0DXGsrj3W0yVEWCWgT3GvwlUf7GcY60pfi/NDeuAb0D7KEob9feG8DPffOevpi8yE6xvcSfO2NgbCCW90v772MMobH8mfat+6GHT/D9xizdPY4mjYulQKMXHr6QnF5DX24bi8LqjrtSDdR4cE0n+edKWOGa0dsI4xFW/apMrVzZRwn0shzEead3Udy1fd2dHSpMdzJgqyxpZXKq3heyimhr3ccVX2GdMqOvGZBEOxn2GksPwnCEAHuA8+zAWC8DY5Vwad+8a1+zfjypxc+NelPfd2qOfTwrato8uhk7YhtIE8+Cmo9/cbXdDy3WBlCxsAohEsQKiWHhwSpOAe89/b2VEHRmBXaOzqUIdbU0k619Y1UUdPAfzaZ/DyAtruAxdbtVyymqWxs2FszAWLud89+pNykepIYE05//dH1dMW5M7QjzgcG5kN/ep12HsrWjnSTnhxDD960ku67dql2xDLLbvsDbd1/slcg8a8fuJyuPX+OulYIsS37TvRybYEggDCBIRcS5K+Mehip3UKhexW9u59aVf9ADGJMGbuDGYB4G5eeSD+580JaOX+iiiWxJ4YE1b8ve/CfyvA05sD7v6XRbMjbazzrAe5aJ1lUvvnZdnrlky3KQDUFxAAEbDS3Xzi3I/4OUY2xDmGM9saYhuCCYDC0IVbCjYUdQFtF8ufcxuP8pgvn0Zi0eLvazwCEzvcfe43eX7tbO3KG33znSrrjysVKdDkKuAre8csX6MDxfO1IN6NHxNMPb1ul0tDaC4QA3BEhbk2NP8wJ8VFhFMXzDurAqIUEbrr29k4lLtD2SC2L+3x0apz2rwRBcCXieiQIgwwY1FevnEW/+vZldOmy6RRpwsjA+gAezHlFlSoQGQXasJIKF4EPv96rfIqRm34dG7A7Dp5UKVYrWSiYEgnK1WjCCBY359N3b15BM8enSmE1ncDARB0MCNWf3nkR3cJGGlb6ewKXIayOHzlZqIJCIaQ+23hA9RFen27Yr3Z8UKH4aHaxCrY1ZaThu5B9Ci5qf3zoGrWDBoHYFyPXlUCEZAyPoW9duoB+etdFKhgboscYCAEY/XAl2n04lzbsOq6Cu7EzhrH+8fp9yi0PYg0/zzpVpoSWKZGAVW6suv/+e1fTPVcvobHpCQO2/ZzBhJFJdNtlC2nWxLReWdgA3BRziyqUyMTuAeacLzcfUn/ffuCk2lWBKK9rwC6YrGEKgjsgQkEQBiFYfT5/4WT6ARvvP7ztAlo+d3wvf+6+AjEwISOJ7r56Kf3y3kvpxovm0fj0RKeuIg9WsGOwaMZoVRMD2XNWLZqkjHpHAUGweMYY+r97Lqbv37xSubQg4HygAyMdQdiXLJlGP7njQnrollXKbc/RbivYhZg5IY2+e9NKeuS+S+nq82bR8PhI7aeCAcwJ58waS9+5cYWqe2GPKydEWlFZbS+XTEEQXIPEKAhDiuz8cuXPHBsVqh70htf0cam0YNoo5ZLQX8AHHy5QcdFhZ50L/N6njUth47Fv7gaINUiICVdb+IjBQHabSHzm6e6c8OZcUywBV4Gk2Ajln3/p0ml07ao5atdi2tgUk4Ww7KGmrlH5MXt7e53VLhkpcbRk1ph+DZCG/zhcQ/zZ4Ol5LqNHxNGcSSOV24kezMUowGCfy20Jf3m84Ao2OjWeRvG1or/gKoOgc6ywGseDWMPXx5tS+FwXzxxDV62cRdetms0CZIpy7XDEIjj89hEoHBURclbb4HX1iln9WjsD15rI4xLjHHE6aLuwkADV3ojVMbU7YA3UKEFbLZw+iq5YPkNVrb5wyVSa6ODAb8RTqGxK/HfjdsR4H5uWoM7FUaDfkII3iO/Xnt+F78FYHDk8VvtN+4AAhXhDH8BVrhmuizx+zbksGoP4EczF6Mv+nI8FQTCNxCgIQwrk9M5nw8/YVxyBw+NHJvZr5he4QuCBbWyww3UID1lHGd4G4H4Bg+TwyUKV8rGgpEqlOUUQbW19s/LRxrnAMIXI8PLyUA9q+BJjxTsmMkSJBBhPY9hQhk9zVFiwwwNW4eKUXVCm/MR7AgMExoytQd59AaubCOY2jiPBSmlqYpQysPRgLkbh0e9cQd+7aaXJ1X2IucycYjp4Av3F45b7C/EAOBcIGMQloL9O8/8QrwBjEmMGfQX3pSQ21kYmx9KEjETVVwgAdiQw/vYcyTOZxhXGNdrIFW45eKTVNbRQZm4xHWEhgzEPkYZsSBhbuA8MQhluXRC/3l5e5O/nrdrI0H4QHqjXgDEH8eHoHTkDaD8E8OJeNAYiH/3oyHkJ9/qhrAKVxKAncNtKS45R848jgMsXxixcieDeeDK/XMVPoQ/Q/rgXMM+g7TFukc0K8QspCZF00TlTVbpVCWgWBNcjQkEQhiCtbe0qOBnVlMvZIK+ubfzm4Q0/YmU8eXuqBzWMJ6x0Y+cD/vQIeha/bNuwRyj0BEYtjC4YWlXcbxALyNyFz+vq6lLGluqrIH+KCg9SO0nxLKiCWOQNdSB8i8qrVY0FxHrAQG7EWOdxjlVubxbEMMQD/H1UwTkEPcfHhCmxICvajgFtnldcqRZpEEODXV3MMxAKaHs1bsOCVYpZCHCMZZljBME9EKEgCILgZPoqFARBEATBFUjUoSAIgiAIgiAIvRChIAiCIAiCIAhCL0QoCIIgCIIgCILQCxEKgiAIgiAIgiD0QoSCIAiCIAiCIAi9EKEgCIIgCIIgCEIvRCgIgiAIgiAIgtALEQqCIAiCIAiCIPRChIIgCIIgCIIgCL0QoSAIgiAIgiAIQi9EKAiCIAiCIAiC0AsRCoIgCIIgCIIg9EKEgiAIgiAIgiAIvRChIAiCIAiCIAhCL0QoCIIgCIIgCILQCxEKgiAIgiAIgiD0QoSCIAiCIAiCIAi9EKEgCIIgCIIgCEIvRCgIgiAIgiAIgtALEQqCIAhOJjYqlFLiI3u9QoP8adiwYdpvCYIgCIJ7Mew0o/1dEARBcAJvf7mTCsuqqbOzSzvSzYJpo2j6+FTy9JA1G0EQBMH9EKEgCIIgCIIgCEIvZBlLEARBEARBEIReiFAQBEEQBEEQBKEXIhQEQRAEQRAEQeiFCAVBEARBEARBEHohQkEQBEEQBEEQhF6IUBAEQRAEQRAEoRciFARBEARBEARB6IXUURAEN6S4vIbe+HwHbdx9XDvSTVhwAC2dPY5uuHCudkQQHM9nGw/Qx+v3U0lFjXakm4mjkummi+ZRenKMdkQQBEEYzMiOgiC4IU3NrXTg+Cn6cvOhs15f7zhKx3OLtd8SBOeQV1SpRKrx+Nt9OIdq65u03xIEQRAGOyIUBMENwT5fe0cnNbe2nfVqaW2njs4u7bcEwTl0dHZSa1t7r/HX2tZBXV2yCS0IgjBUEKEgCIIgCIIgCEIvRCgIgiAIgiAIgtALEQqCIAiCIAiCIPRChIIgCIIgCIIgCL0QoSAIgiAIgiAIQi9EKAiCIAiCIAiC0AsRCoIgCIIgCIIg9EKEgiAIgiAIgiAIvRChIAiCIAiCIAhCL0QoCIIgCIIgCILQCxEKgiAIgiAIgiD0QoSCIAiCIAiCIAi9EKEgCIIgCIIgCEIvRCgIgiAIgiAIgtALEQqCYANdXaepo7OT2ju6X23tHd/8vbOri06fPq395uAA19PZ2fXNtba2tfMLf3ao93h18M/RLoPt2gcSPceloV/wd/QN+k/6RhAEQbCHYfwAkSeIIJgBt4fhDoHxVVBWRQXF1VTX2EwNTS3KGPPz9abgAH+KDA+i5LhwigoLJi9PT/Vvhg3Di/9jI1l5pfSrp96n1z7dph3pJiYihG65bCH97sErtSOOx3DN+BPXmV9SRXmFFVTT0ES19c3qmoG/nzeFBPqrcxoeH0nx0WEU6O+rfmbvdQv6MEzb+KO9o4OKymroVHElVdY2UGNzKw3j//n7+XD/+Kl+SYqLUH0F9PTN469+Rf96ZTWdzC/TjnSzdPY4NfZmTBihHREEQRAGMyIUBMEEWKGtqm2kr7Ydog27jtOuQzmUmVeiVmgNhrQxsL08PIZRRGgQjUtPpNkT0+icmWOUURUU4Kf9lj5cIRRwzdV1jbR66yFas+0I7TmSqwxFCAPD9RpPFzA4u1/EYsmPRo+Io9mT0unceRNo3pQMCmBj1dF0dHRRYXm19u4Mnh4eFB0eTL4+XtoR54OdFbRZK4vInsAMR19BRDqDvUfz6PNNB2ndzmN06EQ+C7oW7j+MTe0XNAx94+PlRUmx4TRnSjotmTWOzl84icKCA7Tf6o0IBUEQBAGIUBCEHmA1dufBbHrx/Y3KCKtnA0y517BxCtcOPUAswGj19vJUhmJsVCitZMP5qpWzlBGth/4UCs2tbWx4nqKX+Jq/2Hzwm2tub+92p9ILjFIvz+7rhrEeFxVGFy+ZSrdcupAyUmK13+obEDP5pVU065pHtCNnQNs8+6tbac7kkdoR57P9wEl65In3ac/RXO1IN/7c76/+8V7V357cJo4Abl9vf7mTXnpvEx0+WajGqhqbOl2L1Jj05r7x9qLwkEBatWgy3X/9chqZHNPrHEUoCIIgCEBiFASBaW5po/W7jtMdv3iBbvrx0/TeV7uVO0ddQzO1tLbrFgkAxixW4Zv4M7ErkZlTQi+8t5Fu+OG/6dqHn6RNezJ1GXbOBkbmzsM59O3f/JeufegJevPzHWddsy0iAeCaDNddXddEmbkl9O83vqYL7v0L/eDPr6vPRtv0FfjcV9Y09HpV1TZ84xbVX+D7arm9ep9LY/e5WPbw0QX6ae32o3ThfX/ldnyDtuzPovLqeiUU8B16xxL6E/2K8z1VUkn//Wgzrbrnz/STv72l3Msc0TeCIAjC4EKEgjDkyS2qoL/99wu6/9H/0Kcb9lNxRa0ydh1lzMNAg/GdV1ypPv/2nz9PD8NwLneM4WwPJXyNz72znu7+5Yv07le71Lkg5sKRAgbXXdvQRDmFFWq34rIH/0kfrdtLzWysCtZBX0AQ/OHZj+nuR16kzXtPUFlVndpZ6Gs/Ydxh5yivqJJefH+DErGfbtzPY6BV+w1BEARBIPJ8hNH+LghDChhbiD34O4uE1z/droJBsXprCfjhpyZG0ZgR8fxKUC416ckx3wTydnR09vJX7wlWgOHTnnWqVH33gmmjKCTIX7nt9AQr0ut3wf+8QDvSDb5jytgUWjZnnHbEdo6cLKInXl9Dz729nrLzy6mFDU9z4PsmZCTRnMnptHzueFoyeyydO3cCLZo5hmZNTKPx6QnKxcjDw0OJK1y/KbCSDSN39+Fcbp92GpMWTwF+3YHPtgD7uKa+SbnFGBMU4EtXrphJKQlR2hHngzGzeuthKiw7O2YC7lfXXzCXhidEkodR3+oBuyYnTpXRI0++T298vp0KSqtZeJkXB4g3QJvC1WnB1Ayax6/p41Jp4qgkGpEU/c3YRB8Zg76BcNx9OIe8vDxoRGI0Hc4qpB0Hs9VY7Qk+C2MvISZcOyIIgiAMZiRGQRiSYNhjhfap19fSl1sOKlcZU8B3e2xaAi2aPoomj0mh5NgICg70U7EH8Pk22IDwE0dgK1blYXQdyy6iXUdyad/RU1RRU9/9S0YsmTWW/vO7u1hkhPYSCs6KUdh/7BQ98/Y6en/NHiqtrNWOno2PtyctmjGGlvL5TRyVTFHhQcrQDOAXYhCQ0QntB8MVq9tw28LqNHYl9h3Lo693HFNGpzk3oOS4CBW3cNdVS9S12wJWwrEDNGrVD7UjZ4iNDKHX/3wfLZw+WjvifOBG9sO/vMlG9UntSDcI4v7oie/RAh43GCe2AJFwhMfPY899Qp9t3K9chUyBPpk7ZaQaRxNGJlIMXz+O+frw2OR+Un3UeZraWbjCTQkCC7s72w9k0ZrtRymfRY4xI1gE33HlOVTD9wN2miRGQRAEYWgjQkEYkmC19InXvqJPNxzotWoKEIw7hYXBVStm0tSxKSq9JIx0ZC+ytECM2wmuNfBTL2XBkF1Qrr7rCxYjR08Wab9FSmi89Ns76YLFk8nft3dmIGcIhWM5xfTsW+vUZ2J13xicE3YJrls1h6bytWM1HKleEZytB4iGsqp6yuFr3s6GM+I8cO2mQAaee69ZRjddPJ8SYsK0o9YZ7EIB4wci4a8vfa7aD+lpjcH4Q+aiy5dPp2njUtUOFzJtQcRZAm0HIQtBl80CYAsL5Vc/3ap2K3q6wKUmRlNwgK86bnxviFAQBEEYWojrkTDkOMFG+AvvbqAP1uxRLj49wco+jPGb2YC979pldN6CiTQmLYENsUAlHiyJBIB/D7eT0CB/5Z4B1yS4hIxPT1SfC1cVuH9cce4MuocNZeS5N95NAI52PSqtrKP/friZXv1kKxWzoWgMdg1uumg+ffv65bRi3gRlfOK7TJ2bObDTgOtOjotUblkjh8eqNoMbS09DFCCdZx4b/HHRocpVCDn/9YBljcHsepRbVEn/eX+TEnO4TmPQJ3deeQ7dddU53E8TlSsQxKseMYe+xG5DVHgwpSfH0miMy5FJ6me5hRXf7ADheyEQ4JJkvI4krkeCIAhDCwlmFoYUWFF9f+1u+njdPqqoadCOdgNjK5UNuwduWK7SRsKlA2kk+4KPt5fy+b5g8RT+3HPpkfsvUylDH7hxBYWF9I5NcAZwi0LaU6xQI7uNMVjRh+GJa0bMBIzRvoB2hPCAQfkgX+e91y5VgsEYuLW88O5GVRPAWmzIUADG+Zpth+mNz7abFLAomPbgTSvo2zyOzMW26AV9lBQbQZcunU4P3XI+i+KllBCNWJPuz4NosDXrlSAIgjD4EKEgDCngKvIRiwSkh+wJDK6U+Ei67bJFdCu/MoY7Ju+/AbiFIOj5povm0cO3rqIZ41PVCnx/cOD4Kfpg7R46nluiHTkD3HWuWjGL7rjiHBqVEqcddQwQSSg898D159INF84zeb2IZXhn9U7lojWUwY7LgeP5KkUtXKuMgSvTnVcuVu5a6UkxDhs7EAYIer732mV0/3XLWShH2RxTIQiCIAxe5IkgDBkQZIxV9UOZ+b1cYWIiguniJdPopkvmU1yUbQG2tgDXjzkowtVPxhjcnJCSdMeBbBVD0BMEZcOf/7YrFtFwFknOAEG1cAX6/rfOU4G3cMnpCVauESeydV+W2u0ZqhSVV9NX246oAm7GIHYElZS/c9MKHpsh36z6OxL0/x0sRODWlAJ3KSd8hyAIgjDwEKEgDBng87/9YLbyj++JHxvvSCt5w0XzlDvGYOIgi6INuzKpxCjDEQzBUalxyo8e8RPOBN81mr/ru2zoRof3Do4uKK2i1VsPqZSxQxGIVqSNhXsYshP1BMIK/fTdm1dSYky4U13VIsOCVKD8NefNprhI54llQRAEYeAgQkEYEiB95xebDlJuYW8XlxHJ0XTROVNp6pjh2pHBAdJsfs7XnJlX3CsoNSIkkM5BCtTZY7UjzgUG7qpFk2nZ3PEmszxt3J1Ju1BjwUJNh8EK0uciO9ThrLMD10FosD9de/4ctQvVH0DIQSwgBgJB0oIgCMLQRoSCMCSAn/7hk4VkXHkWRiuMsJULJjp1tdYVIA0mDNCyyrPrOOA6x41MVIZ7fxqDWB2/+6olyrXLeFcBmZhQg6GwrHdGpsEOYhO27T+p6nD0BDEeyB6FbFT9CWJpZk5Mo6iwIO2IIAiCMFQRoSAMCdZuP0rFJozQlMRImjclQ2V8GWxs3pupgraNs9cE+vvQlNHDXZILf+bEEao+haldBbjfHGExN5RAjMaBzHyTuwlwBbpoyVSbi9I5Aog6xJcIgiAIQxt5EgiDHuSD33U4p1c6VGwgTBqVrIJsBxtwNereTehdWC0tOVaJhL6mQbUHBHFfdM4Uk2lnM3NLVI0LpHMdKiDAHtdtKlUvdl4uYaEgCIIgCK5ChIIw6EGQLFxajHP1w1BGoOjI5BjtyOAB2Y5Q6KymrnfRrvSkaJo82nXxGItnjqHw0MBerl61Dc2UU1hOZVVnB14PZjA2TaWGRTrUsWndResEQRAEwVWIUBAGPQcyC6iusVl7d4aUhGjKGB5HXkYpOwcDKGaGol3Gbke41uHxES41QJPjIlS+fqT9NCa/uJIKSs6ucjyYyTpVpipUGxMVFkzzpg6+nS5BEARhYCFCQRj0ZJ0qoUYTOfphMKcmRmnvBhdw4TEO3AZR4cGUHB9lslJyfzJ5dBIFB/R2fSour6WisqEhFOAelldUrtLDGhMaEqAKoQmCIAiCKxGhIAx6sLoOVxxj4AMePwiDmEFOAV+zUU5+EBMR4hY58jNS4inARIxEWVUdlZqIqxiMIGUvdn2Msx2B4AA/GpUar70TBEEQBNcgQkEY9MDwNGWMRYWHKMN5MKKuub13TYLI0ECKiQzW3rkOVP/19+ud+aiuoVm9hgIQRdV1jdq7M6B6d1R4EIUG+WtHBEEQBME1iFAQBjVIP4lVW+NAZmTfCQrwValCByOVNQ2mV6oD/SgkKEB75zpiIoLJx6u3+xNW2etNxJMMRsqr6qm2vve1+vt6c/tIZWRBEATB9YhQEAY1DU0t1NHZqb07AzIeQSQMtiJrBpBBCCLJGFw3BJKriQgLUgXFjEHwNdzEkNJ2sNPc2kZtJvoIQd6ooSAIgiAIrkaEgjCoaWaDs6vrtPbuDH5+3uTn0zvrzmABOyimrtvL01O9XA1EgnF1ZgM4beNsTYMRjE1TgsjL00MJOkEQBEFwNSIUhEGNOYPZw8NDvQYrreq6exvbPt6eLs94BAJ8fc1W/m3nczd2FRuMtLa1U6eJ3S6PYcNUZWRBEARBcDUiFIRBDWIRTHkXDVaXIwNYlTYlhLpOn1YvV9PeYVrIAOw0mBMRgwmkR8WrFzw23aGPBEEQBEGEgjCoweq5KYO5o73DZOzCYMHXjGtPZ2cXdZjwi+9vED9hzhbGarqpQGd3BIZ+12n73KTgAgYha4xZASEIgiAI/YwIBWFQ4+/rY9JgbmlrN5kVaLDg7+dr0giFT7w7BAo3NreajUPwZpFgKtDZHYHwstdNCoLI04SLUUdHl2ofQRAEQXA1IhSEQQ1y9ZtaXW9uaVfZdUzFLwwGQgL9lPuRMTBAG9zACK2ubzKZlQk7QP5+3ibFnTuCa2hq7l3MTw8IWDYVUI/6F6bSpvYnEECyqyEIgiCIUBAGNTCWo5Gz32iFGm5HtXWNKm//YARVp5Fm0xikTa0xUeSrvyktrzW5o4MiYyEDqNAYUpyaKpqmh9BgfwowUXQOOz4V1fXaO9fQ1jG4XfMEQRAEfYhQEAY9CdFhJlduK2oaVHXcwUhSXAQbob1TbKIQW1mla41QkFdcSS0tvVfiI8KCKTLUvhoCbe2d/bpDhN0ECK/a+ibtiG2EBQeqAnjGwC2uvLpO7Xi5ioamVtWegiAIwtBGhIIw6BmeEKXcWYwprqilorJq7d3gIiUe19x7tRrCqJCv2dVuJZm5xaoYnjFRYUFqB8gcSFZlyqUKwK3KlDuTs4BAKCqroY5O+4KZo8KDKDwksJebFcQOBEh+SZV2pP+pqKo32T+CIAjC0EKEgjDoGTsinoICeruz5BVWUA6/BiNpydEmKzDDTSa/pFIZoq4ChvWhrEKTsRLx0WEUxy9zIK0tXKpMpU9FUDHEgr2Gu62UVtbRibxS7Z3tBAX4KVEU5N97V6Ge++fIyULtXf+CNiytqnXpjoYgCILgHohQEAY9EzKSlD+4ce0ErKyfyCsZlAZRclykMrqNi6thtfpUcaW6bleB788uKOuVfQlZmobHR1BSbLh2xDRIKxrMRrYpyqvrqamfgrWxG3XoRIH2zj6SYiNYGIVq785QXddEuw7laO/6l6xTZVRR3TBoA/0FQRAE/YhQEAY9KQlRlBgTrqoS9wQrp8dyil1qNDsLXOvk0cNN+vtn5ZXSniN5LnM/WrPtCNWZyOoTGRZEIxKjrcYowFUH/WmqaF5uYTnV9UOAOsQlDOpjOUXaEftIT45RbmLGYOdnx8Fsqm2wL/6hL+w4eJJKKmq1d4IgCMJQRoSCMOhBvvpZE9MoOry37zvcO7buP2k2p/9AZt6UkRQb1Xu1Or+0ioVCLtXYGYTbF5Al6LON+01+97j0RBqVGmdSAPQEOw/pKbEqXsGYo9nFVFXToL1zHjksSHYdzlFBv30BLmIQC8auVIi1wM7Llr1Z2pH+AQJo+4FsKq0UoSAIgiCIUBCGCOfMHEMJJlahswvKadPu4yoodbAxc8IISkuK7pUaFi4/BzILaNOezH7fVdh9OFe51Bi7eyFAedq4FBo9Il47Yh4Y1RNGJtAw/p8x+4+fUkauM91mYMTvPZKn2q+vYGdkTFo8RYQEakfOADeqt77Y0a+FASEg9x7NG7RpgwVBEATbEKEgDAmmjEmhkcNje9UWQGEprAx/sHZPv2bM6Q9CgwNo0YzRyu/fGOykfPT1Pqpr7L+gZgiUJ19fY3I3ATEV08amqlS21sAO0eyJI00WZcstrFC7Cs68LuwmbNh1nE7ml2lH7AfCdcLIRJo0Olk7coa6hmZat/MYi6v+iVVoZvH26idb1U6GJaQQmyAIwtBBhIIwJEBQ77lzJ1BaYrR25Awn88vpw6/30OGswkFnBK1aOJnGpiX2cm1BfMbWA1l83XuVWHI2WOFfu+MIfbHpYK/dBBj8y+aMoyljh1t1OwLYfZg9OV0VKzP1+2u2H1FxJ87oS4idLzYdos82HdCOmEevO9uUsSk0e1K6ybSv5VX19KcXP+sV+O1o0D9fbT1Ca7cdsVhADm0qOkEQBGHoIEJBGDJcsHgyjc9IVCvSPYHxA7/sv7/8BdWYCLIdyIxIiqals8dSSnykduQMx3OK6aX3N1HWqVKnCiR8NtxovveHV6jeRG5+7CKcO28CjUqJ045YBuIgLDiAFs8c06svwVdbD9Guw7nU7GDjGtexlkXI21/uoOLyblc1nIupnQ00J9x39LQrrmXWhDSaPGa4duQMiOnYsOsYPffOeqe6UxWUVtEfnv9YFcKzBHbdcE6CIAjC0ECEgjBkiAgNpMuWzaAJI5O0I2fACvvnmw/SI0++59TVWxiO/e3/fe35c2jBtFHkZWRUw/DcceAk/eyfb1NVrflV5L6A64Wr0U0/fppyCytNGru3XLqQ5k4x7UpkDg820G+4cF6v9K8APv1wodm6z7GBwAeO59OL722krfvPfO7I4TF0/sLJ2jv7mc/9c9E5U1WgtjHI4vTrp96njXuOO2X3p76xmb792/+q6zO436FdkYZWEARBGNqIUBCGFBcsnkTnzp+gRIMxlTX19OZn2+n7f3rN4RmBYDBX1jTQn178lKZd+XOVlrU/XH4AKgBff8FcWjB1lHbkDC1sVK/ddlQZio5OiYnF9KLyGrrjFy/Qxt1s5JpwxTl37nhatWgyxUX2zs5kCYiKC/jfIWOQKZednQdzlFhAYTdHgCDfR5/+gD7duP8bsZMxPJaN+yl8Dr3d2U7z/1DUTseGgiIs2J+WzBqjXLCMMYitb/3kWRUb4chYmgoe8zf/f3v3HltlfcYB/IHS+/1OL9CWCuVWh7QFLLcVuRnZCMhlRrfpnJHMTeP+mLtGXczIlszNLHEBHNEB2RwMmesY4Ia0jA0o1gokLdUWerE3eqcUCtTs9316Xvdy3nNKj5TMtN+PIWApp/2d9xWf7+/yvD/YKkUlFeZeGAjI2M21ceVcjysceKjdSHzuCBEReeb3guH6NdGI5z9unEwYHyONrZ1SUd3omOFGsYTnDJScPa89/fG5twNFXqsJCChan/vlm3omAA+z6uzuleXzsx0diSyY4S86VeF4oFdocKDuafdUUHqD7TEpiTFavFbVNuvXt7tmCk8cYMWYM1PNmD1sU/IVDsYee79Sntm8U4pNSECB6W5y2nj5yabVMu8Ld4m/2zMuhgIrJDicXvxepX49u0/M+15V1yy9V65JhinkE2IiXL/jG4Sbv/yzVF7a8rYp0is/LaZxPgIrAF9bvUCqa1scHZDwvSEAZU+Z4HGVwB2uEZ7SHBjgr9cBB5ntEDh6rlyVd0+W6xOd0UbW02rKUCFsHDlZIY//+He67Q7btHCvwv0L75aN98/Ve8X9ydMpidGyKCdLrx0REY18DAo06qAbUFJ8pDS3dstHpph01UcKv+4zRW19U4e8WzJQqEdFhEhyfLRPW2N6eq9KaXmNbN9bLJtfK5R9pthEK1bMxqKIReecxXlZuj/f/aAxDGdQAMy6pyfH6XTxuQtNjkIUhWPDxQ6dsUbnoInjYyUmMkwLWF9g21bZuTr51e8PyMtvHNCVE0/tPRFGfvrttbJk7nQtfD8rhLmyiloNOu4z7deu92tnIowXgQKdlbwFM0/QGeoX2/fL1j1H9NfWljS8J3j/n35kmRbOpyvrdEbeDkFhcW6W5MzIGFJQAJy3iIsK0+/xxOkqx3hwb2LbGrognfmwznxuuCTERng8p+FNnwk6ZeW1snlbofx6x0E99G0PcZMmJMgPn1ilHagOnyiX8uqbHyiHr3evCXbTMpNdHyEiopGMQYFGHRT8cdHhkpoYIx2mIEcxac2mWm7090tHd49U1bZoEfi34jJTLDZIU2unrgZgphqHOntN8djacUlqG9q0YMRTh3f+9Zi8+sfDsrPw3/Kv9yql2rw+CnP76gWKM4QBrCqg+Hc33EEBUCxnpCZIcGCAjhnjsLvR/4l2vKk0hfWhY2d0Lz4OIV+/cUMCAvx1BnusW9GLcTS1delzBfYdLtX2pyisj5s/29japa/pDgesX3r6QVlhxo6DvL6GETvMwKO4xXkErNwghNkhpDS0dOhWpJKz1br9y89cf4QT9xl5BAEEG3RNemXHIdmy+4geJG5s6bypaM+/Z7I89dB9smB2lt4nZ0wwQlFt5+fnJ7kz0mW++VxPQdAbrFQkmfCIYIeVBU9nOvCQt5qGVt3OhXFbW8aCzHXVa2R7P7EigjEjTGE16ze73pHX9hTJcRNE9HkTtvcLqy4vPLVGlufPlPDQIPn70dNy9qOb7z+Ex9yZGfrUbyIiGvnGmALJ+X8iolEAB5hLTYG7zRS2b/3j1KBdcjBrGx0RKhFhwRISbAoyf3/dLoOSDMUYCkkUmggQ6OGPmV9P220seK3vPf6APLn+i/qa7rD96cXf7pM/7D/u+sgAFHOPrlkoP3tmnesjvsF/7s1t3bK/+AMz7iItnr0JCwk0gSpC98+jsMa/42drBhvjxcrJ5avX9GcEDwQc/NobFM7f/fpK7VgUacZ9OyHBgve5sOgDefHVt7ye/cDXQRGO9y8mylzH0GB93xG88J5cNtcNh3rRlanr0hVpNsU3tvrYC3W8Br7/b33lPlmxIFu/f5wd2FX4H91iZYdVgU0bCmTzsxt83iKEewnh8vV9RzVw4j71Bt9/bFSYnrkJx5hMgR9qrhNWMfA6+LO4FzEuhGKEBk+vhxWe75v7cc3SHIk31xzvyRPPb5cdJvTa3wM8i+Q7Dy/ToERERCMfgwKNalgVqDzfJLsPlcibB07I+fqLrt+5M4IC/LUV6EMPzJP8WZMlKS7S44zznQoKFhT0mPX/08GT8vbhUu2scytYiUFIsGas+00BiRl1T7PediiwUcA+8qV8Wb9ijsyeni7Bgf7DEhIsKIYLi8rklR0H9anTg4U0wNfGrD3Gg78BsWriafXDgtWYpfNmyDfWLpKFOVM06AHORvz5nVPy6I+26b9b8LobVs6RLc8/pn/WVyjyaxraZK8JsFt3H5ELHw/tvkSnonHjxmqAxWoBxnSrQ/PoOIXwg/sST4i2ttg9+/Ndsn3v0ZuCBc7sbNq4RJ4zoYKIiEY+bj2iUQ0FHboC4XDopNQEnQnGbPJwdnZBUYotNtgutGljgTy86l5TbGbpLLC3cw93YuuRXXBQgKSaom9aRrKkp8Trqgi2sNi32LhDQY2iE8WnFqDmzww2zYAcgHGvXHC37udftzxPsidP0Bn24QwJgNdMS47VcxgICS1t3be8hgg4GK+GnUEGghaoX/3yfPnmg4v1wWg442LBzP2FhlbZY4Km/SXGjhmr5xfWrcj7dAXGF3hdrFjgvpySlqjvF7YbDXZ9wAoHVkDwNg+E+y4lIUYeM6HzyQ0FelYEX89+P544U60tU+1BIci8zzigXTBnmusjREQ0kjEo0KiHffco/tBqc2pGkhZnOFSKbkCd3ZcHLSK9QWGHwgtFFdp4Dsym58my/GxT0MZ5bOlph60wlTVN2mITB0itHxOTYiVvZoYWrLcLBSw67WSZMWelD4wb7wO2YHXdRntYbPGZOilJu+egK9B6ExAQbLAa4i0YDQecV0BYwPYYbKXB+DCOzxL6sMqD92P1ktkaEtYuzZVpmSm6EmKH69ze2aNtWKNN8LOuU2JspAme8bJq8SzH8yuGCu8VtnthPPiB9zQ8JMi11avP5/sS3yu2jmVPSZXVBbN1dWTtshw9b+ApvNU3tesZFYRKa1xJ8dH6+fmz7nJ9FhERjWTcekTkBnvvcdgXnW4+rG2RmoaLUt/cobPUmOnvvdKnbTIxa4vSCgUpiinsecd+8fFxkXpQOj0lTsMHCk505/FlZhmFYLn5+nXN7a6PDMDWpTTzujNM0Tqc8NcAwsm5C43aNraqvkUPaOOJvRfbL+lefIwbW7V03Kao1HGbwhnFJ7biJJpCEp2FJppiHc8YQADBbLwvnYaGC75fXL/3y2vk3PkmvZ4YC/bo4wxC3/XruqKAcaBIxgFvnF3AtUtJiNbCfHpmstwzNU2D3WDbh1rau+Xk6WoTLP+33WmM+QfdshblZg2569GtYKUEh4txqB4HztGd6uOWDi3mO819iYCHz8G1xHuOcYWaaxMbGWZCWrhem0xzPXBNppv7B0HGPRzYoUsXtsDhrIYFW5vwlG9Pz1ggIqKRh0GBaBDomoNiDEUmuht1dPfqVgx8HPvascUEqwMaFEJNUWaCQkJspCQnROkM+q1WDj6vEJbQchQdg9BNSDs9mZCAPfkDQcEVkEyBjVnvgaAwMG78jCL18wCFMw5vY48/rmNb52Xp6unV64e/+lAoo6jWoBAZokEBrXDRmQnjGqyQ/n/Cgfm6pnZpMAFWr48JRrg2aAmL52VoUDA/rMPO6PKFAJSaGO1TFyYiIhrdGBSIiIiIiMiBU0tEREREROTAoEBERERERA4MCkRERERE5MCgQEREREREDgwKRERERETkwKBAREREREQODApEREREROTAoEBERERERA4MCkRERERE5MCgQEREREREDgwKRERERETkwKBAREREREQODApEREREROTAoEBERERERA4MCkRERERE5MCgQEREREREDgwKRERERETkwKBAREREREQODApEREREROTAoEBERERERG5E/gvmPi1UrJck2wAAAABJRU5ErkJggg==;imageBorder=default;" vertex="1" parent="1">
          <mxGeometry x="732.86" y="590.13" width="218.28" height="89.5" as="geometry" />
        </mxCell>
        <mxCell id="JYqklVS4Vy_PoH1S0MUS-32" value="&lt;font style=&quot;font-size: 17px;&quot;&gt;Legenda&lt;/font&gt;" style="swimlane;whiteSpace=wrap;html=1;fontSize=15;fontStyle=1" vertex="1" parent="1">
          <mxGeometry x="960" y="170" width="290" height="240" as="geometry" />
        </mxCell>
        <mxCell id="JYqklVS4Vy_PoH1S0MUS-33" value="" style="endArrow=none;html=1;rounded=0;strokeColor=#6c8ebf;strokeWidth=4;align=center;verticalAlign=middle;fontFamily=Helvetica;fontSize=11;fontColor=default;labelBackgroundColor=default;startArrow=none;startFill=0;fillColor=#dae8fc;endFill=0;" edge="1" parent="JYqklVS4Vy_PoH1S0MUS-32">
          <mxGeometry width="50" height="50" relative="1" as="geometry">
            <mxPoint x="20" y="54.67" as="sourcePoint" />
            <mxPoint x="90" y="54.67" as="targetPoint" />
          </mxGeometry>
        </mxCell>
        <mxCell id="JYqklVS4Vy_PoH1S0MUS-34" value="Dati" style="text;html=1;align=left;verticalAlign=middle;whiteSpace=wrap;rounded=0;fontSize=20;fontStyle=1" vertex="1" parent="JYqklVS4Vy_PoH1S0MUS-32">
          <mxGeometry x="95" y="40" width="60" height="30" as="geometry" />
        </mxCell>
        <mxCell id="JYqklVS4Vy_PoH1S0MUS-35" value="" style="endArrow=none;html=1;rounded=0;strokeColor=#82b366;strokeWidth=4;align=center;verticalAlign=middle;fontFamily=Helvetica;fontSize=15;fontColor=default;labelBackgroundColor=default;startArrow=none;startFill=0;fillColor=#d5e8d4;endFill=0;fontStyle=1;" edge="1" parent="JYqklVS4Vy_PoH1S0MUS-32">
          <mxGeometry width="50" height="50" relative="1" as="geometry">
            <mxPoint x="20" y="94.17" as="sourcePoint" />
            <mxPoint x="90" y="94.17" as="targetPoint" />
          </mxGeometry>
        </mxCell>
        <mxCell id="JYqklVS4Vy_PoH1S0MUS-36" value="Interazione utenti" style="text;html=1;align=left;verticalAlign=middle;whiteSpace=wrap;rounded=0;fontSize=20;fontStyle=1" vertex="1" parent="JYqklVS4Vy_PoH1S0MUS-32">
          <mxGeometry x="95" y="80" width="185" height="30" as="geometry" />
        </mxCell>
        <mxCell id="JYqklVS4Vy_PoH1S0MUS-37" value="" style="html=1;verticalLabelPosition=bottom;align=center;labelBackgroundColor=#ffffff;verticalAlign=top;strokeWidth=2;strokeColor=#0080F0;shadow=0;dashed=0;shape=mxgraph.ios7.icons.smartphone;" vertex="1" parent="JYqklVS4Vy_PoH1S0MUS-32">
          <mxGeometry x="50" y="120" width="17.14" height="40" as="geometry" />
        </mxCell>
        <mxCell id="JYqklVS4Vy_PoH1S0MUS-38" value="Smartphone" style="text;html=1;align=left;verticalAlign=middle;whiteSpace=wrap;rounded=0;fontSize=20;fontStyle=1" vertex="1" parent="JYqklVS4Vy_PoH1S0MUS-32">
          <mxGeometry x="95" y="125" width="185" height="30" as="geometry" />
        </mxCell>
        <mxCell id="JYqklVS4Vy_PoH1S0MUS-39" value="" style="pointerEvents=1;shadow=0;dashed=0;html=1;strokeColor=none;fillColor=#4495D1;labelPosition=center;verticalLabelPosition=bottom;verticalAlign=top;align=center;outlineConnect=0;shape=mxgraph.veeam.laptop;" vertex="1" parent="JYqklVS4Vy_PoH1S0MUS-32">
          <mxGeometry x="33.569999999999936" y="180" width="50" height="40" as="geometry" />
        </mxCell>
        <mxCell id="JYqklVS4Vy_PoH1S0MUS-40" value="Personal computer" style="text;html=1;align=left;verticalAlign=middle;whiteSpace=wrap;rounded=0;fontSize=20;fontStyle=1" vertex="1" parent="JYqklVS4Vy_PoH1S0MUS-32">
          <mxGeometry x="95" y="185" width="185" height="30" as="geometry" />
        </mxCell>
        <mxCell id="JYqklVS4Vy_PoH1S0MUS-41" value="" style="shape=image;verticalLabelPosition=bottom;labelBackgroundColor=default;verticalAlign=top;aspect=fixed;imageAspect=0;image=data:image/png,iVBORw0KGgoAAAANSUhEUgAAAWgAAABSCAYAAAB5c06qAAAAAXNSR0IArs4c6QAAAARnQU1BAACxjwv8YQUAAAAJcEhZcwAADsMAAA7DAcdvqGQAADb5SURBVHhe7Z0JnBxVtf/vudUzk30HWWTVB4Ynz4fgEkhgpnsWooCKBAEFEUwCKD4hCYKiRgFlSUA2JRM28b2nAurDPAizdM9AgIgQQFFRFEHRyAOSkG2Smemq8/+dquqequ6q6uqeSQj+6/v51HTdqpra69xzzz3nXFJvMplM5sAUWYdarA8mZR2EEzrYUjQFq8YSqQmKMSk1iOVbWKlNShEm6xVS9Aes+z2WPV83MPD0/Y88ssHeYUJCQsI/CTtdQLe0tOxFltWC2TQEbRNOYR9nTRmQ02ojhPBmzNdjGotpvKwIwML0DLbPsck9g8y53t7e7c6qhISEhLcmO0VAH3/88WO29/WdSMSnQ+BmsMhw1igTZ/CkYlqjiH/PlvpDnVJ/2LBt26urV6/e5m7jo7m5eaLW+X3IooMdrZunK8VH4VIOcDcRRLDfbWl9V3d396MoQ9FOSEhIeGuxQwV0a2vrPiqfX4SjnIliQfv9G8r3Qihnjfr6h1euXLnJXT4sjm1s3N9KURqiuBWXdQIWjXbWqBdwvKUDeeuORKtOSEh4K7FDBHRbY+M72aCLsfvTURTzxFYm9VPNdNeMWbNyixcvFpPEDmP27NkTzMHtJymLzsAVHo1FuE76B9ToJWQYyzo7O7c6WyYkJCTsuoyogBZTRv+2rRdBi4VwVg2YNkEofk+n6q7u6OhYb28Uk8bGxnFQgSeZ9WqSYRoWm2afkc9v3JpKbYYmnHc3q0hra+O72dIXEavTUBTTyloivqSju+cue4OEhISEXZQRE9CtmcxHleLrMbsvpk3Y87dHbeu/+eePPiqdfIFAk9arH3pouqX1YcT8XiY+jBQdglXixZGyNypnENNL2P8f8T+/x+9jrOtWQSt+1VkdzLFNTQdDq/86szoFRcJxOpRpfr6jt/dPzhYJCQkJuxbDFtAzZswYPX706Ouxp7nuov9VRuo8CMyX3bKPOXPmGJvWrz9aKevjrPSJEOp7uquGBTT130FL/imE9o86enp+6y4uozWdFpPHzTjfd+N3Oyu6uCublYolISEhYZdiWAK6ubn5UM3WjzE7HQLyL0rz2V1dPVlnrR/bvY7NCyBJz0Bxd2fpDuNZiOybNvdt/0GQN8jhhx9eN3XShIW4/G+gWMekfjCYt87r7e3d4myRkJCQ8OZTs4Bua246mZnuxOxo7OY+SqXOCrIzz06n32ESL8I24skhdumdyauk6OZ+07w2SPi2NjV9gDX9GDdhPxSf06b1oQd7e19y1iYkJCS8udQkoFsymc+R4hswaxGrRR25nJgIfL7G4kmRH+y/AuvPRbHg9/wmQf/An68eOWvWHaUeJB+eOXNyflT9ncxKXPPWakWzH8xmf+2sTUhISHjzqFpAt6XTX2JSV2K2XxOf9mB3z0+dNUO4HYY3YvbtzpJdA9QgT5BhndHZ2ft7d1EBass0LWFFF2L+DWz4kc5c7mFnVUJCQsKbQ1UCui2T+SYr/ipm37BIH9/d3f2Is8bB9j8e6L8Nsyc5S3ZJtkGrvwha/82Y92n9nspnG66vtfT6EhISEnYmsQW0a9a4Cf+xQTM1lpoBHFuzug+z/+os2eW5t2HM2E+vWLGizy3bQEh/EUL6OsyuMxQdvTKb/Z2zJiEhIWHnEktAux2CP8Tsdra4taunR/JbFHFd1+7F3nZzlrxVoGeUYZxQ6hLYlmm6ghV9GQr2y4bJR67s7f2buyohISFhp6Hd31DsSDymOzDLzOpTpcIZwvvjEMzZt5BwNhWr5VrR+wdMc0aQv3ZHtudS1Fy3QoDvkzf0T+fMmSPh6gkJCQk7lUjvitbW1rHK5C7M7kWsFnTmcuJWVwTC+cMQ3ndjts5ZssuzlRQdh+u4/k8vvrj2pZdeCg0Z32e//VYampogqGf0920b98KLL3a4qxISEhJ2CtEatGl+F3+no7l/v+tKV6Q1nU5DON+L2beMdokWwNyObLbbLUYi+T4M0zoNAvp1tA6+2JJOf8xdlZCQkLBTCBXQjkDiM8QOayn1aSwqejzMzmQOgdCSDsFRzpK3BKu7cjmxo8dGbM8Q6hL5yERqeWNj4zRnTUJCQsKOJ1BAi2kDAuk7Ms9afSabza6zVwAIqVGm4v/G7DhnyVsEUj9w56qiM5dbibuwHLNT6w263FmakJCQsOMJFNBs5sXXeV8I6R+W5taoNwzxH36PU3rroJmecWerpq5/8BL8vAopP7e5ufGDztKEhISEHUuZm52TbF+L7+82Sg2+q6NjlYRJ29ijlhjGJUw8mpi2KWaTSQZy5X4IQPEn3spEm9myNmitNxCRYbG1FMvfa+/AhZ3Mc+czcz9pPZmYJ0NTH0eWmoB1o7DP0VrxOFa6TinLgHg1WTH2p/LYZrNFtB0nvkWTtYFZb8Dx+pTWZ2HP89xDlIHjfaAjl/ulW6yalnT6TBz/Dtyxxzu7c4mQTkhI2OGUC+hMejmE5Gch0C6GQLvKXVwzLZnMp0ixz7zAis7pymaXucURobGxcVK9oSNG9qZTOrNZybxXK9SaST+B38Mt4mO7u3sSr46EhIQdis/EMbux8e0QztIptr6hv188OIaF+A9DOH/YLQ7BnJaUn25pRKhP0YnubBiHu7+1In7gV8gMWgtft5ckJCQk7EB8GnRrOn0DlpyP6Rtoxi92F8fm2OamEy0m0Zh3Y6Zp2I8kSwrrTOyDKv1XbPMqBN8rRHQrNFzxua6IhJVbWl2G/3sbirthP3tgP5UCZdZOnDJ133vuucd0yxVpbWo6vLOn5ynMFjxYCPfo1zjWu1lzY1dXz0Pu8iEWL06pLXutdEvDgO9VS+ZHtzIWtJ+Dc/k4qo7z1dL5pQmg/CxsvwV/3+EUqkQbJ6qrzw4dGSdh+LSl0+cw8cfdYk2QbQq03sADW0fMz+K9WD1h2rTfVPPOJ+xaFDVoOyjFGX17Kxl1kkq0aiyL8HKoj7GimdjXuzAf5ekxxt3maCJ1MgSSjGMYj4YGcX+bjbk0pkOxnzhRjHu9sW5dJS3bBxPt25JOt7hFgUnzt2UGWvTn7CWlrN1TKr29senB+JXza65yOkIRH4gqYQzmoyH+Iv42K9KfcBZEggoT+1VqFqag45ZOjZj+BdPeatvWMlNYwghDNBZ/8HzovZhw/6ufWHEbfvEu8HlM6nus6ZmN69e/LKkL7BH2E95yFD+8IVsxf78z2yOC2kbyJd//yCMRtt0hZDirjevX/R2zotlWi6WM1P5hQ2WV0pppuhOnL/7Z1fBnaNHToVEMuOVI2jKZJsne15nNiaC1EbMNrnEtZscOmNaevb29UikFs3jZGLVZfwiC8TKUpDIKh9XtkPrfUtfMf8FdEs2Ft7xHae14prD6rVo6T4bwqsycuw213/r3K2UsxT/OcJd6eQD39Ro1buJjavHJse5TwsginfGmoc/Bx7kIxdBYhSrpw3t46cTJ025INOq3DsWHD+Estmfxe/Z16A2Oql8gQ1u5xUjsB8+qLD90TLSy8p905yvClpIQ82o58I3162UAgXgwb8TfJhl5xVlgXyOEFksE5ah6g6D5R7B4fp9aOvdeNY4Pxw3+hbs0iDUQsGfHFs4CeY5N6l/VRcunu6Vo7jnZVEvOWa1U/qMoyQC8Xq5SS+Z9WC2Z25sI5zcPGdWnK5u7GAI1tFVJrM6o6x+Y4p1YGwehZdkG7fkmbFI61NsYtP+uhXLxo8bGxrABmRN2MWwBLeMF4gdaIr981FHH9MgyQTRiCKkzDDY/5S6qiNa6FsFpg5frdHe2Ius3bRJ7ddkQW5VARXRZOp3e2y1GQkTOEF22C98QqBzcSozi3RcR1JrFDOFLbVqE6Gl3Lj5Ec9w5B8uqLgf3knNfxc3w3r9HIJjF3zthF2EgzzdCi37dLfogzVulZeudurq6/tiVy3V2defOR2v0X8Wd1d3cy0l1Kd3uzifs4tgCmixL7KwQxnSvd0ioTRtePxZr92FFn7SFdQzGT568Cj+vOKXqwMt4iHTMucVI1qxZMwhNQcLNq2U81Ier3flITObx8guhfqJX6+jq6XkMP5KC9Ei0LibaCytx1fy/Qqh+zy2VwNWFkC9aJn7lYh/2QNUJ6PNvaEBrZ4pbAtZF2EehMzRhF6C3t1dGnfdlj4xLZ2fnizo12IzZYhRwATzlz7Sk061uMWEXpmDicGysRDn718VSVOhV3nvT+vVN7nwkYuaA4BQTQG0YMbVSoJ1MetVD6tQ4FQE0aFuAQWpNazAM6VwrgEX2vTK0ZUku7HhY1q34Wy4EmatzAeRA08q/qQvbD3LnK9NQL0K+4Or4a8fskbCrAaWl5vExnSAz/qZb9EFaBS5P2LWwOwlbM+m/4Gcvo75h6sqVKzfJMqE10/RXbOL2/tJdndlsrE45O4E/qXIXtHi8OmBae0s2ObccivhST500USIdpzpLqmJFZzYnA8WG0pJp+iopcl9k+i6uv+i5UYwsZHVdZy4nYxnGY2G7tDBmOgUv9B61ZG68j3HRshcgpMUjww/TV9TSud9yS9EsXH45/uErToHPV0vmi90yPovvGKU251FpcTOetZyL4/JItl37FVQ6/4ca7lcqzx3quvnPyr8kVE9bOv15KDwyvqcPTfzxoPFAS3EDuMRMUtoC5hSrAx7I5eTb//8WyS1UbxjHYRYKKB+A73Aymhjr8f6+jLvcaxGt7O7ulr4oeRan41ksRgvk1GqikltaGo9QFs2GLDlMXJAtpfKYfwXH+SW0zJWFMVJPOOqo8dtHNTyBc/g5ZA1atJjLZDIHGoqlc+qXEFjFzrDW1sZ3KVM/5xaFrRCce0BwbnHLoSxevFg/tuphCHdxN6setvjDXT09D7jFSAqRj26xGthU9K5sNvu8Wy4DFZfYmgsa/R9wf4qeGM3NzftqtvBy0zO4mYe5iyuzqP1MCHUZAMEPq6+rpfMqazUX3YKHrSWiMQB+GoLWF1YfysJ2ebZyPdtUvm4v9Z3PhHujeBHvEaJLMB2PUmVXQIe/4dxuUynzenXleZU9gha2P4+Xt/qR4JlEuZCP6XXMP6UMa7V6cfLDdsdoJRYsP0lpq7bIWSa5Jkz2rwjD5/F2PaXGT/nFcDtb25qbTmOm/3KLReIKaAHv8a/w829OyYsTXduaydyMizjWXVgN0hEp9xsT/YaZn2CtOwsCLYxjM5kZluL/dIsjj5H6t87Ozq1uKQyCAno+fkRJ2d1ZFAjeKbpZGcYVyjR7cZ+OwLd6TJxBpSHQ3+tWrkc6SwLBJtSJ1vUCS+tGCPCboDXf2ZHNfUZW6hRZtocGVvg/ekuXmjTGNmgdKyeyY8emn7jFqkHzy/YoiYPF6h53tlrIYLZvQhi4Ud7xFf8FtW3RrxsvoVRAr+L+To9rn7chQ+7LdqfgQcccaNeK8nmmw9QFt77TLYQjQnbI7e/+WMJ50bJ3oHK5T2n9NISznINXOIuwvxdCtR3rZCSaB3Hz/s9ZZfN2LPu6yqdegub+Tdv+HQXzU3ht/wCtQ+P3wNiTUv+O6RhMH8e5XIH/z6n93viLWtB+qa3xR0Ei1PUa7OcfmHbz7bfS5ESpNuPE52A6F9N1eIkfUlveWIfK5ocQ/l5f+qpg1iPgTcPiFloGFBtbgcJ7/mf8oPVmV3D7YZJrijPJ9yHCZzb2tggtyruhtPyjpTl914fSadlPIJZhbsa2a1ixfEOTMAXtu+bJsqzIFvXs2bMb2prT/4PrlRz3Q8KZlWiyKyAwJY2DnJswASsuUWYeyhiEc0zEbRmSV8yGQ8KZ1Wu4Zgh5ug/Tk1giigMUcm5jTWsgg8sUBG2xloAKvGf4ILwwlfnV4oCxvSzQNKhVcAL6iDTN3EIkg5YltmAIyhogCtUapPMPL7BX69B1RKVZ/OSeNaxfvz70ZSzDicjz2fptWB2qFiyL9pWWJ8AVBHnKrCzovS56KkYFt7D9ZBwaQlOJScg2i4E8zuc7KB6olsw7BNMcdc38+eqauXPVkrmz1di1e6EpJMLSm7NEXvavqoZRj0ZWJEvnn4L9fQgtigPQBJT+kUBPBpyJmE7kpS5MYqbBB2C/+AX2xnaXqS2Dz0a6Iopr4ZK5J+O4M5W55W241oiOZFv78xyXbsAk91E69Lyam1Top+AT7EQl8bi6cHnVSbbYsoYvoImKHf9eCNJffjuy2aVoHX5MWoKGae2PRWKGC2I7vomrChPukQyuLP1NXo15NCTO6WjD/w7af6CihSb9bzq6cyd3ZXua1r2xcQ9WJAFX2GUgK7zHdI8r3i13suPSK5G+pe6ikQI6P9i/HP/rNW8+Bk3vCGjF08XsiftxLH73wzJ5XoV7EduM2pbJNONDldGnCoOZiBb+2YlTp75drhn3+aOY3icWCft67G9JidIyVjb2AjU/cxvuzVniPykuOu5yaRaJECnVolH5WfvFHERVkgu9hN99nWK10GdxETi3yuAaluEaQjPZRcBoDu2B5lCZgG9pajqBtNR0Q+DFO78jlyvaalvT6XZ8/HOxlw85eaNjsqj9LPxPwLXxpWrJfDvfRyALl30AZ+H4U5Pqwj5EeJVq72sgZKJrejEhOF4g21Tf4O7qu58LN1stWHYFPvAvu6UCf1GWOk1dO0+8WSqASmXB8nNxvpLV0KvFbsJ+j4NADxMGQyxadi52E5Abhu/A/fK5QNpIRUe2WaDU3PMaHuKMeP7mOO+Fy0XLKTcZkZ6prvlssHfF4rvr1dY3jsf9+QauuXSEewvLLsc1L7bfphjg3T4O57LCLRapzsSReRr7kNZFCXQqvrEfuYUirvlO7lGpv/R6CK4yQeXYTkctwTFKv0HGVX4a34wvtiIIyIqf4Ud8830Q8Sc7unsk/3wora2tu6t8/nL7WwTQgFvCRk5yg8+8CtJLkAHvDjOJiPdWvUESFDcUoxFh4rCD9Tas+z22GVJAUBlg+7JnWMAdOlCu3+6095k48N+2uxbW+DVopQ5xf71oM0WnuvOVQMVYc9AK/ptja+u4oJrNHMyDgUE4WlMxerAAvijfPSG31YHj262Q2KQGRPAHdYJWyMXg0XyZJC/3I07Bx+G2OSKMBculOV5w0bs/UjgvbP9SgHB+HXctE084C/hEl86DcGXR7L2a7QQ84/91XQajyVs/d+fiIXlJUnlxMStVJHZD004GX4iBCFCq7riC2JyvmfcTNbAd95mvcZcW0HiJvob7eptavLjgQbVDQXNeWi1BUaaMhxHY0eWY7+LnT//5o49uhqCfT6RKRywiVHM3SRI2txwKFMRaXGZtRMGCAJyPJ2bnrseDC9d2iW0hXgCa7k+j7NXirDBgsvRxxerotr3dvMKZ1Aac2/+6pUBQAd2P7b7mFn3owsX0WVbRZijhzPgJDtdmii04oS/UbuYgdTRqxgPcUiQTpkyR4JqazBy4AWXXKZ2cuC/lwpLY4zcMmJ1juu54sfn259fhfwK8XKJsyHjVh85pszI3d+IeBdv5WUfkHOF45o1FyyQQxs474gGVLp1YVcRjgSXz78f1Sci7Fwhpfb+65PboXCrXnSvpAyp69fiwOyPLbXq4Z03qwlvjduoW7JDVc+MX+nHN0hN/rbPAC31Gbdkz8IMcaaz+fjEzlEUO4v1+MpvNiu05EGbbPlwVlLekMi81p0wwU7piJz5e7trvtQPjwKK0gAgbNPuzWlpEFcdUFX90aPKxgrjQZPC3XlmlIE8rVsZGXcN12LgszYVGDSLBGHk5CWcR2jHr19sBGiEc2tLSGNBcKgc1x2q8CLW68RCaLae585G4vtc1aes4vzIBvXrVKrGdltf6RJPdORsZnMD5dQJaqsMKFq6GFaxFX7hc8mY4tm5SP1fXXbhN5U255nL7ItvaajCS/c6hT/UNBnvKnH8DBCfJkGdSKQxB6r9jmSTCGJcSgVnyPvAeanCwXJCWU302PbMu+PqIJdFWZYiLLqc1M27tIlxjQKQoXaoW3BLUSh0xJEIY30VgVkq8szJqUigQDFVfu4So4+e3TsmDk9gsEu1+S1VAYusVLzS3rCZNnQolQG0tKJ1BYJ0vsAxa90mSb8gthjJj5jFiwhRFIRrLv38wftOG1ysmM1u5cmU/PrYyUxAkO4lw8TVz60wzUuBoK7YWzWjT1ezNgbOLck/xUXPQikVlHhjQHoLNOGz3OBdhbTkvlRtxWBUDWoRrgPtXSESgIRn/XNjtgHU0y/IcH6Tepy7+nnT2+LFt2MWUow+EmjcaRoumK+H/fsxhBjcs/sx23MMr3ZIHOlMtWBbgG+6jemE58a+ileGbLEFzzMxuXH2lUIp4NBEFacuG0rq0hTJiiJustkxpWQYIK7q90oATaCrVWjkFKGSFWIoILKuq482ePXs8K+4yyMkhJEieHJz3N0n53INLoOIIUS57DI6qXxnldSKIZxoqu2IfXShalXnMMNPy1kymYue9SUZZP5ao3tJz6PtQ86lUpMDBTThNjOduMRKTuGYzBy4sli+0MGPWrIcCbn5FUGt53cEc886QlukD2/oEtDZdDZrtSq46rp8rxw2w46KJdMHtRa3ARuyVQ94bjnljiKAKkNSgDriGGN4bC5ZNwzkEdbg+oa6dF+ozHpu6vIxqU+qZgFtLX3LnwyhN/hODPaX56m8FCEzxPCOskNwp1fLSJPnwyk1w4klQ0XMnGEj9t4n26J0kIKKtuelkCIPvK1P/GjVTWWQpkbpnwDTnu8VQIPxquN82AS6U3O/OhGLV1VV1r3nbtkCzYlc2e3VnNhseyUzi5lYCqw/kST3bmmn6grjguUvLIJOXQeO+WKVSL7qLyrCULt+/7ZLK97Sk0z+WTIXusjJGjx79lOzfsoZkpghoaHF+LVLrfLnW4WePBsOQTpiKdHf3Po6d1WLmsHRqILbZwvG9VtITWhU4N1+zZeO6dW34iWVTxv/alRQkQHX20QIcYkNO5f025K17H4W/btAPrbDNGwVStpmj/HnpUk3cZ8MON284Gny5zzCryI6O2DiBKuUVE6EZbFcOoVR6J8vZwsGDG7O1cyMbnUCZMI21fMShOLD6rgSYeSey9BNQFlAB2lpl6YhF2+TjnzB56qlxonSxbfX32/4UggJi4nWwVYNlGPHS65aiLRkEI6DlqqBk0fXmQP+fWjKZz0mEobu8SGdPz+MyDGBnRErk7u7uZ0lxUOe9VI4nW4Z+HhXBrV7TTIEVK1b0yf69QXoadxTas7+JbuR1xdqT43tZsNTa7nx8WK3yDlgbB1297zUPWJb4UXo5xf0tA2+s775Y2r1vVGNT2LCDeYI+BL/2a0kAhAtb/mu88tyXcAJr3NIQ0ArUl5YNuTguuk3MRYVmXLh5gzg4qIK4/Bi1U3rPBWnyZ9z5kYGMchc8Oy9ylV4hIwGF5NTQJArBjuQVHPsKw7QOko/fTgm8g4DmLpVNWZ8OEZe58g2H1tZGCGde4harwgmrpoCO2yJvh4C9qd7QL0BQ/8eMGTNGu8vjY6nP429YqwEVJ52NCvUPbZn0HS0tLSVJz/xoVJQiXMaK54KzCO1PouCP1wupjzouPJWpxT4Mqe4VROXN1AA+OHOm+CYGRk0FAcn4HLSJYhTd8ccfL6O8ROXn8NnJNGtXQFfdweFw9dy/4STKw7a9wlWey5DJZYuytpZrYhTY4Uho5g5p4hzTe0NRkAYEnaMuwq5XJczB+7Ks4GPXwsJbjsdxygU0q6vsVKs7G4uCPSbYjn6rBfGkkUrTO/Xg+f0EbaVbWNHnoQUfPmBa+3R25y6NGbtQM854plyWzwXf2BMTJk+rebBmtAjObmtO343pPmieXa2Z9At4r0Ujr8611cOAaX4Z96mSW99eENTfGT9m9J/bMpkF9ohTMeno6fkVKiVpxUS1VFK4N2eSZT6Ha/qBnVojAOkkFOFCT3V1FU9g1qxZr+Gnkp1uTL6/P9YQUg9ms0/iVofabQLwmTfa0ung4aVKcA35sc0ipMhnL+rv65P8ElHDdPnMIVRIR8o1CmhBB3aiDgnXLXtLtjynw46U37xRJKwj1vXmsCvf4nh3EeYNm/LOQYGp6tzb4ejgfZHa052rDRkt5oJlh6qFy67DMeQ9KCodLj9Tf50UHgi0I2EzLD9FsDtrBTTxRZ3Z3BElU7ozmz2pqzt3blc2ezM05qfimDOGg3iKQHCeZxr6CWhRvo42CKC/1LGaM0ytPc3YhxP5J0N71VyhFZF7AiF9EgSwaNKVzm0PVDxLlGn+EXIoMjWEl47unrstYknCVMnzQ8zLn8L3/hsJfMtkMr5OXQ0hZZsR+uvri81h155bURMlip0zA/e3Ci3aY95oa5u1J4Tu1aUnHkY12jpeqJLoHjupfih4oL57wtp5IS0OznUQC9Yh2mxBoHrNGyGa7zXn/BF/g5rQR6oLb99Hbd5DPCQKiavCzRsOwX6htKFiR09sdEAuEoEoOl9GGfRJtbB9fXHa740BZZDklJDQYW8n9iCWXaH+MmlOrMRJOwJDhwnKMU4F+pZgcmtzen1xyqS3QwOEALKDpvZwNinAD9aZ1gdHIFuetHb+ho9P+i5GIC+JgwjpjmzPAov0+1CMExErcuj21kzm3rhmD/GUGbW9f7pbEVQ6dwPXONdQ/Iw3FbJoVnaqOzJKmgyk4vTYHxN3MEry9ExWwmfeGKwToTkaJ1rRTUWYMWuWhOBWqrWErf12dioH11wT6a8J9dzfNGfnnunSPCbVsGSutCwk21gpjnBVqpCgaosytzzozpcT3OFIysh/VPkHla30HILdnVIN8QYmiEO5r2iByCxoAUhlIj6shalU0EkOj5twvHfjPl/6pglnGxkUNpDXIaDLfdl3TSBrcJ8LU7nHhlTikmxodme2Z/YDvb01DdzhhYgvQMtAzDRT8NtAqUG08Fi8UGp1A/TR3d39NPZ7FI4kAxgUR5MKhz8+YcyYn8X1YpMoS6kIlJF6JxRCSc5UKcve2yFQssdmMra5DwqnE+JtsvbbQJiChEYpWpmDsRLsd/b0rMHj/ZNbjMJSWhe9MaCl2p12FLNTUrR/3Ig4AwZ0oRYtanLmwIAIwkgNjrX1G3fWBsdxBHT9gF3J1U6giUIrPSjBIk6zn/n+YPOGSyosqlBBOFPBFCW5Nyq5LgZHCZpGTU3xYKwSbatIdRGKQ8mSApIp8TcglHdXS+adPyLugcMlIGLVxp/1b1fHTpaE36DBHVY3jBkrQlSSDYUrEsNEWtYQ/u1oki9wF40Indlsl5iILLJmkASCyRMLgRW31RlU1fBw4vnRkc19ccC09kcFdhmeu7QIwpiIY9wjLn8a4tDNJ8G+TF/MQdFPQVQR+l0IsIiC1aquri7bZGA7j7N6v72c1FGVejwLeP0IwyG/2xhxpajFgdGjxxfNCJIUBU/wILnRK1euEpt97ehUiFmmKFhBhbEer5onEVxBnW/QDrggECuZN+TBByciN4xgl7VaIB2yL3rcnYkH85MQwBfj/6SFUGJCoIvVwuUj6xUyLDi4U0uuIZpATc0MCLDaCfTJYLaUqhPbamllOmN739adN0qLYdQ0IIgMtBE13Fd3d+8vOrpzH7FISy6V0IoGQvbioAhEyXXdmmmaF+ZPDaXwdVRgX4MWegBk2+VYFKhRi2wxB/vP0nUDAyKI0cRi8bUtousGpfkfWot4mB53HME4KUi95o28IzShqDqQacYK/XbHDIyK7WfWuhi1M3v2rN1wpWXJkUp4UvwU3Xm18fXXJdx9LPY0fPezq8+WSjLKS6JPUUNk5JdNWG6OAnHcEDUH+zszx47qrIwVlHbzdTX277UNu7Vkbg7nZ49A4UE+kPvUhe0jeN7DIjhSknVki4bICuwT0JpL/Zx3Gh0dHeshwKTF6RMu+FAXtDanQ0cirwV8qMXv34vWumysxThAO74OU0UXPcf00TObiCXDXlC+9DGDDQ0fcueLsJLBm2kZDwxEeiRh/xs7c7mv5h0zaXD6BFYnaRkNGLPPYKcHeKNcpCkB6RzPtUrrWJ2FctH4kQ6tMEqCU2zNaAgnH3XgAyuBsVWoNweu68mCli6Yg3Vi3460KaHJ4UtfCAFf0M7KczvXQpRwZV6hlpxRyXYlRAnoPrV1QHIVRPPSFEljKjkVSvmYWrw4lt0tEnuwAArSJu/E/qM8DgI0Ro8WuXT+dbiHpSOPjFEaQjoqD3QUeoS01IXfk6TwQZXSRpWyZHT6KALNbniHq+xQrRIKvPbiMjsgg2w3Rr8Sx+pb0FCrHuEolc8HdpRi54FeVTNmzHgD666CRhec9jWaQ+Lk3xA6unvuQ1NZRlEJaiWXppMtYkaPolIkl8v9fcC0oBxykCviIc5NIUfIWCl/ik2o8fFSADKfKuMDuqVoSIU31T3eG65fYGlT+B2t6bQkDapItDdHSX5dVpVTqGr2RSmSspxc2dYICego4apjaL7CNfMkRWSYHXdlRfOGIB1ppILsa7urzXtHjuEYC62DwshlDLhKCZN8wVQO7P94x0qIeplpbpqyrA61cHmszIg+uGT/tcKpC/C3XOAxXa2umh/ZMcoWBQ7HRBZFZwAcJiEJwHz3Q1zJqDylKkFDvUVCzt1yLMyQe11wZS1F+prE3CK2Y3dREdvM0Jxe3+gZAakEY7ChLm7aZLUyl5Nv6myn5CPUNxr3Jbbp13H7k5SmZa7I42wBzSY7vZesfLaZ2KOikNpt6qRJsSKiyAy3D/u8NywdGNHHOt6oLg9ms79ADRvo4sNkFJvxbq5an3kngBe6unqL+XHtgBZFMsr3poGRMHEI4cK1T/Go+J0uYeHjcZ+lsGTej7C9nVvXB1nfUvOW1d60dnKMlGtXTJdAAw4eNWWIgKAo8i9bPL8PGqnY7Uv2RftA2OZ8kZVxYB0ciMVW/OgySR9LfL5b8vJXNd6STuBKBPql41sJ9lcfIcgKut/KcN79ISZMmfZlfP+lSYQMZvrP1kymLAF/GGGaci2ZIllZx+HPeAi+8FYn0QVB4dxhuDmd/V4p9sCyoRyO6w+Oyg0A5wrlSZdGXL5sC+hBeXltOwudIEM9yTLBNkmw8nkuhBE39FuibPATZDrxeW/guIE1MCn1iaiEJh6k6RXkzbEW11UUtqa2K4LA5lWRkkFeB7ZtkRcPtSevkNrPWToScLlZJr55w8HQQQI6nnnDS96Yh5td4mFAB6vxuraOIBmH0Mh/H3MlNlVc3/i/3+oWgnFMK+UD1HKAEJHQd8uSZ+p/LqT2VyYqnao0aQ52B4yrWUuea8MSG3OpprUNOznZrlAqQMTipxtA/PHxagEVQOC1Dwy84VsuQShk2NpoaaQkKnL+8bHNTbGC2UjrQJODJqrKPOV23p8OOSF2Y5EBwbB6Z73WX3dLcZB9ldrcK7Se+WavPK0EDuBr4UILz9mCCUJG0kCKhjVaK9OfB0KrgKGGykGz5gTUSLHGESRF5YLT472Bi5KE6sEPhtVkHtweK8FMkO81l7rQOAOgRjGAL13GFyvC7GjxFpXnbx0m5cI1rnmjwNVnS+h4acshnnnDy3Vn/Rm1l/iF+/1NiS9WC5dVzIbmQ4aBahgl97C0o+wRZW79BARwtB/w5r3F1FXe90DqkECN/tpzsnhIQZ1VMhjCExDSlTqEHcgehLacOEJj0S3HqsG8mFtKPY+24B5+VC2ZX9FjJZ1O782KHC+mct4XNwahFiAcgq89X1/mgSOdhvjWRBCXKhL1FtO9LZkmyT0d2XcErTdwEAV8a8fanfgx2bRunYzUvQ++88oDIZP6Umtz+ly3FImbjtRbuf9KIjXd+TD+hdj8nwhTiw/c80Z3VmBL851FzZGIbGFTED4FRm3rlwEy44T5jqrTOlYwiRnQ3PaaNww2A80bBfDQY2nrkn0KP76aXashL4XZ6fQ7cORITUSih8SQ7xZVJpN5G+6WhJyunTx5WuC4ZzWzZJ64uHm9T6ozb9gQKh+/vRwPtzohX+Dazz6Ndo0I6ZKkVXSLWtB+mzrv5sov3oXtB6ktG6Ujx/9MZUzFfN3xkb7dRfg8d6aUcWpCSAf10vlLcYzSIZgAT8XUgfO/Sl383fCOoktuksjVEDsqfUEtaj9GXXDtkKlDWggLb323XXktaM+53hmF6M0CaD1qGROxYl5hCYRIkT3qdHBkp2ioZv4G2c4tjxgyHid+Ss/dgWTU8nKcljGJ+apUa4XuRt9szaQ7CsEXpbgmw7Aw6vHWQF2HuMbJ2IfuMhvJHySdfW2Nje8Uc4rk7MD3KgPZ4iyosoDGQXG2323LpJdHRSqLKSRPLK28gry02OJY6Sdw7Y3Q1J9obm6MHDDYDSMvmkRQm93W1dX7pLdWk0FexcPiQNSGh7mmCBupAeUmu8UoHu7M5mQ0koq0ZNK/xcELI0pYrI19XA1azkOEamjeVDA4YFp7QfOvZLeUDFtX42ktcovbGsaMnVZwl2vLZL7GEtAQzqA2rYPckSJs8D/fxP9AI6BrOrPZUteu4bNwOT5K/oJbuhtCu5KGX44kvycquO5I7o23Va1Be7G9EAypwEv9R+X+36k0P6D69e/U9Z99VZ1/I7Tl0XvhxT8cH7O0xmTyarlieviaGrf2qkjNWYTnQN3B2Md8vK1nukuD6Mf9ugLn9zM1zvyzz2yweNkYtYXE5TLE79oOFrgN59qtaNQjatyf+9WmffdUOi8d0dL8jTPiieRhESEZZZf+G57HlWqj1a7a55eOQG0j4cMTGxrexlpPgRg4HIrSOVhccbxGfENP4328BRXpGs28rm78+Fe97qBxkeOPH9+wn8rr47BTufbQyhcS9x4IwBv7TVOSjfm+QWik1+B+LnSLpcjz/ikRrxi0KGsYBqt8/ggy6Mv4HxlMIg7bcX7bsL28U1EKggSelPk7Q7bIM5eWvoReeys/fB/8X5pUJ7H+vZUa2GBZxt7a1B+E0Bf5Uey/kERUkuvELfpoyzQtxfoL3WLpMXJQn34GZfhxMs1/5OvqRuP6p+P652OnXpe9VZBTx8pz9NpeRfOSmHGcn78XP1U/6nq8CBWFIZgVdxxB+yEX8Jg3XC+NKOEs1NUbvuTzoeACvdpjt/flxYsdvQ9Wt3qFs4SDM7GkEhxMMQc+oGHD5pCZI05gTxDj/yFCqeBGWL15oxTJ/jZurWjSp+KkvH0Skr95obIop+r4FVQulmoYtR3b/BlvkZy7aM0F4YyPE9dj8ntR6Xw7UjgvbM+rfGo9BP/qCsJZaMB+oTxYz0IYb8X/Fiomp9NQ0ccwhfnMiga9EMdAK2X7FrVlr0EIZ2nBiMtT3OGoRKsLEs6SqfBOnNcJuHcHqGvm3hwmnIUJY0Zdbhn6RQiDNRDO7VhUeTBdgI/2MFzfMqXpSfn//q1bA0asiUbyS4wfM7pPmfo53AvxyohsGeH85uDbebje0K9B4DE0zGIe7yNnHi0DL4SNcC/y5iRm+n6K1N8kj4c9cn584SyMwvby3CqdY1Sknsifz6Oi+AT2VXCfw/5oPlrnPzEV/5bzdWvt/NqkbsS6gnDeiG0+FSacfbB61FQ0HffJm5AtLfuzFP/SNPTLuP7n3ev3CGe6a9T2/g8X5JRXgxYB1GAO9Iv2uoe2+JAHe3qKOSZaMpn5aA/c4hbDIfXVzu6cRMhEYrvRyQsBvDUSXhavBhkB/QIabCyXO7xEEmL+DjyUeR3dOXtUZ2lu4UZFhbNvVUZqujc5NyqPr+D6cG3UjmNXZ4eNiyTO2bKXpIaciHdx96o6CL0sbJf7eR7exFMgHGpO91iGnN/mPU9QpOfgOUmTLNo+yOq3EB4PKsu8XS0953fu0mgWtn8Lf73KQ3zEh3vpPP976rQoJPptR7EBEmEdrhO/qAwG1XPuiDmxkaH3IRzEM2h4WPxYV09PVfmu8W1/CjeutgT4gIzUZd6RscVcYDAvhDDyyZedCQ79JL7Rsr4uV4Ned+Ssow8SVz0xm2wf3fAfeG9EEQgbDX8jZN9tg0zXes2dQRQ0aE266cHubls4y7NFhfFFnJW45gb5l4uykmXNV3V19fi8p8puIB7WhTiZpRBmP4QwK0buib3nsVWrHseDjLTZYofPd2RzwWGtJUDgPYt/OKRg3nCO8bAIxFguRKhE3uWtRMJoyaSvxHldlGe1T+EG49jfxrEjop74c53ZnmIHKbSESQ2G/iM0lkmoGQ+OGhF52CxsvxIa6GR1zfzaK4EFtxwNodSu+vJHDFuDDkOE9dY9/x1P/QAIqD3xRHbH7wBEq2jvryoz9St17VlRrkgJCTuV1ub0Ysi334kPt7uoiAyGrU19KEuWSkuyy/FrqHCfGbCsX8b11rKFsUUz8T9fLf2f1tbW3ZVpHgkZsh/k0dsUWa9BC/nLIOuHIE8CW3llAtpOTG3mJfnP3qgF0oVaQGhubp6u2RK/32g/UIs/6HbQRSI2YEtZTV3ZHjvoA0IzjTMq978NAbXkZRLX7hZDaUun34vaHFpvrlC5UGum6QVbsARArLIduZxoh8UOD2j20Ej5PCxZ3pnLBQVbJCQkJIwoZc1IaapAHRcjNzFby7w+x93d3c9h6VfcYjgxQ7/Jsn6MGmLIzlrZ5c2H5Yy9VlbJlOK4w5DTuwuamxs/gHKYrXyTqbUvhNXJNWKnOFyPmvHLztKEhISEHUugna8rl7sH2mkHJNRB+YEBX1q/zu6e70BYVbBp8ilxgkls84RRJ8ELygkVL476EQtI5v2gdcey23Vms8U8DQYHRykCC5XTZ1ERFV3dxI2JNX0PswbWfSmO50hCQkLCSBDeEWOa4q3QR4oXl/jwsRM3HphkvsAUc2AgMvl9gULnwpQJE8SkEGvUFC/kJFCKjdi5UfEE+mujUrpIKie3aFNn6MtREbwP+vSjRx199O3u4oSEhIQdTqiA7ujt/RNElnhT1EniIa8jN7TILcpIiY9hVGa6WIn8C5D2jfoRGwjbk6sZefexhx+WaJ0yJ3wmdUtHNrvULdpAO58N4Sw+kG+oVOp06fV11iQkJCTseMI1aNCZzd6Gn/+E+NzHUHyHaJ/OGlvzfZVMS/z3QvIu83FtbW1T3EIkEqmD7T/iFqtlwoSxo2Sw13gE2LmZ1d1HzTzaFxkkoZ3Qzu/CLBHxmbje0kxTCQkJCTuUSAEtDJiWhHaKv/Lx0D59w6qLlm2RFhtwkCbdoAYHYwWTNKRIcmvETipSCscM/Q60c7NaPmhZn/Rqx+J4n1fqQWjn07D+O5IT1l2VkJCQsNOoKKBdc0YbJNnLitS5aPb7MkBJhxqE+JEQZGVD0HBs+3B13hsBHOvkyIjGTYlaMNUwrucb4jLn9VeUvAD1hr4P6yQf9YoByxr5cO6EhISEGFQU0AKa9y9rpSUSayME1+LW5iZJQF5EPBuMhoY2Uqo0beQMSWTizgciftfsj0OvhZShrBhCngvbbMIxP9HZnVvslm3kXPq3bZVEQzIawqrNfds+4RXeCQkJCTuTWAJaeDCb/TVr207cB9X42tZMRsJxiz7IK1eu7O/I5uba8e1DY3gRp3R0Z6FpurmVh4uO1NYdO7c6gRQ/YrB6b6m3ht0JauWz0Kul8/NXdf0DH1m9enWMTGsJCQkJO4bYAlro6up5SDupNtdDG70EQvpW8RN21jpICGXKtKZzIVcyq0/jb1GQl1PUaocJH9Ha2hiaT6DeMJqJ1bdmzDrmGHcImyLSIWgwP4JzlaQtqyCcm9yxGhMSEhLeNKoS0AI06dUWaUm8/lcIxbPqDf2od7BZ4YHe3le6unNnMCsxe2xoaWoKHEARwl3S/pWlBKwZ0wgd9fvIWbMe6Mjlrip1lWtpacrkST0uNmci9fPNfdvaEuGckJCwKxCh2UbTKqM5mHnJFvV+7OR1y+JPd/X0BA0hT21ts/YoDAbrBRr42RDy0cMdVcffJ06Zup8Mw+OWQxHN3w1CcToBWX1n4tSpi+L8b0JCQsLOoGYBLcyZM6d+44Z1V0G4/YezhNspVf9lGQLHKUfTmknLyBISQThisObm0pR9pdi5NbS+BVsfgTsgKSLP6sxm/8ddnZCQkLBLMCwBXaCtuekjbNFy7G03COvXsNMvdeRyMgZdMeFQANTSnL6B2BbQsdKThtCP6SlWvFJpXuEdfbsUManUG8YVOC1JfCR5WR/TpvVJb1L+hISEhF2FERHQgkQNcj7/bQg/ydMhtm0ZGeKKrlxONNMoQV3Ik/oeRda/QwXeH5vLYJji1ywh3GNxlhb2sBHzfdjnP1B+Eaf+IlnWMxOnTXv6nnvukaFlQpGRUPIDA5/Xii+wg0+UWkekLpkx8+jbkvDthISEXZURE9AFWpuaPsCabsSOneHiWf1GEV1p1NffK6549rKdxIcaG/cYNOhccnKKSIdkHud1Z79pXSK+2/ZGCQkJCbsoIy6gCzQ3N880LGsxk8q4izZi/uea6a6ObFZsxJFada2Iv3Od1sdDQ5Zc0RI5KGPiDeDYP7aYLsehn5ftEhISEnZ1dpiALtDS0nQMhPLnmJUkNJJgEeHvEJg5Ysoqw8hJpKK7vGokgdNjDz10mDJUGiI/jUuS3CCFwJe1KP8XjnHjcI6RkJCQ8GawwwV0AaeDTkbiJoksFL9o7+CJr0K4SkKm54noD5ZS/4cT2yITW9YGrXU9lo1j5klafmXMMFYHY/3BUMMPwv95IxE3QTlfYZH6weTJ07oTt7mEhIS3KjtNQHtpbm6eqC3raKVF66VGCNTpWFxxBJZAbDc5XsNK9zCZuXxePZnkz0hISPhn4E0R0KXMmTPH2LJu3f5QdQ9yteKpEN7jiNU4nOFEZoVVBM1Yhj9XWyzmtfh93mgYfG7lylWvOXtJSEhI+GdCqf8HUf3BaDHcRTgAAAAASUVORK5CYII=;" vertex="1" parent="JYqklVS4Vy_PoH1S0MUS-32">
          <mxGeometry x="150" y="390" width="108.66" height="24.75" as="geometry" />
        </mxCell>
        <mxCell id="JYqklVS4Vy_PoH1S0MUS-42" value="" style="html=1;verticalLabelPosition=bottom;align=center;labelBackgroundColor=#ffffff;verticalAlign=top;strokeWidth=2;strokeColor=#0080F0;shadow=0;dashed=0;shape=mxgraph.ios7.icons.smartphone;fontSize=15;fontStyle=1" vertex="1" parent="1">
          <mxGeometry x="702.86" y="820" width="17.14" height="40" as="geometry" />
        </mxCell>
        <mxCell id="JYqklVS4Vy_PoH1S0MUS-43" value="" style="pointerEvents=1;shadow=0;dashed=0;html=1;strokeColor=none;fillColor=#4495D1;labelPosition=center;verticalLabelPosition=bottom;verticalAlign=top;align=center;outlineConnect=0;shape=mxgraph.veeam.laptop;fontSize=15;fontStyle=1" vertex="1" parent="1">
          <mxGeometry x="732.86" y="820" width="50" height="40" as="geometry" />
        </mxCell>
        <mxCell id="JYqklVS4Vy_PoH1S0MUS-44" value="" style="pointerEvents=1;shadow=0;dashed=0;html=1;strokeColor=none;fillColor=#4495D1;labelPosition=center;verticalLabelPosition=bottom;verticalAlign=top;align=center;outlineConnect=0;shape=mxgraph.veeam.laptop;fontSize=15;fontStyle=1" vertex="1" parent="1">
          <mxGeometry x="602.68" y="750" width="50" height="40" as="geometry" />
        </mxCell>
        <mxCell id="JYqklVS4Vy_PoH1S0MUS-45" value="" style="pointerEvents=1;shadow=0;dashed=0;html=1;strokeColor=none;fillColor=#4495D1;labelPosition=center;verticalLabelPosition=bottom;verticalAlign=top;align=center;outlineConnect=0;shape=mxgraph.veeam.laptop;fontSize=15;fontStyle=1" vertex="1" parent="1">
          <mxGeometry x="370.52" y="750" width="50" height="40" as="geometry" />
        </mxCell>
        <mxCell id="JYqklVS4Vy_PoH1S0MUS-46" value="" style="html=1;verticalLabelPosition=bottom;align=center;labelBackgroundColor=#ffffff;verticalAlign=top;strokeWidth=2;strokeColor=#0080F0;shadow=0;dashed=0;shape=mxgraph.ios7.icons.smartphone;" vertex="1" parent="1">
          <mxGeometry x="1200" y="760" width="17.14" height="40" as="geometry" />
        </mxCell>
        <mxCell id="JYqklVS4Vy_PoH1S0MUS-47" value="" style="html=1;verticalLabelPosition=bottom;align=center;labelBackgroundColor=#ffffff;verticalAlign=top;strokeWidth=2;strokeColor=#0080F0;shadow=0;dashed=0;shape=mxgraph.ios7.icons.smartphone;fontSize=15;fontStyle=1" vertex="1" parent="1">
          <mxGeometry x="732.86" y="475" width="17.14" height="40" as="geometry" />
        </mxCell>
        <mxCell id="JYqklVS4Vy_PoH1S0MUS-48" value="Potenziale sviluppo&lt;br&gt;futuro" style="strokeWidth=1;shadow=0;dashed=0;align=center;html=1;shape=mxgraph.mockup.text.callout;linkText=;textSize=17;textColor=#666666;callDir=NE;callStyle=line;fontSize=17;fontColor=#666666;align=right;verticalAlign=top;strokeColor=#666666;" vertex="1" parent="1">
          <mxGeometry x="1077" y="470" width="200" height="70" as="geometry" />
        </mxCell>
      </root>
    </mxGraphModel>
  </diagram>
  <diagram id="Hj2jw2QEUpFcDOFHvnyi" name="Figura 20">
    <mxGraphModel grid="1" page="1" gridSize="10" guides="1" tooltips="1" connect="1" arrows="1" fold="1" pageScale="1" pageWidth="1654" pageHeight="1169" math="0" shadow="0">
      <root>
        <mxCell id="0" />
        <mxCell id="1" parent="0" />
        <mxCell id="sic1ron0-LnUJ6SZWrbX-1" value="Account&lt;br&gt;(Household)" style="rounded=0;whiteSpace=wrap;html=1;" vertex="1" parent="1">
          <mxGeometry x="530" y="190" width="120" height="60" as="geometry" />
        </mxCell>
        <mxCell id="sic1ron0-LnUJ6SZWrbX-2" style="edgeStyle=orthogonalEdgeStyle;rounded=0;orthogonalLoop=1;jettySize=auto;html=1;entryX=1;entryY=0.5;entryDx=0;entryDy=0;strokeColor=#FF0000;strokeWidth=4;" edge="1" parent="1" source="sic1ron0-LnUJ6SZWrbX-4" target="sic1ron0-LnUJ6SZWrbX-10">
          <mxGeometry relative="1" as="geometry" />
        </mxCell>
        <mxCell id="sic1ron0-LnUJ6SZWrbX-3" style="edgeStyle=orthogonalEdgeStyle;rounded=0;orthogonalLoop=1;jettySize=auto;html=1;entryX=0;entryY=0.5;entryDx=0;entryDy=0;exitX=0.5;exitY=0;exitDx=0;exitDy=0;strokeWidth=4;" edge="1" parent="1" source="sic1ron0-LnUJ6SZWrbX-4" target="sic1ron0-LnUJ6SZWrbX-1">
          <mxGeometry relative="1" as="geometry" />
        </mxCell>
        <mxCell id="sic1ron0-LnUJ6SZWrbX-4" value="Contact" style="rounded=0;whiteSpace=wrap;html=1;" vertex="1" parent="1">
          <mxGeometry x="390" y="290" width="120" height="60" as="geometry" />
        </mxCell>
        <mxCell id="sic1ron0-LnUJ6SZWrbX-5" style="edgeStyle=orthogonalEdgeStyle;rounded=0;orthogonalLoop=1;jettySize=auto;html=1;strokeWidth=4;" edge="1" parent="1" source="sic1ron0-LnUJ6SZWrbX-6" target="sic1ron0-LnUJ6SZWrbX-1">
          <mxGeometry relative="1" as="geometry" />
        </mxCell>
        <mxCell id="sic1ron0-LnUJ6SZWrbX-6" value="Contact" style="rounded=0;whiteSpace=wrap;html=1;" vertex="1" parent="1">
          <mxGeometry x="530" y="290" width="120" height="60" as="geometry" />
        </mxCell>
        <mxCell id="sic1ron0-LnUJ6SZWrbX-7" style="edgeStyle=orthogonalEdgeStyle;rounded=0;orthogonalLoop=1;jettySize=auto;html=1;entryX=1;entryY=0.5;entryDx=0;entryDy=0;exitX=0.5;exitY=0;exitDx=0;exitDy=0;strokeWidth=4;" edge="1" parent="1" source="sic1ron0-LnUJ6SZWrbX-8" target="sic1ron0-LnUJ6SZWrbX-1">
          <mxGeometry relative="1" as="geometry" />
        </mxCell>
        <mxCell id="sic1ron0-LnUJ6SZWrbX-8" value="Contact" style="rounded=0;whiteSpace=wrap;html=1;" vertex="1" parent="1">
          <mxGeometry x="670" y="290" width="120" height="60" as="geometry" />
        </mxCell>
        <mxCell id="sic1ron0-LnUJ6SZWrbX-9" style="edgeStyle=orthogonalEdgeStyle;rounded=0;orthogonalLoop=1;jettySize=auto;html=1;entryX=0;entryY=0.5;entryDx=0;entryDy=0;exitX=0.5;exitY=0;exitDx=0;exitDy=0;strokeWidth=4;" edge="1" parent="1" source="sic1ron0-LnUJ6SZWrbX-10" target="sic1ron0-LnUJ6SZWrbX-1">
          <mxGeometry relative="1" as="geometry">
            <Array as="points">
              <mxPoint x="284" y="220" />
            </Array>
          </mxGeometry>
        </mxCell>
        <mxCell id="sic1ron0-LnUJ6SZWrbX-10" value="Opportunity&lt;br&gt;(Donazione)" style="rounded=0;whiteSpace=wrap;html=1;" vertex="1" parent="1">
          <mxGeometry x="224" y="290" width="120" height="60" as="geometry" />
        </mxCell>
        <mxCell id="sic1ron0-LnUJ6SZWrbX-11" style="edgeStyle=orthogonalEdgeStyle;rounded=0;orthogonalLoop=1;jettySize=auto;html=1;strokeWidth=4;" edge="1" parent="1" source="sic1ron0-LnUJ6SZWrbX-12" target="sic1ron0-LnUJ6SZWrbX-10">
          <mxGeometry relative="1" as="geometry" />
        </mxCell>
        <mxCell id="sic1ron0-LnUJ6SZWrbX-12" value="Campaign" style="rounded=0;whiteSpace=wrap;html=1;" vertex="1" parent="1">
          <mxGeometry x="224" y="480" width="120" height="60" as="geometry" />
        </mxCell>
        <mxCell id="sic1ron0-LnUJ6SZWrbX-13" style="edgeStyle=orthogonalEdgeStyle;rounded=0;orthogonalLoop=1;jettySize=auto;html=1;strokeWidth=4;" edge="1" parent="1" source="sic1ron0-LnUJ6SZWrbX-15" target="sic1ron0-LnUJ6SZWrbX-4">
          <mxGeometry relative="1" as="geometry" />
        </mxCell>
        <mxCell id="sic1ron0-LnUJ6SZWrbX-14" style="edgeStyle=orthogonalEdgeStyle;rounded=0;orthogonalLoop=1;jettySize=auto;html=1;entryX=1;entryY=0.5;entryDx=0;entryDy=0;exitX=0.5;exitY=1;exitDx=0;exitDy=0;strokeWidth=4;" edge="1" parent="1" source="sic1ron0-LnUJ6SZWrbX-15" target="sic1ron0-LnUJ6SZWrbX-12">
          <mxGeometry relative="1" as="geometry" />
        </mxCell>
        <mxCell id="sic1ron0-LnUJ6SZWrbX-15" value="Campaign&lt;br&gt;Member" style="rounded=0;whiteSpace=wrap;html=1;" vertex="1" parent="1">
          <mxGeometry x="390" y="390" width="120" height="60" as="geometry" />
        </mxCell>
        <mxCell id="sic1ron0-LnUJ6SZWrbX-16" style="edgeStyle=orthogonalEdgeStyle;rounded=0;orthogonalLoop=1;jettySize=auto;html=1;strokeWidth=4;" edge="1" parent="1" source="sic1ron0-LnUJ6SZWrbX-18" target="sic1ron0-LnUJ6SZWrbX-6">
          <mxGeometry relative="1" as="geometry" />
        </mxCell>
        <mxCell id="sic1ron0-LnUJ6SZWrbX-17" style="edgeStyle=orthogonalEdgeStyle;rounded=0;orthogonalLoop=1;jettySize=auto;html=1;entryX=1;entryY=0.5;entryDx=0;entryDy=0;strokeWidth=4;" edge="1" parent="1" source="sic1ron0-LnUJ6SZWrbX-18" target="sic1ron0-LnUJ6SZWrbX-12">
          <mxGeometry relative="1" as="geometry">
            <Array as="points">
              <mxPoint x="590" y="510" />
            </Array>
          </mxGeometry>
        </mxCell>
        <mxCell id="sic1ron0-LnUJ6SZWrbX-18" value="Campaign&lt;br&gt;Member" style="rounded=0;whiteSpace=wrap;html=1;" vertex="1" parent="1">
          <mxGeometry x="530" y="390" width="120" height="60" as="geometry" />
        </mxCell>
        <mxCell id="sic1ron0-LnUJ6SZWrbX-19" style="edgeStyle=orthogonalEdgeStyle;rounded=0;orthogonalLoop=1;jettySize=auto;html=1;entryX=1;entryY=0.5;entryDx=0;entryDy=0;strokeColor=#FF0000;strokeWidth=4;" edge="1" parent="1">
          <mxGeometry relative="1" as="geometry">
            <mxPoint x="400" y="164.58" as="sourcePoint" />
            <mxPoint x="354" y="164.58" as="targetPoint" />
          </mxGeometry>
        </mxCell>
        <mxCell id="sic1ron0-LnUJ6SZWrbX-20" value="Specifica per modello “Household”" style="text;html=1;align=left;verticalAlign=middle;whiteSpace=wrap;rounded=0;fontStyle=1" vertex="1" parent="1">
          <mxGeometry x="410" y="150" width="270" height="30" as="geometry" />
        </mxCell>
      </root>
    </mxGraphModel>
  </diagram>
</mxfile>
